<?xml version="1.0" encoding="utf-8"?>
<!-- Generator: Adobe Illustrator 21.1.0, SVG Export Plug-In . SVG Version: 6.00 Build 0)  -->
<svg version="1.1" id="圖層_1" xmlns="http://www.w3.org/2000/svg" xmlns:xlink="http://www.w3.org/1999/xlink" x="0px" y="0px"
	 viewBox="0 0 200 200" style="enable-background:new 0 0 200 200;" xml:space="preserve">
<style type="text/css">
	.st0{fill:#8E951F;}
	.st1{fill:#E51B23;}
</style>
<g>
	<path class="st0" d="M40.2,102.1c0,0,0.7-22.3,23-25.3C62.8,80.1,63,96,40.2,102.1z"/>
	<path class="st1" d="M7.9,81.7c0,0,17-11.8,37.6,0.5c-1.7,2.2-5.4,7.6-7,11.1c-1.1-0.1-13.5-3.7-24.3,6.5
		C13.1,96.5,7.9,81.7,7.9,81.7z"/>
	<path class="st1" d="M57.2,97c3.9,12.2-7.7,25.6-18.9,26.4c-9.3,0.7-17.7-5.9-17-16.9c0.5-7.9,9.1-12.8,16.4-11l0,4.7
		c-3.5-1.3-8.9,1.8-9.3,6.1c-0.5,5,3.8,8.1,8.1,8.2c5.1,0.2,11.2-4.9,9.4-10.5L57.2,97z"/>
	<path class="st1" d="M36.8,102.3c-2.5-1-5.9,1.1-6.2,4.2c-0.3,3.6,2.7,5.5,5.8,5.7c3.7,0.1,8-3.5,7.7-7.6h-6.2
		C37.9,104.6,38.8,103.1,36.8,102.3z"/>
	<path class="st1" d="M76.6,87.2h-2.5l-7.1,18.7h3.4l1.9-5.2h5.9l1.9,5.2h3.4L76.6,87.2z M73.5,97.7l1.8-5l1.8,5H73.5z"/>
	<path class="st0" d="M141.2,87.2h-2.5l-7.1,18.7h2.9l1.9-5.2h7.2l1.9,5.2h2.6L141.2,87.2z M137.8,98.1l2.2-7l2.2,7H137.8z"/>
	<path class="st0" d="M158.3,100.3l0,0.1c-0.2,1.1-0.6,1.9-1.2,2.4c-0.6,0.5-1.4,0.8-2.4,0.8c-1.2,0-2.1-0.4-2.9-1.2
		c-0.7-0.8-1.1-2-1.1-3.8c0-1.7,0.4-3,1.1-3.7c0.8-0.8,1.7-1.2,3-1.2c0.8,0,1.5,0.2,2,0.6c0.6,0.4,1,1.1,1.2,1.9l0,0.1l2.7-0.4
		l0-0.1c-0.3-1.4-1-2.4-2-3.2c-1-0.7-2.4-1.1-4-1.1c-1.3,0-2.5,0.3-3.6,0.8c-1.1,0.5-1.9,1.4-2.5,2.5c-0.5,1.1-0.8,2.3-0.8,3.8
		c0,2.2,0.6,4,1.9,5.1c1.2,1.2,2.9,1.8,4.9,1.8c1.6,0,3-0.4,4.1-1.3c1.1-0.9,1.8-2.1,2.1-3.6l0-0.1L158.3,100.3z"/>
	<g>
		<rect x="169.5" y="92.1" class="st0" width="2.7" height="13.4"/>
		<rect x="169.5" y="87.1" class="st0" width="2.7" height="2.8"/>
	</g>
	<path class="st0" d="M183.4,91.9l-3,8.2c-0.3,0.8-0.5,1.5-0.7,2.1c-0.2-0.8-0.5-1.5-0.7-2.3l-2.9-8l0-0.1h-2.7l5.1,13.5l0,0.1h2.3
		l5.1-13.4l0.1-0.2H183.4z"/>
	<g>
		<polygon class="st0" points="186.9,92.5 187.8,92.5 187.8,94.9 188.3,94.9 188.3,92.5 189.2,92.5 189.2,92.1 186.9,92.1 		"/>
		<path class="st0" d="M191.5,92.1l-0.7,2c0,0.1-0.1,0.2-0.1,0.2c0-0.1,0-0.1-0.1-0.2l-0.6-2h-0.6v2.9h0.5v-2l0.6,2l0,0h0.4l0.7-2v2
			h0.5v-2.9H191.5z"/>
	</g>
	<path class="st1" d="M91.7,91.2c-1.7,0-3.4,0.8-4.6,2.1v-1.7h-3v20.1h3v-8.2c1.2,1.4,2.8,2.1,4.6,2.1c3.5,0,6.4-3.2,6.4-7.2
		C98.1,94.4,95.3,91.2,91.7,91.2z M96.3,98.4c0,2.8-2.1,5.1-4.6,5.1c-2.5,0-4.6-2.3-4.6-5.1c0-2.8,2.1-5.1,4.6-5.1
		C94.2,93.4,96.3,95.7,96.3,98.4z"/>
	<path class="st1" d="M106,91.2c-1.7,0-3.4,0.8-4.6,2.1v-1.7h-1.8v20.1h1.8v-8.2c1.2,1.4,2.8,2.1,4.6,2.1c3.5,0,6.4-3.2,6.4-7.2
		C112.4,94.4,109.5,91.2,106,91.2z M106,103.5c-2.5,0-4.6-2.3-4.6-5.1c0-2.8,2.1-5.1,4.6-5.1c2.5,0,4.6,2.3,4.6,5.1
		C110.6,101.2,108.5,103.5,106,103.5z"/>
	<rect x="115.1" y="86.3" class="st1" width="1.7" height="19"/>
	<path class="st1" d="M132.4,99.1v-1c0-3.7-2.9-6.4-6.8-6.4c-3.5,0-7,2.6-7,7c0,3.3,2.5,6.7,7.3,6.7c2.6,0,5-1.3,6.5-4.4h-2.7
		c-1.3,1.4-2.5,2.5-4.3,2.5c-2.6,0.1-4.2-2.4-4-4.4H132.4z M125.5,94.1c1.3,0,2.3,0.4,3.1,1.1c0.5,0.4,0.8,1.1,1,2h-8.1
		C122.2,95.3,123.7,94.1,125.5,94.1z"/>
	<path class="st0" d="M168.5,105.3c0,0-5.5,0.5-5.5-3.8v-7.2h-1.8v-2.4h1.8v-3.1h2.9v3.1h2.5v2.4h-2.5v7.4c0,2.4,2.7,1.9,2.7,1.9
		V105.3z"/>
</g>
</svg>
