<?xml version="1.0" encoding="utf-8"?>
<!-- Generator: Adobe Illustrator 21.1.0, SVG Export Plug-In . SVG Version: 6.00 Build 0)  -->
<svg version="1.1" id="圖層_1" xmlns="http://www.w3.org/2000/svg" xmlns:xlink="http://www.w3.org/1999/xlink" x="0px" y="0px"
	 viewBox="0 0 200 200" style="enable-background:new 0 0 200 200;" xml:space="preserve">
<style type="text/css">
	.st0{fill:#46A990;}
	.st1{fill:#D75461;}
	.st2{fill:#D95560;}
	.st3{fill:#E2505E;}
</style>
<g>
	<path class="st0" d="M66.3,114.6c-9,0-16.4,7.4-16.4,16.4s7.3,16.4,16.4,16.4s16.4-7.4,16.4-16.4S75.3,114.6,66.3,114.6z
		 M66.3,139.9c-4.9,0-8.8-4-8.8-8.8c0-4.9,4-8.8,8.8-8.8c4.9,0,8.8,4,8.8,8.8C75.1,136,71.1,139.9,66.3,139.9z"/>
	<path class="st0" d="M153.9,121.5c-7.2,0-13.1,5.9-13.1,13.2c0,7.3,5.9,13.2,13.1,13.2s13.1-5.9,13.1-13.2
		C167,127.4,161.2,121.5,153.9,121.5z M153.9,141.7c-3.9,0-7.1-3.2-7.1-7.1s3.2-7.1,7.1-7.1c3.9,0,7.1,3.2,7.1,7.1
		S157.8,141.7,153.9,141.7z"/>
	<polygon class="st0" points="86.7,128.5 93.8,122.2 93.8,141.7 103.5,141.7 103.5,147.5 86.7,147.5 	"/>
	<polygon class="st0" points="105.5,128.7 112.7,122.2 112.7,147.5 105.5,147.5 	"/>
	<path class="st0" d="M138.4,127.8l6-6h-18.1c0,0-8.7,1.9-10.3,11.2c-1.6,9.3,9.5,14.6,9.5,14.6h12.4v-16.2h-6.1v10.2h-5.2
		c0,0-10.8-6.8-0.4-13.7L138.4,127.8z"/>
	<path class="st1" d="M137.2,88.3c-2.3,5.2-8.7,5.5-8.7,5.5c0.8-0.9,5.1-15.5,5.4-18.6s-4.4-7.5-5.6,1.8c-1.2,9.3-5.5,8.6-5.5,8.6
		s0.1-5.7,0-8.4c-0.1-2.7-5-5.6-5.2,1.8c-0.2,7.4-0.6,7.5-2.2,8c-7.9-0.1-4.5-15.8-4.5-15.8s4.7-2.2,7.5-3.5
		c2.2-3.7-3.6-3.2-3.6-3.2l-3,1c0,0,1.9-11-0.3-13.2c-3.9-1.7-4.8,5.5-4.8,5.5l-1.2,9.3c0,0-5.4,1.8-6.4,4.1c-1,2.3,6.4,1.5,6.4,1.5
		s2,8.6-2.7,17.6c-6.9,9.6-5.1-10.5-5.9-12.6c-5-2.8-4.8,1.8-4.8,1.8s0.2,9.7-2.3,13.2c-2.5,3.5-4.6-1.2-4.6-1.2s0.2-11.6-2.2-10.8
		c-2.4,0.8-2.9,5.2-2.9,5.2s0.1,7.5,0,10.2c-1.7,2.6-4.1,0.6-4.9-0.3c-0.8-0.9-0.9-4.5-1-7.1c-0.1-2.6-4.1-6.9-9.6-3.7
		c-5.5,3.2-4.5,14.7-4.5,14.7s-2.5,1.6-5.7,3.7c-3.2,2.1-6.9-3.7-5-4.1c1.9-0.4,10.3-4.8,6.7-10c-3.6-5.2-8.2-0.3-10.8,4.1
		c-2.6,4.4-4.1,0.8-4.1,0.8C44.2,78.9,22.8,84,21,84.5c-1.9,0.6-21.2,10.2-16,20.1s15.1-2.1,15.1-2.1c2.9-2.8,2.1,17.3,3.8,22.2
		c3.9,5,4.6-2.1,4.6-2.1v-9.3c13.5-1.2,16.3-9.7,16.3-9.7c9.1,10.9,17.5-0.6,17.5-0.6c8.7,3.8,10.8-2.4,10.8-2.4
		c7.4,7.4,10.9-2.2,10.9-2.2c7,3.5,11.1-3,11.1-3c8.8,7.7,13.4-6.6,13.4-6.6c6,6.1,9.7,1.2,9.7,1.2c9.3-1.7,3.5,6.2,3.5,6.2
		s-14,1.4-22.5,7.9s-8.4,21.4,3.7,19.7c12.1-1.7,23.1-23.2,23.1-23.2c10.6-1.1,14.4-9.5,15.8-13.7C143.2,82.7,139.5,83.2,137.2,88.3
		z M52.9,91.7c3,2-3.7,4.4-3.7,4.4S49.9,89.7,52.9,91.7z M15.8,100.7c0,0-3.8,4.2-6.1,2.4c-2.3-1.9,1.1-5.5,1.1-5.5
		C16.3,96.9,15.8,100.7,15.8,100.7z M25.9,99.7v-5c-3.9-5.7-6.3,1.2-6.3,1.2l-5.8-1.6c0,0,14-11.4,21.4-5.5S27.1,99.6,25.9,99.7z
		 M30.8,108.8c-4.4,2.8-4.2-4.4-4.2-4.4c0.8-3.1,12.6-3.9,12.6-3.9S35.2,106,30.8,108.8z M69.6,96.8c0,0-0.8,3.5-4.2,3.1
		c-3.4-0.4-0.2-11.7,4.2-12.5V96.8z M104.3,118c-8.1,6.4-4.8-7.2-4.8-7.2c4.3-9.1,18.9-9.6,18.9-9.6S112.4,111.7,104.3,118z"/>
	<g>
		<path class="st2" d="M190.4,118.6c3.1,0,5.5,2.5,5.5,5.6c0,3.1-2.5,5.5-5.6,5.5c-3.1,0-5.5-2.5-5.5-5.6
			C184.9,121,187.4,118.6,190.4,118.6z M194.8,124.1c0-2.4-2-4.4-4.4-4.4c-2.4,0-4.4,1.9-4.4,4.4c0,2.5,2,4.4,4.4,4.4
			C192.8,128.5,194.8,126.5,194.8,124.1z"/>
		<path class="st2" d="M189.5,124.9c0,0.7,0,1.3,0,1.9c-0.5,0-0.9,0-1.3,0c0-1.7,0-3.4,0-5.2c0.3,0,0.6,0,0.9,0c0.6,0,1.2,0,1.7,0
			c0.8,0.1,1.3,0.4,1.4,1.1c0.1,0.8-0.1,1.3-0.9,1.7c0.9,0.6,1,1.6,1.6,2.5c-0.5,0-0.9,0-1.3,0c-0.1,0-0.2-0.1-0.3-0.2
			c-0.2-0.3-0.4-0.7-0.5-1.1C190.5,124.9,190.3,124.8,189.5,124.9z M189.5,123.9c0.5-0.1,1,0.2,1.2-0.3c0.1-0.2,0.1-0.6,0-0.8
			c-0.3-0.4-0.8-0.3-1.2-0.3C189.5,123,189.5,123.5,189.5,123.9z"/>
	</g>
	<path class="st1" d="M147,86.7c0,0-9.7,6.4,0.9,13.7C147.9,100.4,142.6,91.4,147,86.7z"/>
	<g>
		<path class="st1" d="M155.7,83.8c-0.9,0.3-1.7,1.8-1.7,2.7c0,1,0.3,1.9,1,2.6c0.8,0.9,1.9,1.3,3,1.4c1.2,0,2.3-0.4,3.1-1.1
			c1-0.9,1.6-2.2,1.7-3.6c0.1-1.4-0.4-2.7-1.4-3.7c-1.1-1.2-2.7-1.9-4.4-2c-1.7-0.1-3.8,0.4-5,1.5c-1.5,1.4-2.5,3.2-2.4,5.3
			c0,4.1,5.6,5.4,5.6,5.4c-1-1.1-2.8-3.7-2.7-5.2c0.1-1.5,0.7-2.9,1.8-4c1.8-1.6,4-1.5,5.7,0.2c0.6,0.7,0.9,1.5,0.9,2.4
			c0,0.9-0.4,1.7-1.1,2.3c-0.5,0.4-1.1,0.7-1.8,0.7c-0.7,0-1.3-0.3-1.7-0.8c-0.3-0.4-0.5-0.8-0.5-1.3c0-0.5,0.2-0.9,0.5-1.2
			c0,0,1.7-1.2,3,0.4C159.3,85.7,158,82.9,155.7,83.8z"/>
	</g>
	<path class="st1" d="M161.5,79.3c0,0,5.9,5.5,4.7,7.5C166.2,86.7,172.4,80.3,161.5,79.3z"/>
	<path class="st1" d="M163.9,76.9c0,0,4.5-5.7,9.7,0c5.2,5.7,8.1,8.7,9.9,9.2c1.8,0.5,8.5,5.7,0,13c0,0,0.3-9.1-3.1-11.6
		c-3.4-2.5-5.5-8.8-8.6-8.8S163.9,76.9,163.9,76.9z"/>
	<path class="st1" d="M179.6,80.8c0,0-4.6-7.6,5.2-1.8c9.8,5.7,11.8,9.6,10.4,15c-1.4,5.4-5.6,8.8-5.6,8.8h-6.1
		c0,0,9.8-6.6,6.8-14.1C187.3,81.2,179.6,80.8,179.6,80.8z"/>
	<path class="st1" d="M169.8,102.3c0,0,3.9-0.7,5.2-3.8c1.3-3.1,0.5-7.3,1.8-8.2s2.8-1.1,2.8,2.7s1.7,15.1-4,12.2
		C169.8,102.3,169.8,102.3,169.8,102.3z"/>
	<path class="st1" d="M181.1,105.4l5.7,0.3c0,0,3,4.4-0.5,6.8c-3.5,2.5-8.1,7.8-8.1,7.8s-10.6,1.2-10.8-3V115
		C167.3,115,177.5,115.9,181.1,105.4z"/>
	<path class="st1" d="M163.5,102.7c0,0,6.5-10.3,6.8-16.3c0.3-5.9,4.4-5.2,4.4,0C174.7,91.7,171.7,100.6,163.5,102.7z"/>
	<path class="st1" d="M147.9,91.3c0,0,8.8,4.6,14.5-0.3c5.7-4.8,5.8,1.2,0.7,2.6c-5.1,1.3-11.9,0.9-11.9,0.9l-1.9,1.8L147.9,91.3z"
		/>
	<path class="st1" d="M150.7,96.7c0,0,12.2,1,14.1-1.7c0,0-2.9,11.4-8.6,8.8C150.5,101.2,150.7,96.7,150.7,96.7z"/>
	<path class="st1" d="M149,103.7c0,0,1.1,9.9,8,6.5c6.9-3.4,12-4.4,15.9-2.9c0,0-3.6-3.2-9.4-1.9C157.8,106.6,149.8,106.6,149,103.7
		z"/>
	<path class="st1" d="M145.8,101.8c0,0-1,10.5,6.6,11.2c7.7,0.7,8.4,1,9.4,1.6c1,0.7,2.5,4.3-1.2,4.5
		C156.9,119.2,136.4,121.2,145.8,101.8z"/>
	<path class="st3" d="M160.6,111.8c0,0,2.3-2.5,6.7-2.5c4.4,0.1,7.9-0.4,7.9-0.4s-4.5,4.8-8.6,4.1
		C162.4,112.2,160.6,111.8,160.6,111.8z"/>
</g>
</svg>
