<?xml version="1.0" encoding="utf-8"?>
<!-- Generator: Adobe Illustrator 21.1.0, SVG Export Plug-In . SVG Version: 6.00 Build 0)  -->
<svg version="1.1" id="圖層_1" xmlns="http://www.w3.org/2000/svg" xmlns:xlink="http://www.w3.org/1999/xlink" x="0px" y="0px"
	 viewBox="0 0 200 200" style="enable-background:new 0 0 200 200;" xml:space="preserve">
<style type="text/css">
	.st0{fill:#312E7D;}
	.st1{fill:#312E7D;stroke:#312E7D;stroke-width:0.2835;stroke-miterlimit:10;}
</style>
<g>
	<path class="st0" d="M34.9,77.9h-7.6c0,0.5-0.4,0.8-0.8,0.8c-0.5,0-0.8-0.4-0.8-0.8H15.2L5.4,95.1l9.9,17.1h19.7l9.9-17.1
		L34.9,77.9z M29.8,78.1c0.5,0,0.8,0.4,0.8,0.9c0,0.5-0.4,0.9-0.8,0.9c-0.5,0-0.8-0.4-0.8-0.9C28.9,78.5,29.3,78.1,29.8,78.1z
		 M29.8,81.5c0.6,0,1.1,0.5,1.1,1.1c0,0.6-0.5,1.1-1.1,1.1s-1.1-0.5-1.1-1.1C28.7,82,29.2,81.5,29.8,81.5z M26.8,80.5
		c0.5,0,0.8,0.4,0.8,0.9c0,0.5-0.4,0.9-0.8,0.9c-0.5,0-0.8-0.4-0.8-0.9C26,80.9,26.3,80.5,26.8,80.5z M26.1,83.5
		c0.6,0,1.1,0.5,1.1,1.1s-0.5,1.1-1.1,1.1s-1.1-0.5-1.1-1.1S25.4,83.5,26.1,83.5z M23.6,79.2c0.5,0,0.8,0.4,0.8,0.9
		c0,0.5-0.4,0.9-0.8,0.9c-0.5,0-0.8-0.4-0.8-0.9C22.8,79.6,23.1,79.2,23.6,79.2z M23.1,82.6c0.5,0,0.8,0.4,0.8,0.9
		c0,0.5-0.4,0.9-0.8,0.9c-0.5,0-0.8-0.4-0.8-0.9C22.3,83,22.6,82.6,23.1,82.6z M22,86c0.6,0,1.1,0.5,1.1,1.1c0,0.6-0.5,1.1-1.1,1.1
		s-1.1-0.5-1.1-1.1C20.9,86.5,21.4,86,22,86z M20.1,79.2c0.5,0,0.8,0.4,0.8,0.9c0,0.5-0.4,0.9-0.8,0.9c-0.5,0-0.8-0.4-0.8-0.9
		C19.2,79.6,19.6,79.2,20.1,79.2z M19.6,82.6c0.5,0,0.8,0.4,0.8,0.9c0,0.5-0.4,0.9-0.8,0.9c-0.5,0-0.8-0.4-0.8-0.9
		C18.7,83,19.1,82.6,19.6,82.6z M17.2,85C17.2,85,17.2,84.9,17.2,85c1,2.7,5.5,4.8,5.5,4.8c0.8-0.9,4.2-2.7,4.2-2.7
		c3.8-1.6,6.2-5.8,6.2-5.8c0.5,5.5-8.7,9.6-8.7,9.6l5,2.9c5,2.8,3.6,6.5,3.6,6.5c-0.5-2.3-3.1-4.3-5.3-5.2c-1.7-0.9-3.1-1.6-5.2-3
		c-3.9,1.5-5,4.9-5,4.9c-0.3-4,3.1-6.2,3.1-6.2C16.9,88.8,17.1,85.6,17.2,85z M32.1,112c0,0-1.7-2.5-3.4-3.3l-5.3,3.2l-3.5,0
		l6.7-4.3c0,0-2.1-1.1-5.8-3.4c-3.3-2-3.6-4.9-3.7-5.6c0,0,0,0,0,0l0-0.1c0,0,0,0.1,0,0.1c0,0.1,1.7,2.1,4.3,3.8
		c2.7,1.7,7,4.3,7,4.3s4.3-3.2,4.5-4.8c0,0,0.4,3.8-3.2,5.7c0,0,2.7,1.4,3.5,4.4H32.1z"/>
	<path class="st0" d="M66.3,85.7c2.1-0.8,1.5-7.7-1.4-7.8h-5.4H46.3v3.7h13.3h0.7c2.7,0,2.7,2.7,0,2.7h-0.7H46.3v10.2h13.3h6.8
		C68.9,94.7,68.9,85.8,66.3,85.7z M60.8,90.6h-1.2h-8.3v-2.4h8.3h1.2C63.5,88.2,63.5,90.6,60.8,90.6z"/>
	<rect x="70.8" y="77.9" class="st0" width="4.8" height="16.6"/>
	<path class="st0" d="M97.5,77.7H83.1c-2.5,0-4.5,2-4.5,4.5v8c0,2.5,2,4.5,4.5,4.5h14.4c2.5,0,4.5-2,4.5-4.5v-8
		C101.9,79.7,99.9,77.7,97.5,77.7z M96.6,88.1c0,1.3-1,2.3-2.3,2.3h-8.4c-1.3,0-2.3-1-2.3-2.3v-3.7c0-1.3,1-2.3,2.3-2.3h8.4
		c1.3,0,2.3,1,2.3,2.3V88.1z"/>
	<path class="st0" d="M122.5,81.9v-4.2h-14.1c-2.5,0-4.5,2-4.5,4.5v8c0,2.5,2,4.5,4.5,4.5h14h0.1v-4h-10.9c-1.3,0-2.4-1.1-2.4-2.4
		v-3.9c0-1.3,1.1-2.4,2.4-2.4H122.5L122.5,81.9z"/>
	<path class="st0" d="M145.7,87.9c1.6,0,2.9-1.3,2.9-2.9v-3.2c0-2.2-1.8-4-4-4h-15.2c-2.2,0-4,1.8-4,4v4.3v1.8v2.8
		c0,2.1,1.7,3.8,3.8,3.8h1.3h17.8v-4.3h-17.8v-2.4H145.7z M130.4,84.4v-2.6h11.8c0.7,0,1.2,0.6,1.2,1.2v0.1c0,0.7-0.6,1.2-1.2,1.2
		H130.4z"/>
	<path class="st0" d="M155.6,90.2V77.8h-4.9v12.4c0,2.4,2,4.4,4.4,4.4h0.5h14.1v-4.4H155.6z"/>
	<path class="st0" d="M176.3,90.2V77.8h-4.9v12.4c0,2.4,2,4.4,4.4,4.4h0.5h14.1v-4.4H176.3z"/>
</g>
<polygon class="st0" points="46.7,97.5 36.7,114.4 16.1,114.4 16.8,115.5 37.1,115.5 46.7,99 50.7,99 50.7,106.1 52.3,106.1 
	52.3,98.9 56.4,98.9 56.4,97.5 "/>
<g>
	<path class="st0" d="M62,105.9v-8.2h8.2v1h-6.7v2.5h6.3v1h-6.3v2.8h7v1H62z"/>
</g>
<path class="st0" d="M84.5,103v1c0,0.5-0.4,0.9-0.9,0.9h-5.1c-0.5,0-0.9-0.4-0.9-0.9v-4.1c0-0.5,0.4-0.9,0.9-0.9h5.1
	c0.5,0,0.9,0.4,0.9,0.9v0.8l1.3,0V100c0-1.4-1.1-2.5-2.5-2.5h-4.8c-1.4,0-2.5,1.1-2.5,2.5v3.7c0,1.4,1.1,2.5,2.5,2.5h4.8
	c1.4,0,2.5-1.1,2.5-2.5V103L84.5,103z"/>
<g>
	<path class="st0" d="M91.1,105.9v-8.2h1.6v3.3H99v-3.3h1.6v8.2H99v-3.8h-6.3v3.8H91.1z"/>
</g>
<g>
	<path class="st0" d="M105.5,105.9v-8.2h1.8l6.8,6.4v-6.4h1.7v8.2H114l-6.8-6.4v6.4H105.5z"/>
</g>
<path class="st0" d="M128,97.4h-5.4c-1.5,0-2.7,1.2-2.7,2.7v3.6c0,1.5,1.2,2.7,2.7,2.7h5.4c1.5,0,2.7-1.2,2.7-2.7v-3.6
	C130.7,98.6,129.5,97.4,128,97.4z M129,103.7c0,0.5-0.4,1-1,1h-5.8c-0.5,0-1-0.4-1-1V100c0-0.5,0.4-1,1-1h5.8c0.5,0,1,0.4,1,1V103.7
	z"/>
<path class="st0" d="M157.5,97.4h-5.4c-1.5,0-2.7,1.2-2.7,2.7v3.6c0,1.5,1.2,2.7,2.7,2.7h5.4c1.5,0,2.7-1.2,2.7-2.7v-3.6
	C160.2,98.6,159,97.4,157.5,97.4z M158.6,103.7c0,0.5-0.4,1-1,1h-5.8c-0.5,0-1-0.4-1-1V100c0-0.5,0.4-1,1-1h5.8c0.5,0,1,0.4,1,1
	V103.7z"/>
<path class="st0" d="M174.7,100.6v-0.6c0-1.5-1.2-2.7-2.6-2.7h-5.2c-1.4,0-2.6,1.2-2.6,2.7v3.6c0,1.5,1.2,2.7,2.6,2.7h5.2
	c1.4,0,2.6-1.2,2.6-2.7v-2h-5.7v1.3l4.1,0v0.7c0,0.5-0.4,1-0.9,1h-5.5c-0.5,0-0.9-0.4-0.9-1V100c0-0.5,0.4-1,0.9-1h5.5
	c0.5,0,0.9,0.4,0.9,1v0.7L174.7,100.6z"/>
<g>
	<path class="st0" d="M136.1,106v-8.5h1.5v7.1h6.3v1.3H136.1z"/>
</g>
<g>
	<path class="st0" d="M183.3,106.1v-3.5l-4.4-4.8h1.9l2.3,2.5c0.4,0.5,0.8,0.9,1.2,1.4c0.3-0.4,0.8-0.9,1.3-1.5l2.2-2.4h1.8
		l-4.6,4.8v3.5H183.3z"/>
</g>
<g>
	<path class="st0" d="M56.2,120.9l0.6-5.6h0.3l-0.5,5.2h1.9l0,0.4H56.2z"/>
</g>
<g>
	<path class="st0" d="M155,120.9l0.6-5.6h0.3l-0.5,5.2h1.9l0,0.4H155z"/>
</g>
<g>
	<path class="st0" d="M159.9,121l0.4-4h0.3l-0.4,4H159.9z M160.6,116c-0.1,0-0.1,0-0.2-0.1c0-0.1-0.1-0.1-0.1-0.2
		c0-0.1,0-0.2,0.1-0.2c0.1-0.1,0.1-0.1,0.2-0.1c0.1,0,0.1,0,0.2,0.1c0,0.1,0.1,0.1,0.1,0.2c0,0.1,0,0.2-0.1,0.2
		C160.7,116,160.6,116,160.6,116z"/>
</g>
<g>
	<path class="st0" d="M61.9,121c-0.3,0-0.6-0.1-0.8-0.3c-0.2-0.2-0.4-0.4-0.5-0.7c-0.1-0.3-0.1-0.7-0.1-1.1c0-0.4,0.2-0.8,0.3-1.1
		c0.2-0.3,0.4-0.6,0.7-0.7c0.3-0.2,0.6-0.3,0.9-0.3c0.5,0,0.9,0.2,1.1,0.6c0.2,0.4,0.3,0.9,0.3,1.5c0,0.4-0.1,0.8-0.3,1.1
		c-0.2,0.3-0.4,0.6-0.7,0.7C62.5,120.9,62.2,121,61.9,121z M62.3,117.2c-0.4,0-0.8,0.2-1,0.5c-0.3,0.3-0.4,0.8-0.5,1.3
		c-0.1,0.5,0,0.9,0.2,1.3c0.2,0.3,0.5,0.5,0.9,0.5c0.4,0,0.7-0.2,1-0.5s0.4-0.7,0.5-1.3c0.1-0.6,0-1-0.2-1.3
		C63,117.3,62.7,117.2,62.3,117.2z"/>
</g>
<g>
	<path class="st0" d="M126.3,121.1c-0.3,0-0.6-0.1-0.8-0.3c-0.2-0.2-0.4-0.4-0.5-0.7c-0.1-0.3-0.1-0.7-0.1-1.1
		c0-0.4,0.2-0.8,0.3-1.1c0.2-0.3,0.4-0.6,0.7-0.7c0.3-0.2,0.6-0.3,0.9-0.3c0.5,0,0.9,0.2,1.1,0.6c0.2,0.4,0.3,0.9,0.3,1.5
		c0,0.4-0.1,0.8-0.3,1.1c-0.2,0.3-0.4,0.6-0.7,0.7C126.9,121,126.6,121.1,126.3,121.1z M126.7,117.2c-0.4,0-0.8,0.2-1,0.5
		c-0.3,0.3-0.4,0.8-0.5,1.3c-0.1,0.5,0,0.9,0.2,1.3c0.2,0.3,0.5,0.5,0.9,0.5c0.4,0,0.7-0.2,1-0.5c0.3-0.3,0.4-0.7,0.5-1.3
		c0.1-0.6,0-1-0.2-1.3C127.4,117.4,127.1,117.2,126.7,117.2z"/>
</g>
<g>
	<path class="st0" d="M106.9,121.1c-0.3,0-0.6-0.1-0.8-0.3c-0.2-0.2-0.4-0.4-0.5-0.7c-0.1-0.3-0.1-0.7-0.1-1.1
		c0-0.4,0.2-0.8,0.3-1.1c0.2-0.3,0.4-0.6,0.7-0.7c0.3-0.2,0.6-0.3,0.9-0.3c0.5,0,0.9,0.2,1.1,0.6c0.2,0.4,0.3,0.9,0.3,1.5
		c0,0.4-0.1,0.8-0.3,1.1c-0.2,0.3-0.4,0.6-0.7,0.7C107.6,121,107.3,121.1,106.9,121.1z M107.4,117.2c-0.4,0-0.8,0.2-1,0.5
		c-0.3,0.3-0.4,0.8-0.5,1.3c-0.1,0.5,0,0.9,0.2,1.3c0.2,0.3,0.5,0.5,0.9,0.5c0.4,0,0.7-0.2,1-0.5c0.3-0.3,0.4-0.7,0.5-1.3
		c0.1-0.6,0-1-0.2-1.3C108.1,117.4,107.8,117.2,107.4,117.2z"/>
</g>
<g>
	<path class="st0" d="M146.3,121c-0.3,0-0.6-0.1-0.8-0.3c-0.2-0.2-0.4-0.4-0.5-0.7c-0.1-0.3-0.1-0.7-0.1-1.1c0-0.4,0.2-0.8,0.3-1.1
		c0.2-0.3,0.4-0.6,0.7-0.7c0.3-0.2,0.6-0.3,0.9-0.3c0.5,0,0.9,0.2,1.1,0.6c0.2,0.4,0.3,0.9,0.3,1.5c0,0.4-0.1,0.8-0.3,1.1
		c-0.2,0.3-0.4,0.6-0.7,0.7C146.9,120.9,146.6,121,146.3,121z M146.7,117.2c-0.4,0-0.8,0.2-1,0.5c-0.3,0.3-0.4,0.8-0.5,1.3
		c-0.1,0.5,0,0.9,0.2,1.3c0.2,0.3,0.5,0.5,0.9,0.5c0.4,0,0.7-0.2,1-0.5c0.3-0.3,0.4-0.7,0.5-1.3c0.1-0.6,0-1-0.2-1.3
		C147.4,117.3,147.1,117.2,146.7,117.2z"/>
</g>
<g>
	<path class="st0" d="M116,121l0.1-0.7h0c-0.3,0.5-0.8,0.8-1.3,0.8c-0.9,0-1.3-0.6-1.1-1.7l0.3-2.2h0.4l-0.3,2.1
		c-0.1,0.5,0,0.9,0.1,1.1c0.1,0.2,0.4,0.4,0.8,0.4c0.3,0,0.6-0.1,0.9-0.4c0.2-0.3,0.4-0.6,0.4-1l0.3-2.2h0.4l-0.5,3.9H116z"/>
</g>
<g>
	<path class="st0" d="M120.1,120.8c-0.2,0.1-0.4,0.1-0.5,0.1c-0.6,0-0.8-0.3-0.7-1l0.3-2.6h-0.7l0-0.3h0.7l0.1-1l0.4-0.1l-0.1,1.1h1
		l0,0.3h-1l-0.3,2.5c0,0.3,0,0.5,0.1,0.6c0.1,0.1,0.2,0.2,0.4,0.2c0.1,0,0.3,0,0.5-0.1L120.1,120.8z"/>
</g>
<g>
	<path class="st0" d="M122.3,120.9l0.5-3.9h0.4l-0.5,3.9H122.3z M123.1,116.1c-0.1,0-0.1,0-0.2-0.1c-0.1-0.1-0.1-0.1-0.1-0.2
		c0-0.1,0-0.1,0.1-0.2c0.1-0.1,0.1-0.1,0.2-0.1s0.1,0,0.2,0.1c0.1,0.1,0.1,0.1,0.1,0.2c0,0.1,0,0.2-0.1,0.2
		C123.2,116.1,123.1,116.1,123.1,116.1z"/>
</g>
<g>
	<path class="st0" d="M68.1,121.1l0.2-2.3c0.1-1-0.1-1.4-0.7-1.4c-0.3,0-0.6,0.1-0.9,0.4c-0.2,0.3-0.4,0.6-0.4,1l-0.2,2.3h-0.3
		l0.4-4h0.3l-0.1,0.7h0c0.3-0.5,0.7-0.8,1.3-0.8c0.4,0,0.6,0.1,0.8,0.4c0.2,0.3,0.2,0.7,0.2,1.2l-0.3,2.4H68.1z"/>
</g>
<g>
	<path class="st0" d="M132.5,121.1l0.2-2.3c0.1-1-0.1-1.4-0.7-1.4c-0.3,0-0.6,0.1-0.9,0.4c-0.2,0.3-0.4,0.6-0.4,1l-0.2,2.3h-0.3
		l0.4-4h0.3l-0.1,0.7h0c0.3-0.5,0.7-0.8,1.3-0.8c0.4,0,0.6,0.1,0.8,0.4c0.2,0.3,0.2,0.7,0.2,1.2l-0.3,2.4H132.5z"/>
</g>
<g>
	<path class="st0" d="M135.3,120.3c0.1,0.1,0.2,0.2,0.4,0.3c0.2,0.1,0.3,0.1,0.4,0.1c0.5,0,0.8-0.3,0.9-0.8c0-0.2,0-0.3-0.1-0.4
		c-0.1-0.1-0.3-0.3-0.6-0.4c-0.3-0.2-0.5-0.3-0.6-0.5c-0.1-0.2-0.2-0.4-0.1-0.7c0-0.3,0.2-0.6,0.4-0.8c0.2-0.2,0.5-0.3,0.8-0.3
		c0.3,0,0.5,0.1,0.7,0.2l0,0.4c-0.2-0.2-0.5-0.3-0.8-0.3c-0.2,0-0.4,0.1-0.6,0.2c-0.2,0.1-0.2,0.3-0.3,0.5c0,0.1,0,0.3,0,0.4
		c0,0.1,0.1,0.2,0.2,0.2c0.1,0.1,0.2,0.2,0.4,0.3c0.2,0.1,0.4,0.2,0.5,0.4c0.1,0.1,0.2,0.2,0.2,0.3c0,0.1,0.1,0.3,0,0.5
		c0,0.3-0.2,0.6-0.4,0.8c-0.2,0.2-0.5,0.3-0.9,0.3c-0.3,0-0.6-0.1-0.8-0.3L135.3,120.3z"/>
</g>
<g>
	<path class="st0" d="M73.8,120.9c-0.1,0.7-0.3,1.3-0.6,1.6c-0.3,0.4-0.8,0.5-1.4,0.5c-0.3,0-0.7-0.1-1-0.3l0-0.4
		c0.3,0.2,0.7,0.4,1,0.4c0.9,0,1.5-0.6,1.6-1.7l0.1-0.5h0c-0.3,0.5-0.8,0.8-1.3,0.8c-0.3,0-0.5-0.1-0.7-0.2
		c-0.2-0.2-0.3-0.4-0.4-0.7c-0.1-0.3-0.1-0.7-0.1-1.1c0-0.4,0.1-0.8,0.3-1.1c0.2-0.3,0.4-0.6,0.6-0.8c0.3-0.2,0.5-0.3,0.9-0.3
		c0.5,0,0.8,0.2,1,0.7h0l0.1-0.6h0.3L73.8,120.9z M73.7,118.7c0-0.2,0-0.5-0.1-0.7c-0.1-0.2-0.2-0.4-0.3-0.5
		c-0.2-0.1-0.3-0.2-0.6-0.2c-0.4,0-0.7,0.2-1,0.5c-0.3,0.3-0.4,0.8-0.5,1.3c-0.1,0.5,0,0.9,0.2,1.2c0.2,0.3,0.4,0.5,0.8,0.5
		c0.4,0,0.7-0.1,0.9-0.4c0.3-0.3,0.4-0.6,0.4-1L73.7,118.7z"/>
</g>
<g>
	<path class="st0" d="M80.1,115.5l-0.6,5.4h-0.4l0.6-5.4h-1.4l0-0.4h3.2l0,0.4H80.1z"/>
</g>
<g>
	<path class="st0" d="M83.2,119c-0.1,0.6,0,1,0.2,1.3c0.2,0.3,0.5,0.5,0.9,0.5c0.4,0,0.8-0.2,1.2-0.5l0,0.4
		c-0.4,0.3-0.8,0.5-1.3,0.5c-0.5,0-0.8-0.2-1.1-0.6c-0.2-0.4-0.3-0.9-0.2-1.6c0-0.4,0.1-0.8,0.3-1.1c0.2-0.3,0.4-0.6,0.6-0.8
		c0.3-0.2,0.5-0.3,0.9-0.3c0.4,0,0.8,0.2,1,0.5c0.2,0.4,0.3,0.9,0.2,1.5l0,0.2H83.2z M85.6,118.7c0-0.5,0-0.8-0.2-1.1
		c-0.2-0.3-0.4-0.4-0.7-0.4c-0.3,0-0.6,0.1-0.9,0.4c-0.2,0.3-0.4,0.6-0.5,1.1H85.6z"/>
</g>
<g>
	<path class="st0" d="M165.9,119c-0.1,0.6,0,1,0.2,1.3c0.2,0.3,0.5,0.5,0.9,0.5c0.4,0,0.8-0.2,1.2-0.5l0,0.4
		c-0.4,0.3-0.8,0.5-1.3,0.5c-0.5,0-0.8-0.2-1.1-0.6c-0.2-0.4-0.3-0.9-0.2-1.6c0-0.4,0.1-0.8,0.3-1.1c0.2-0.3,0.4-0.6,0.7-0.8
		c0.3-0.2,0.5-0.3,0.9-0.3c0.4,0,0.8,0.2,1,0.5c0.2,0.4,0.3,0.9,0.2,1.5l0,0.2H165.9z M168.2,118.7c0-0.5,0-0.8-0.2-1.1
		c-0.2-0.3-0.4-0.4-0.7-0.4c-0.3,0-0.6,0.1-0.9,0.4c-0.2,0.3-0.4,0.6-0.5,1.1H168.2z"/>
</g>
<g>
	<path class="st0" d="M170.8,120.8c0,0.1-0.1,0.2-0.2,0.3c-0.1,0.1-0.2,0.1-0.3,0.1c-0.1,0-0.2,0-0.3-0.1c-0.1-0.1-0.1-0.2-0.1-0.3
		c0-0.1,0.1-0.2,0.2-0.3c0.1-0.1,0.2-0.1,0.3-0.1c0.1,0,0.2,0,0.3,0.1C170.8,120.6,170.8,120.7,170.8,120.8z M171.6,116.1l-0.9,3.4
		h-0.1l0.1-0.9c0-0.1,0-0.6,0.1-1.5c0-0.7,0.1-1.2,0.1-1.3c0.1-0.5,0.3-0.7,0.5-0.7c0.3,0,0.4,0.2,0.3,0.7
		C171.6,115.8,171.6,115.9,171.6,116.1z"/>
</g>
<g>
	<path class="st0" d="M89.8,117.4c-0.1-0.1-0.3-0.1-0.4-0.1c-0.3,0-0.6,0.2-0.9,0.5c-0.3,0.3-0.4,0.8-0.5,1.4l-0.2,2h-0.4l0.5-4.1
		h0.4l-0.1,0.9h0c0.1-0.3,0.3-0.6,0.5-0.7c0.2-0.2,0.5-0.3,0.7-0.3c0.2,0,0.3,0,0.4,0.1L89.8,117.4z"/>
</g>
<g>
	<path class="st0" d="M152.1,117.4c-0.1-0.1-0.3-0.1-0.4-0.1c-0.3,0-0.6,0.2-0.9,0.5c-0.3,0.3-0.4,0.8-0.5,1.4l-0.2,2h-0.4l0.5-4.1
		h0.4l-0.1,0.9h0c0.1-0.3,0.3-0.6,0.5-0.7c0.2-0.2,0.5-0.3,0.7-0.3c0.2,0,0.3,0,0.4,0.1L152.1,117.4z"/>
</g>
<g>
	<path class="st0" d="M96.3,121.2l0.3-2.5c0.1-0.5,0-0.9-0.1-1.1c-0.1-0.2-0.4-0.3-0.7-0.3c-0.2,0-0.4,0.1-0.6,0.2
		c-0.2,0.1-0.4,0.3-0.5,0.5c-0.1,0.2-0.2,0.5-0.2,0.7l-0.3,2.4h-0.4l0.3-2.5c0.1-0.9-0.2-1.4-0.9-1.4c-0.3,0-0.6,0.1-0.9,0.4
		c-0.3,0.3-0.4,0.6-0.5,1.1l-0.3,2.4h-0.4l0.5-4.1H92l-0.1,0.7h0c0.4-0.5,0.8-0.8,1.4-0.8c0.3,0,0.5,0.1,0.7,0.3
		c0.2,0.2,0.3,0.4,0.4,0.7c0.2-0.3,0.4-0.5,0.6-0.7c0.3-0.2,0.5-0.3,0.8-0.3c0.9,0,1.3,0.6,1.2,1.7l-0.3,2.6H96.3z"/>
</g>
<g>
	<path class="st0" d="M100.6,120.2c0.4,0.3,0.8,0.4,1.2,0.4c0.5,0,0.8-0.1,1.1-0.3c0.3-0.2,0.4-0.5,0.4-0.8c0-0.2,0-0.3,0-0.4
		c0-0.1-0.1-0.2-0.3-0.4c-0.1-0.1-0.4-0.3-0.8-0.6c-0.4-0.2-0.7-0.4-0.8-0.6c-0.1-0.1-0.2-0.3-0.3-0.5c-0.1-0.2-0.1-0.4-0.1-0.6
		c0-0.3,0.1-0.5,0.3-0.8c0.2-0.2,0.4-0.4,0.7-0.5c0.3-0.1,0.6-0.2,0.9-0.2c0.4,0,0.7,0.1,1,0.2l-0.1,0.4c-0.3-0.2-0.7-0.2-1.1-0.2
		c-0.4,0-0.7,0.1-1,0.3c-0.3,0.2-0.4,0.4-0.4,0.8c0,0.2,0,0.4,0,0.5c0,0.1,0.1,0.3,0.3,0.4c0.1,0.1,0.4,0.3,0.8,0.5
		c0.3,0.2,0.6,0.4,0.8,0.6c0.2,0.2,0.3,0.3,0.4,0.5c0.1,0.2,0.1,0.4,0.1,0.6c-0.1,0.5-0.3,0.8-0.6,1.1c-0.4,0.3-0.8,0.4-1.4,0.4
		c-0.2,0-0.4,0-0.7-0.1c-0.3-0.1-0.5-0.1-0.6-0.2L100.6,120.2z"/>
</g>
<polygon class="st0" points="172.4,115.6 173.5,115.6 173.5,118.6 174.1,118.6 174.1,115.6 175.1,115.6 175.1,115.1 172.4,115.1 "/>
<path class="st0" d="M178.3,115.1l-0.8,2.4c0,0.1-0.1,0.2-0.1,0.3c0-0.1-0.1-0.2-0.1-0.3l-0.8-2.4h-0.8v3.5h0.6v-2.4l0.8,2.4l0,0.1
	h0.5l0.8-2.4v2.4h0.6v-3.5H178.3z"/>
<g>
	<path class="st0" d="M192,76.7c1.5,0,2.7,1.2,2.7,2.6c0,1.5-1.2,2.7-2.7,2.7c-1.5,0-2.7-1.2-2.7-2.7
		C189.3,77.9,190.5,76.7,192,76.7z M192,81.4c1.2,0,2.1-0.9,2.1-2.1c0-1.1-1-2.1-2.1-2.1c-1.2,0-2.2,0.9-2.2,2.1
		C189.8,80.5,190.8,81.4,192,81.4z"/>
	<path class="st0" d="M192.7,79.4c0.4,0.4,0.5,0.9,0.6,1.5c-0.2,0-0.4,0-0.5,0c-0.1-0.2-0.1-0.4-0.2-0.7c0-0.1-0.1-0.3-0.2-0.4
		c-0.1-0.2-0.3-0.2-0.5-0.2c-0.2,0-0.3,0-0.5,0c0,0.4,0,0.9,0,1.3c-0.2,0-0.4,0-0.5,0c0-1,0-2,0-3c0.5-0.1,1.1-0.2,1.6,0
		c0.5,0.2,0.8,0.6,0.7,1.1C193,79.1,192.9,79.2,192.7,79.4z M191.4,79.1c0.3,0,0.6,0,0.9-0.1c0.2,0,0.3-0.2,0.3-0.4
		c0-0.2-0.1-0.3-0.3-0.4c-0.3-0.1-0.6-0.1-0.9-0.1C191.4,78.5,191.4,78.8,191.4,79.1z"/>
</g>
<g>
	<path class="st0" d="M141,117.2l0.9,0c0.2-0.8,0.2-0.8,0.3-1.2c0.2-0.3,0.4-0.6,0.7-0.8c0.3-0.2,0.5-0.3,0.8-0.3
		c0.1,0,0.2,0,0.3,0.1c0.1,0.1,0.1,0.2,0.1,0.3c0,0.2-0.1,0.3-0.3,0.3c-0.1,0-0.2,0-0.4-0.1c-0.1,0-0.2,0-0.2,0
		c-0.2,0-0.4,0.1-0.5,0.4c-0.1,0.3-0.2,0.6-0.3,0.9l-0.1,0.4h0.9l-0.1,0.3h-0.9l-0.6,3.3c-0.2,0.9-0.4,1.5-0.8,1.9
		c-0.4,0.4-0.8,0.7-1.2,0.7c-0.1,0-0.2,0-0.3-0.1c-0.1-0.1-0.1-0.2-0.1-0.3c0-0.1,0-0.2,0.1-0.2c0.1-0.1,0.1-0.1,0.2-0.1
		c0,0,0.1,0,0.1,0c0.2,0,0.4,0.1,0.6,0.1c0.2,0,0.3,0,0.4-0.1c0.1-0.1,0.2-0.2,0.2-0.3c0.1-0.2,0.1-0.4,0.2-0.8l0.8-4H141L141,117.2
		z"/>
</g>
<g>
	<path class="st0" d="M162,117.2l0.9,0c0.2-0.8,0.2-0.8,0.3-1.2c0.2-0.3,0.4-0.6,0.7-0.8c0.3-0.2,0.5-0.3,0.8-0.3
		c0.1,0,0.2,0,0.3,0.1c0.1,0.1,0.1,0.2,0.1,0.3c0,0.2-0.1,0.3-0.3,0.3c-0.1,0-0.2,0-0.4-0.1c-0.1,0-0.2,0-0.2,0
		c-0.2,0-0.4,0.1-0.5,0.4c-0.1,0.3-0.2,0.6-0.3,0.9l-0.1,0.4h0.9l-0.1,0.3h-0.9l-0.6,3.3c-0.2,0.9-0.4,1.5-0.8,1.9
		c-0.4,0.4-0.8,0.7-1.2,0.7c-0.1,0-0.2,0-0.3-0.1c-0.1-0.1-0.1-0.2-0.1-0.3c0-0.1,0-0.2,0.1-0.2c0.1-0.1,0.1-0.1,0.2-0.1
		c0,0,0.1,0,0.1,0c0.2,0,0.4,0.1,0.6,0.1c0.2,0,0.3,0,0.4-0.1c0.1-0.1,0.2-0.2,0.2-0.3c0.1-0.2,0.1-0.4,0.2-0.8l0.8-4h-0.8
		L162,117.2z"/>
</g>
<g>
	<path class="st1" d="M111,121c-0.2,0-0.3-0.1-0.4-0.2c-0.1-0.1-0.1-0.3-0.1-0.5l1-4.8h0.1l-1,4.8c0,0.1,0,0.3,0.1,0.4
		c0.1,0.1,0.2,0.2,0.3,0.2L111,121z"/>
</g>
</svg>
