<?xml version="1.0" encoding="utf-8"?>
<!-- Generator: Adobe Illustrator 21.1.0, SVG Export Plug-In . SVG Version: 6.00 Build 0)  -->
<svg version="1.1" id="圖層_1" xmlns="http://www.w3.org/2000/svg" xmlns:xlink="http://www.w3.org/1999/xlink" x="0px" y="0px"
	 viewBox="0 0 200 200" style="enable-background:new 0 0 200 200;" xml:space="preserve">
<style type="text/css">
	.st0{fill:#7A247B;}
</style>
<g>
	<path class="st0" d="M7,110.3c29.4,6.9,38.1-25.8,14-32.3H7.3v5.3h12.4C35,90.5,27.2,107,14,105.1V85.9H6.3L5,89.3h2v21.3"/>
	<path class="st0" d="M57.5,99.8c0-6.4-4.8-11.6-10.7-11.6s-10.7,5.2-10.7,11.6c0,6.4,5.7,9.8,6,9.9c6.2,2.9,12.6,0.4,12.9,0.2
		l0-5.4c0,0-9.4,5.1-12.2-3.6l14.7,0.1C57.5,100.6,57.5,100.2,57.5,99.8z M42.9,96.5c1.4-4.2,6.5-5.1,8,0H42.9z"/>
	<polygon class="st0" points="58.6,77.7 57.1,81.5 59.4,81.5 59.4,110.8 66.1,110.8 66.1,77.7 	"/>
	<polygon class="st0" points="177.4,77.7 175.9,81.5 178.2,81.5 178.2,110.8 184.9,110.8 184.9,77.7 	"/>
	<polygon class="st0" points="119,88.5 117.5,92.2 119.8,92.2 119.8,110.8 126.5,110.8 126.5,88.5 	"/>
	<path class="st0" d="M83.4,88.2c-2.8,0-5.3,1.3-7.2,3.2v-2.9h-7.4l-1.7,3.7h2.7v30.4h6.2l0.1-14.2c1.9,1.8,4.5,2.7,7.2,2.7
		c5.8,0,10.5-5.1,10.5-11.5C93.9,93.3,89.2,88.2,83.4,88.2z M81.7,105.8c-3.1,0-5.6-2.7-5.6-6.1c0-3.4,2.5-6.1,5.6-6.1
		s5.6,2.7,5.6,6.1C87.3,103.1,84.8,105.8,81.7,105.8z"/>
	<path class="st0" d="M95,77.8l-1.5,3.6h2.4v29.4h6.7V96.5c0.9-3.2,5.6-5,7.4,0v14.3h6.5V95.2c-1-7.8-10.6-9.2-13.9-4.6V77.8H95z"/>
	<path class="st0" d="M129.1,88.5l-1.5,3.6h2.4v18.7h6.7V96.5c0.9-3.2,5.6-5,7.4,0v14.3h6.5V95.2c-1-7.8-10.6-9.2-13.9-4.6v-2.1
		H129.1z"/>
	<ellipse class="st0" cx="123.1" cy="81.6" rx="3.6" ry="3.6"/>
	<path class="st0" d="M164.3,88c-6.4,0-11.6,5.2-11.6,11.6c0,6.4,5.2,11.6,11.6,11.6c6.4,0,11.6-5.2,11.6-11.6
		C175.9,93.2,170.7,88,164.3,88z M164.3,105.4c-3,0-5.4-2.6-5.4-5.8c0-3.2,2.4-5.8,5.4-5.8c3,0,5.4,2.6,5.4,5.8
		C169.7,102.7,167.3,105.4,164.3,105.4z"/>
	<g>
		<g>
			<path class="st0" d="M190.8,77.4c2.3,0,4.2,1.9,4.2,4.2c0,2.3-1.9,4.2-4.2,4.2c-2.3,0-4.2-1.9-4.2-4.2
				C186.6,79.3,188.5,77.4,190.8,77.4z M194.1,81.7c0-1.9-1.5-3.4-3.3-3.4c-1.9,0-3.4,1.5-3.4,3.3c0,1.9,1.5,3.4,3.4,3.4
				C192.6,85,194.1,83.5,194.1,81.7z"/>
			<path class="st0" d="M190.4,81.9c0,0.5,0,1.5,0,2c-0.3,0-0.7,0-1,0c0-1.3,0-3.2,0-4.5c0.2,0,0.4,0,0.7,0c0.4,0,0.9,0,1.3,0
				c0.6,0,1,0.3,1.1,0.8c0.1,0.6-0.3,1.1-0.9,1.4c0.7,0.4,0.9,1.6,1.3,2.2c-0.4,0-0.7,0-1,0c-0.1,0-0.2-0.1-0.2-0.2
				c-0.1-0.3-0.3-0.8-0.5-1.1C191,82.1,191,81.9,190.4,81.9z M190.4,81.2c0.3,0,0.7,0.1,0.9-0.2c0.1-0.2,0.1-0.5,0-0.6
				c-0.2-0.3-0.6-0.2-0.9-0.2C190.4,80.5,190.4,80.8,190.4,81.2z"/>
		</g>
	</g>
</g>
</svg>
