<?xml version="1.0" encoding="utf-8"?>
<!-- Generator: Adobe Illustrator 21.1.0, SVG Export Plug-In . SVG Version: 6.00 Build 0)  -->
<svg version="1.1" id="圖層_1" xmlns="http://www.w3.org/2000/svg" xmlns:xlink="http://www.w3.org/1999/xlink" x="0px" y="0px"
	 viewBox="0 0 200 200" style="enable-background:new 0 0 200 200;" xml:space="preserve">
<style type="text/css">
	.st0{fill:#648D45;}
	.st1{fill:url(#SVGID_1_);}
	.st2{fill:#92C7D0;}
	.st3{fill:url(#SVGID_2_);}
	.st4{fill:url(#SVGID_3_);}
	.st5{fill:url(#SVGID_4_);}
	.st6{fill:url(#SVGID_5_);}
	.st7{fill:url(#SVGID_6_);}
	.st8{fill:#92C7D0;stroke:#000000;stroke-miterlimit:10;}
	.st9{fill:url(#SVGID_7_);}
	.st10{fill:url(#SVGID_8_);}
	.st11{fill:url(#SVGID_9_);}
</style>
<image style="overflow:visible;" width="204" height="201" xlink:href="9177DE5D.png"  transform="matrix(1 0 0 1 59.3979 -201)">
</image>
<g>
	<g>
		<path class="st0" d="M100,95.2c-4.8,7-13,9.9-21.5,9.9c-14.4,0-26.3-12.8-26.3-28.8c0-16,11.7-27.5,26.1-27.5
			c7.2,0,13.7,3.2,18.5,8.5c-2.6-3.4-8-10.9-17.6-12.4c0,0-2-0.3-3.9-0.3c-16.9,0-30.6,14.4-30.6,32.2S58.3,109,75.2,109
			c10.6,0,20-5.7,25.5-14.3"/>
		<linearGradient id="SVGID_1_" gradientUnits="userSpaceOnUse" x1="44.085" y1="76.7861" x2="101.0349" y2="76.7861">
			<stop  offset="0" style="stop-color:#FFFFFF"/>
			<stop  offset="1" style="stop-color:#7E7776"/>
		</linearGradient>
		<path class="st1" d="M75.2,109.5c-17.1,0-31.1-14.7-31.1-32.7c0-18,13.9-32.7,31.1-32.7c1.9,0,3.9,0.3,4,0.3
			c9.6,1.5,15.1,8.8,17.7,12.4l0.1,0.2l-0.7,0.6c-4.8-5.4-11.3-8.3-18.1-8.3c-14.6,0-25.6,11.6-25.6,27.1
			c0,15.6,11.6,28.3,25.9,28.3c9.4,0,16.9-3.4,21.1-9.7l0.2,0.1c0.1-0.2,0.3-0.4,0.4-0.6L101,95C95.2,104.1,85.6,109.5,75.2,109.5z
			 M75.2,45C58.6,45,45,59.3,45,76.8c0,17.5,13.5,31.8,30.1,31.8c7,0,13.7-2.6,19-7.1c-4.2,2.7-9.6,4.1-15.7,4.1
			c-14.8,0-26.8-13.1-26.8-29.2c0-16,11.4-28,26.5-28c5.1,0,10,1.6,14.3,4.6c-3-3.2-7.4-6.6-13.5-7.6C79,45.3,77.1,45,75.2,45z"/>
	</g>
	<g>
		<path class="st2" d="M99.2,91.1c-3.6,5.5-9.9,7.7-16.4,7.7c-11,0-20.1-10-20.1-22.4C62.7,64,71.6,55,82.6,55
			c5.5,0,10.5,2.5,14.1,6.6c-1.9-2.7-6.1-8.5-13.4-9.6c0,0-1.5-0.2-3-0.2c-12.9,0-23.4,11.2-23.4,25.1c0,13.9,10.5,25.1,23.4,25.1
			c8.1,0,15.2-4.4,19.4-11.1"/>
		<linearGradient id="SVGID_2_" gradientUnits="userSpaceOnUse" x1="56.4014" y1="76.7864" x2="100.0822" y2="76.7864">
			<stop  offset="0" style="stop-color:#FFFFFF"/>
			<stop  offset="1" style="stop-color:#7E7776"/>
		</linearGradient>
		<path class="st3" d="M80.2,102.4c-13.2,0-23.8-11.5-23.8-25.6c0-14.1,10.7-25.6,23.8-25.6c1.4,0,2.9,0.2,3.1,0.2
			c7.4,1.2,11.6,6.9,13.6,9.7l0.1,0.2l-0.7,0.6c-3.7-4.1-8.5-6.4-13.7-6.4c-11.1,0-19.4,9-19.4,21c0,12.1,8.8,21.9,19.6,21.9
			c7.1,0,12.8-2.7,16-7.5l0.2,0.1c0.1-0.1,0.2-0.3,0.3-0.4l0.8,0.5C95.6,98.1,88.2,102.4,80.2,102.4z M80.2,52.2
			c-12.6,0-22.9,11-22.9,24.6c0,13.6,10.3,24.6,22.9,24.6c4.9,0,9.5-1.7,13.4-4.6c-3,1.6-6.7,2.5-10.8,2.5
			c-11.4,0-20.6-10.3-20.6-22.9c0-12.5,8.8-21.9,20.4-21.9c3.6,0,7,1,10.1,3c-2.3-2.2-5.4-4.4-9.5-5.1
			C83.1,52.4,81.6,52.2,80.2,52.2z"/>
	</g>
	<path class="st0" d="M101.5,79.3c-12-15-33.5-1.4-36.9,10.6c0,0,9.8-8.5,18.4-2.3c8.6,6.2,14.6,3.7,18.4-1c-1-2-9.7-7.3-19.5-6.5
		C83.1,79,88.6,76.9,101.5,79.3z"/>
	<g>
		<path class="st2" d="M13,138.4v10.1c0,3.5-5.1,3.1-5.1,0v-28.2v0.3c0-3.1,5.1-3.5,5.1,0v-0.3V131h4.9v-12.5c0-7-14.6-6.3-14.6-0.1
			v-0.3v32.4c0,6.2,14.6,6.9,14.6-0.1c0-0.3,0-16.4,0-16.4h-8v4.4H13z"/>
		<linearGradient id="SVGID_3_" gradientUnits="userSpaceOnUse" x1="2.75" y1="134.4769" x2="18.3276" y2="134.4769">
			<stop  offset="0" style="stop-color:#FFFFFF"/>
			<stop  offset="1" style="stop-color:#7E7776"/>
		</linearGradient>
		<path class="st4" d="M10.8,155.9c-3.9,0-8.1-1.9-8.1-5.4l0-32.4C3,114.8,7,113,10.8,113c2,0,3.8,0.5,5.1,1.3
			c1.6,1,2.4,2.4,2.4,4.2v13h-5.8v-10.8c0-0.7-0.2-1.2-0.6-1.5c-1-0.9-3.5-0.5-3.5,1.5v27.9c0,1.9,2.5,2.4,3.5,1.5
			c0.4-0.4,0.6-0.9,0.6-1.5v-9.6H9.4v-5.3h9v16.9c0,1.7-0.8,3.2-2.4,4.2C14.6,155.5,12.8,155.9,10.8,155.9z M3.7,118.4v32.1
			c0,2.9,3.7,4.4,7.1,4.4c1.8,0,3.4-0.4,4.6-1.1c1.3-0.8,2-1.9,2-3.4v-16h-7v3.4h3.1v10.6c0,0.9-0.3,1.7-0.9,2.2
			c-0.5,0.5-1.2,0.7-2,0.7c-1.5,0-3.1-1-3.1-2.9l0-28.2c0.2-1.7,1.7-2.6,3.1-2.6c0.8,0,1.5,0.3,2,0.7c0.5,0.5,0.8,1.1,0.9,1.9h0
			v10.2h3.9v-12c0-1.4-0.7-2.6-2-3.4c-1.2-0.7-2.8-1.1-4.6-1.1C7.4,114,3.7,115.6,3.7,118.4z"/>
	</g>
	<path class="st0" d="M119.5,138.4v10.1c0,3.5-5.1,3.1-5.1,0v-28.2v0.3c0-3.1,5.1-3.5,5.1,0v-0.3V131h4.9v-12.5
		c0-7-14.6-6.3-14.6-0.1v-0.3v32.4c0,6.2,14.6,6.9,14.6-0.1c0-0.3,0-16.4,0-16.4h-8v4.4H119.5z"/>
	<g>
		<g>
			<path class="st2" d="M34.8,150.4c0.4,0.6,0.8,0.8,0.8,0.8c0,0,0.3,0.1,0.6,0.1c0.6,0,1.1-0.3,1.7-1c0.5-0.7,0.9-1.5,1.1-2.6
				c0.2-0.9,0.4-4.1,0.4-7.3v-8.1v-6.5h3.5v6.5v19.4v3.9h-3.3l0-3.8v-0.9c-0.4,1-0.9,1.9-1.3,2.5c-0.5,0.7-1,1.2-1.5,1.5
				c-0.5,0.3-1.2,0.5-1.9,0.5c-0.8,0-1.6-0.3-2.3-1c-0.7-0.7-1.2-1.6-1.5-2.8c-0.4-1.4-0.6-3.5-0.6-6.1v-13.3v-6.5H34v6.5
				c0,3.6,0,7.1,0,10.7C34.1,146.8,34.4,149.7,34.8,150.4z"/>
			<linearGradient id="SVGID_4_" gradientUnits="userSpaceOnUse" x1="30.063" y1="140.5614" x2="43.3758" y2="140.5614">
				<stop  offset="0" style="stop-color:#FFFFFF"/>
				<stop  offset="1" style="stop-color:#7E7776"/>
			</linearGradient>
			<path class="st5" d="M43.4,155.9h-4.2l0-3.1c-0.1,0.3-0.3,0.5-0.4,0.7c-0.5,0.7-1,1.3-1.6,1.7c-0.6,0.4-1.3,0.6-2.1,0.6
				c-1,0-1.8-0.4-2.6-1.1c-0.7-0.7-1.3-1.7-1.7-3c-0.4-1.5-0.7-3.6-0.7-6.3v-20.2h4.4v17.7c0.1,4.5,0.5,6.8,0.8,7.3
				c0.3,0.4,0.6,0.6,0.6,0.6l0,0c0,0,0.2,0.1,0.4,0.1c0.4,0,0.9-0.3,1.3-0.8c0.5-0.6,0.8-1.4,1-2.4c0.2-0.9,0.4-4.1,0.4-7.2v-15.1
				h4.4V155.9z M40.1,155h2.3v-28.8h-2.5v14.1c0,3.3-0.2,6.5-0.4,7.4c-0.3,1.1-0.7,2.1-1.2,2.8c-0.6,0.8-1.3,1.2-2,1.2
				c-0.4,0-0.7-0.1-0.8-0.2c-0.1,0-0.6-0.3-1-1l0,0c-0.6-1-0.8-4.8-0.9-7.7v-16.7H31v19.2c0,2.6,0.2,4.6,0.6,6
				c0.3,1.1,0.8,2,1.4,2.6c0.6,0.6,1.2,0.9,1.9,0.9c0.6,0,1.1-0.1,1.6-0.4c0.5-0.3,0.9-0.8,1.4-1.4c0.4-0.7,0.9-1.5,1.3-2.5l0.9-2.2
				L40.1,155z"/>
		</g>
	</g>
	<g>
		<path class="st2" d="M54.9,142.7l4.7-0.1c0,2.3,0.1,4.7,0,5.8c-0.1,1.1-0.4,2.3-1,3.5c-0.5,1.2-1.3,2.1-2.1,2.7
			c-0.9,0.6-2,0.9-3.3,0.9c-1.7,0-3-0.4-3.9-1.2c-1-0.8-1.7-2-2.1-3.5c-0.4-1.5-0.6-3.6-0.6-6.4v-8c0-2.4,0.2-4.2,0.5-5.4
			c0.3-1.2,1-2.3,2.1-3.3c1.1-1,2.4-1.4,3.9-1.4c1.5,0,2.8,0.5,3.9,1.4c1.1,1,1.8,2.1,2.2,3.6c0.4,1.4,0.3,4.8,0.3,7.5l-4.6,0
			l0.1-6.7c0-3.5-4.1-3.5-4.1,0v17.1c0,3.5,4.1,3.5,4.1,0L54.9,142.7z"/>
		<linearGradient id="SVGID_5_" gradientUnits="userSpaceOnUse" x1="46.1492" y1="140.8151" x2="60.1073" y2="140.8151">
			<stop  offset="0" style="stop-color:#FFFFFF"/>
			<stop  offset="1" style="stop-color:#7E7776"/>
		</linearGradient>
		<path class="st6" d="M53.2,155.9c-1.8,0-3.2-0.5-4.2-1.4c-1-0.9-1.8-2.1-2.2-3.7c-0.4-1.5-0.6-3.7-0.6-6.5v-8
			c0-2.4,0.2-4.3,0.5-5.5c0.4-1.3,1.1-2.5,2.2-3.5c1.2-1,2.6-1.6,4.2-1.6c1.6,0,3.1,0.5,4.2,1.5c1.2,1,1.9,2.3,2.3,3.8
			c0.3,1.3,0.3,4.1,0.3,6.6l0,1.5l-5.6,0l0.1-7.1c0-1.5-0.8-2.2-1.6-2.2c-0.8,0-1.6,0.7-1.6,2.2v17.1c0,1.5,0.8,2.2,1.6,2.2
			c0.8,0,1.6-0.7,1.6-2.2l-0.1-7l5.6-0.1l0,0.5c0,0.8,0,1.7,0,2.4c0,1.4,0,2.7,0,3.4c-0.1,1.2-0.4,2.4-1,3.6
			c-0.6,1.3-1.4,2.2-2.3,2.9C55.8,155.6,54.6,155.9,53.2,155.9z M53.1,126.7c-1.4,0-2.6,0.4-3.6,1.3c-1,0.9-1.7,1.9-2,3
			c-0.3,1.2-0.5,3-0.5,5.3v8c0,2.7,0.2,4.8,0.6,6.2c0.4,1.4,1,2.5,1.9,3.2c0.9,0.7,2.1,1.1,3.6,1.1c1.2,0,2.2-0.3,3-0.8
			c0.8-0.6,1.5-1.4,2-2.5c0.5-1.1,0.8-2.2,0.9-3.3c0.1-0.7,0-2,0-3.3c0-0.6,0-1.3,0-2l-3.7,0.1l0.1,6.1c0,4.1-5.1,4.1-5.1,0v-17.1
			c0-2.1,1.3-3.1,2.5-3.1c1.3,0,2.5,1.1,2.5,3.1l-0.1,6.2l3.6,0l0-0.6c0-2.4,0-5.2-0.3-6.4c-0.3-1.3-1-2.5-2-3.3
			C55.7,127.1,54.6,126.7,53.1,126.7z"/>
	</g>
	<g>
		<path class="st2" d="M75.4,131.3c0.1-6.7-13.4-6.8-13.5-0.1l0,19.1c-0.1,6.7,13.4,6.8,13.5,0.1V131L75.4,131.3z M66.5,149.9
			l0-18.6c0-2.1,4.2-2.1,4.2,0l0,18.6C70.7,152.1,66.5,152,66.5,149.9z"/>
		<linearGradient id="SVGID_6_" gradientUnits="userSpaceOnUse" x1="61.4193" y1="140.8466" x2="75.8634" y2="140.8466">
			<stop  offset="0" style="stop-color:#FFFFFF"/>
			<stop  offset="1" style="stop-color:#7E7776"/>
		</linearGradient>
		<path class="st7" d="M68.7,155.9C68.7,155.9,68.6,155.9,68.7,155.9c-3.6,0-7.3-1.8-7.3-5.6v-19.1c0-1.7,0.8-3.2,2.4-4.1
			c1.3-0.8,3.1-1.3,4.9-1.3c1.9,0,3.6,0.5,4.9,1.4c1.4,1,2.2,2.3,2.3,3.9h0v0.2c0,0,0,0.1,0,0.1v19.1c0,1.7-0.8,3.2-2.4,4.1
			C72.2,155.5,70.5,155.9,68.7,155.9z M68.6,126.7c-1.6,0-3.2,0.4-4.3,1.1c-0.9,0.6-1.9,1.6-1.9,3.3v19.1c0,1.8,1,2.8,1.9,3.4
			c1.1,0.8,2.7,1.2,4.4,1.2c1.7,0,3.2-0.4,4.4-1.1c0.9-0.6,1.9-1.6,1.9-3.3v-19.2c0-1.7-1-2.7-1.9-3.3
			C71.9,127.2,70.4,126.8,68.6,126.7C68.7,126.7,68.6,126.7,68.6,126.7z M68.6,152C68.6,152,68.6,152,68.6,152
			c-1.3,0-2.6-0.7-2.6-2.1v-18.6c0-1.3,1.3-2,2.6-2c0.6,0,1.3,0.2,1.7,0.5c0.6,0.4,0.9,0.9,0.9,1.6V150
			C71.2,151.3,69.9,152,68.6,152z M68.6,130.2c-0.8,0-1.6,0.3-1.6,1.1v18.6c0,0.7,0.8,1.1,1.6,1.1c0,0,0,0,0,0
			c0.8,0,1.6-0.3,1.6-1.1v-18.6C70.2,130.6,69.4,130.2,68.6,130.2C68.6,130.2,68.6,130.2,68.6,130.2z"/>
	</g>
	<path class="st8" d="M77.1,155.4"/>
	<g>
		<path class="st2" d="M82.8,136.1c-6.2-6.3,2.6-9.9,2.5-4.1v3.6h3.8v-5.6c0-5.2-11.9-5.2-11.9,0v5.2c0,0,3.9,6,7.7,10.1
			c5.2,7.6-4.3,8.7-4.4,3.9v-4.7h-3.3c0,0,0,6.6,0,6.9c0,5.2,10.2,5.6,12.4,0C91.1,145.8,89.6,141.5,82.8,136.1z"/>
		<linearGradient id="SVGID_7_" gradientUnits="userSpaceOnUse" x1="76.639" y1="140.741" x2="90.5723" y2="140.741">
			<stop  offset="0" style="stop-color:#FFFFFF"/>
			<stop  offset="1" style="stop-color:#7E7776"/>
		</linearGradient>
		<path class="st9" d="M82.7,155.9c-0.6,0-1.1-0.1-1.6-0.1c-2.7-0.5-4.4-2.2-4.4-4.4V144h4.2v5.2c0.1,1.6,1.2,2.1,1.8,2.3
			c1.1,0.3,2.3,0,2.8-0.8c0.8-1.1,0.4-3-1-5.2c-3.7-4.1-7.7-10.1-7.7-10.2l-0.1-0.1v-5.3c0-3,3.3-4.4,6.4-4.4s6.4,1.4,6.4,4.4v6.1
			h-4.7V132c0-1.3-0.5-2.2-1.3-2.4c-0.8-0.2-1.7,0.2-2.2,1c-0.8,1.3-0.1,3.2,1.8,5.1c6.7,5.3,8.6,9.8,6.8,15.8
			C88.8,154.5,85.6,155.9,82.7,155.9z M77.6,144.9v6.5c0,1.7,1.3,3,3.6,3.4c3,0.6,6.7-0.6,7.8-3.6c1.7-5.6-0.2-9.7-6.5-14.8l0,0
			c-3.2-3.2-2.4-5.5-1.9-6.3c0.7-1.2,2.1-1.8,3.3-1.4c1.3,0.3,2,1.6,2,3.3v3.1h2.8v-5.2c0-1.3-0.9-2.1-1.6-2.5
			c-1-0.6-2.4-0.9-3.9-0.9c-2.6,0-5.5,1.1-5.5,3.4v5c0.6,0.9,4.2,6.2,7.6,10c2.4,3.5,1.7,5.5,1.1,6.3c-0.8,1.1-2.4,1.6-3.9,1.1
			c-1.5-0.5-2.4-1.6-2.4-3.2l0-4.3H77.6z"/>
	</g>
	<g>
		<path class="st2" d="M104.2,150.7v-21.6c-1.4-4.4-9.8-3.8-11.2,0l0,5.2h3.7v-3.6c1.4-2.2,2.8-2.3,3.9,0v4.9
			c-8,3.6-8.6,7.2-8.6,7.2s0,0.2,0,7.2c0,7,5.7,5,7.2,3.8c1.6-1.2,0.8-1.1,1.7,0.5c0.8,1.6,5.3,1.1,5.3,1.1v-2.6L104.2,150.7z
			 M100.5,148.5c0,0-1.8,4.9-4.1,1.4v-5.7c0,0,1.7-4.5,4.1-4.2V148.5z"/>
		<linearGradient id="SVGID_8_" gradientUnits="userSpaceOnUse" x1="91.5204" y1="140.7265" x2="106.7095" y2="140.7265">
			<stop  offset="0" style="stop-color:#FFFFFF"/>
			<stop  offset="1" style="stop-color:#7E7776"/>
		</linearGradient>
		<path class="st10" d="M104.6,155.9c-1.5,0-3.5-0.2-4.1-1.4c-0.2-0.3-0.3-0.6-0.4-0.8c-0.2,0.1-0.3,0.3-0.6,0.5c-1,0.7-3.6,2-5.7,1
			c-1.5-0.7-2.3-2.5-2.3-5.1v-7.2c0-0.2,0.7-3.9,8.6-7.5v-4.4c-0.5-0.8-0.9-1.3-1.4-1.3c-0.5,0-1,0.4-1.6,1.3v4h-4.7l0.1-5.8
			c0.8-2.4,3.8-3.4,6.3-3.4c0,0,0,0,0.1,0c2.9,0,5.1,1.3,5.7,3.4l0,0.1v21.4l2.1,2.1v3.2l-0.4,0.1
			C106.1,155.8,105.4,155.9,104.6,155.9z M100.3,152.4c0.1,0,0.1,0,0.2,0c0.3,0.1,0.4,0.4,0.5,0.6c0.1,0.2,0.2,0.5,0.4,1
			c0.5,0.9,2.8,1,4.4,0.9v-2l-2.1-2.1v-21.7c-0.7-1.9-2.9-2.7-4.8-2.7c0,0,0,0-0.1,0c-2.2,0-4.7,0.9-5.3,2.7l0,4.6h2.8v-3.3l0.1-0.1
			c0.9-1.3,1.7-1.9,2.6-1.9c0.8,0,1.5,0.7,2.2,1.9l0.1,0.1v5.3l-0.3,0.1c-7.6,3.4-8.4,6.8-8.4,6.8l0,7.2c0,2.2,0.6,3.7,1.8,4.3
			c1.6,0.8,3.8-0.2,4.7-0.9c0.3-0.2,0.5-0.4,0.6-0.5C99.9,152.6,100.1,152.4,100.3,152.4z M98,151.6c-0.7,0-1.4-0.5-2.1-1.4
			l-0.1-0.1l0-6c0.1-0.2,1.8-4.8,4.6-4.5l0.4,0l0,9c-0.1,0.3-1.1,2.8-2.7,3C98.1,151.6,98.1,151.6,98,151.6z M96.8,149.8
			c0.3,0.5,0.8,0.9,1.3,0.9c0.8-0.1,1.6-1.6,1.9-2.3v-7.9c-1.5,0.3-2.8,2.7-3.2,3.8V149.8z"/>
	</g>
	<g>
		<rect x="22.3" y="113.8" class="st2" width="3.7" height="41.6"/>
		<linearGradient id="SVGID_9_" gradientUnits="userSpaceOnUse" x1="21.8489" y1="134.6168" x2="26.4647" y2="134.6168">
			<stop  offset="0" style="stop-color:#FFFFFF"/>
			<stop  offset="1" style="stop-color:#7E7776"/>
		</linearGradient>
		<path class="st11" d="M26.5,155.9h-4.6v-42.6h4.6V155.9z M22.8,155h2.7v-40.7h-2.7V155z"/>
	</g>
	<path class="st0" d="M132.8,128.7V126h-4.1v28.7h4.1v-22.9c0.8-2.5,3.1-2.1,3.1-2.1v8.7h3.9c0,0,0-6.2,0-9.9
		C137.3,122,132.8,128.7,132.8,128.7z"/>
	<g>
		<path class="st0" d="M142.6,131.3c0-0.1,0-0.1,0-0.2v0L142.6,131.3z"/>
		<path class="st0" d="M142.6,131.1l0,19.4c0.7,6.9,12.3,7.1,13.3,0.1v-6.3h-4v4.7c0,3.9-5.5,3.9-5.5,0v-7.7h9.5v-9.8
			C155.2,124.6,143.8,124.3,142.6,131.1z M152.2,137.5h-5.5V132c0-3.9,5.5-3.9,5.5,0V137.5z"/>
	</g>
	<g>
		<path class="st0" d="M159.2,131.3c0-0.1,0-0.1,0-0.2v0L159.2,131.3z"/>
		<path class="st0" d="M159.3,131.1l0,19.4c0.7,6.9,12.3,7.1,13.3,0.1v-6.3h-4v4.7c0,3.9-5.5,3.9-5.5,0v-7.7h9.5v-9.8
			C171.8,124.6,160.5,124.3,159.3,131.1z M168.8,137.5h-5.5V132c0-3.9,5.5-3.9,5.5,0V137.5z"/>
	</g>
	<path class="st0" d="M179.8,129.6v-3.4H176v29.6h3.9v-22.1c0,0,2.9-8.6,4.8-2.6v24.7h3.8v-24.7
		C188.5,131.1,187.2,120.2,179.8,129.6z"/>
	<g>
		<path class="st0" d="M194.8,113c1.4,0,2.5,1.1,2.5,2.4c0,1.4-1.1,2.5-2.5,2.5c-1.4,0-2.5-1.1-2.5-2.5
			C192.3,114.1,193.4,113,194.8,113z M194.8,117.4c1.1,0,2-0.9,2-2c0-1.1-0.9-2-2-2c-1.1,0-2,0.9-2,2
			C192.7,116.5,193.6,117.4,194.8,117.4z"/>
		<path class="st0" d="M195.4,115.5c0.4,0.4,0.4,0.9,0.5,1.4c-0.2,0-0.3,0-0.5,0c-0.1-0.2-0.1-0.4-0.2-0.6c0-0.1-0.1-0.2-0.2-0.4
			c-0.1-0.1-0.2-0.2-0.4-0.2c-0.1,0-0.3,0-0.5,0c0,0.4,0,0.8,0,1.2c-0.2,0-0.3,0-0.5,0c0-0.9,0-1.9,0-2.8c0.5-0.1,1-0.1,1.5,0
			c0.5,0.1,0.7,0.5,0.6,1C195.8,115.2,195.6,115.3,195.4,115.5z M194.2,115.2c0.3,0,0.6,0,0.8-0.1c0.2,0,0.3-0.2,0.3-0.4
			c0-0.2-0.1-0.3-0.3-0.4c-0.3-0.1-0.6-0.1-0.8-0.1C194.2,114.6,194.2,114.9,194.2,115.2z"/>
	</g>
</g>
</svg>
