<?xml version="1.0" encoding="utf-8"?>
<!-- Generator: Adobe Illustrator 21.1.0, SVG Export Plug-In . SVG Version: 6.00 Build 0)  -->
<svg version="1.1" id="圖層_1" xmlns="http://www.w3.org/2000/svg" xmlns:xlink="http://www.w3.org/1999/xlink" x="0px" y="0px"
	 viewBox="0 0 200 200" style="enable-background:new 0 0 200 200;" xml:space="preserve">
<style type="text/css">
	.st0{fill:#A8C74A;}
	.st1{fill:url(#SVGID_1_);}
	.st2{fill:#CF2824;}
	.st3{fill:url(#SVGID_2_);}
	.st4{fill:#D22623;}
	.st5{fill:#D42926;}
</style>
<path class="st0" d="M131.6,18.4c-1.9,0-3.5,1.7-3.5,3.7c0,0.8,0.3,1.6,0.7,2.2l-13.6,5.8L101.9,9.9c1.2-0.6,2.1-1.9,2.1-3.4
	c0-2.1-1.6-3.7-3.5-3.7c-1.9,0-3.5,1.7-3.5,3.7c0,1.4,0.7,2.6,1.8,3.2L84.7,30.4l-14.1-7c0.6-0.7,0.9-1.6,0.9-2.5
	c0-2.1-1.6-3.7-3.5-3.7c-1.9,0-3.5,1.7-3.5,3.7c0,2.1,1.6,3.7,3.5,3.7c0.7,0,1.4-0.2,2-0.6l3.7,11.8l52.7,2.3l3.3-12.8
	c0.5,0.4,1.2,0.6,1.9,0.6c1.9,0,3.5-1.7,3.5-3.7C135.1,20.1,133.5,18.4,131.6,18.4z"/>
<linearGradient id="SVGID_1_" gradientUnits="userSpaceOnUse" x1="132.5845" y1="67.4037" x2="104.9178" y2="101.4037">
	<stop  offset="0" style="stop-color:#6A0C07"/>
	<stop  offset="0.1597" style="stop-color:#730C07"/>
	<stop  offset="0.4802" style="stop-color:#820C07"/>
	<stop  offset="0.9107" style="stop-color:#6F0C07"/>
	<stop  offset="1" style="stop-color:#6A0C07"/>
</linearGradient>
<path class="st1" d="M104.8,63.7c0,0,44.5,20.2,5.1,44c4.8,3.5,8.4,7.7,10.5,12.5c0,0,12.8-15.8,16.5-28.8S127.1,62.5,104.8,63.7z"
	/>
<path class="st2" d="M80,34.6c96.2-8.8,56.6,56.6,56.6,56.6S126,63.5,101.1,63.5s-24.9,0-24.9,0C60.3,61.3,61.1,36.4,80,34.6z"/>
<linearGradient id="SVGID_2_" gradientUnits="userSpaceOnUse" x1="66.4308" y1="62.4829" x2="98.9308" y2="120.9829">
	<stop  offset="0" style="stop-color:#6A0C07"/>
	<stop  offset="0.137" style="stop-color:#740C07"/>
	<stop  offset="0.3671" style="stop-color:#8E0C07"/>
	<stop  offset="0.5" style="stop-color:#A00C07"/>
	<stop  offset="0.6262" style="stop-color:#990C07"/>
	<stop  offset="0.813" style="stop-color:#850C07"/>
	<stop  offset="1" style="stop-color:#6A0C07"/>
</linearGradient>
<path class="st3" d="M56,76.8c0,0-3.8-14.7,6.7-6.8C73.1,78,73.8,83.4,95.3,82.3c21.4-1.1-25.3,34.8,1.9,44.5l-15-1.4
	c0,0-9.7-11.5-12.8-17.4C66.3,102.2,56,76.8,56,76.8z"/>
<path class="st4" d="M56.1,77.1c0,0,7.2,23.8,19.8,41.5c8.8,0,21.6-6.1,24.8-8s14.5-4.9,20.3,9.7c0,0,17.5-18.5-0.9-33.3
	C97.7,69,69.9,99.3,56.1,77.1z"/>
<path class="st4" d="M82.2,125.5l10.2,10.3c0,0,6.3,6.1,13.8,0s10.8-10.3,10.8-10.3H82.2z"/>
<g>
	<g>
		<path class="st5" d="M92.7,155.7h-14l-1.8,4.8h3.3l-3.7,9.8c-0.2,0.5-0.4,1-0.5,1.3c-0.1-0.4-0.3-0.7-0.6-1
			c-0.4-0.5-1.2-1.1-2.6-1.1c-0.8,0-1.7,0.2-2.4,0.7c-0.8,0.5-1.4,1.2-1.7,2c-0.6,1.5-0.1,3.1,1.3,4.2c1,0.8,2.4,1.2,4.1,1.2
			c1.5,0,3.1-0.4,4.7-1.1c1.6-0.7,2.8-1.6,3.6-2.6c0.8-1,1.5-2.2,2.1-3.8l3.6-9.6h2.8L92.7,155.7z"/>
		<path class="st5" d="M100.5,159.7c0.9-0.6,2-0.8,3.3-0.8c2,0,2.8,0.8,2.9,2.9l0,1.4h3.2l2.7-7.6h-3.2l-0.4,0.4
			c-0.2,0.2-0.4,0.3-0.5,0.5c-1.2-0.7-2.7-1.1-4.3-1.1c-2.3,0-4.5,0.6-6.3,1.9c-1.9,1.3-3.1,2.7-3.7,4.4c-0.5,1.4-0.5,2.7,0.1,3.8
			c0.5,1.2,1.4,2,2.6,2.5c1,0.4,2.3,0.7,4.2,1c1.9,0.3,2.4,0.7,2.5,0.9c0.1,0.1,0.3,0.4,0.1,1c-0.3,0.8-1,1.5-2.1,2.1
			c-1.2,0.6-2.4,1-3.6,1c-1,0-1.9-0.3-2.5-0.8c-0.6-0.5-0.9-1.4-0.9-2.6l0-1.4h-3.1l-3,8h3l1.5-0.9c1.4,0.9,2.9,1.3,4.7,1.3
			c2.4,0,4.7-0.7,6.8-2c2.1-1.4,3.6-3.1,4.4-5.2c0.6-1.5,0.6-2.9,0.1-4.1c-0.5-1.3-1.3-2.2-2.5-2.7c-1-0.4-2.4-0.8-4.4-1.1
			c-2.2-0.3-2.7-0.7-2.8-0.8c-0.1,0-0.1-0.1-0.1-0.1c0,0,0-0.1,0-0.2C99.1,160.9,99.4,160.4,100.5,159.7z"/>
	</g>
</g>
<g>
	<path class="st5" d="M63.2,188.8c-0.3-0.2-0.7-0.4-1.1-0.4c-0.3-0.1-0.8-0.1-1.3-0.1h-3.4l-0.6,8.7l0,0.2h1.4l0.2-3.5h2.1
		c1.2,0,2.1-0.3,2.7-0.8c0.5-0.5,0.8-1.2,0.9-1.9c0-0.4,0-0.9-0.2-1.2C63.7,189.3,63.5,189,63.2,188.8z M62.1,192
		c-0.3,0.3-0.8,0.4-1.5,0.4h-2.1l0.2-2.8h2.1c0.5,0,0.8,0,1,0.1c0.3,0.1,0.5,0.2,0.6,0.4c0.1,0.2,0.2,0.5,0.2,0.8
		C62.6,191.4,62.4,191.8,62.1,192z"/>
	<path class="st5" d="M71,188.4l-4.8,8.8h1.5l1.4-2.6h3.4l0.6,2.6h1.6l-2.2-8.8H71z M72.2,193.4h-2.5l1.2-2.3
		c0.2-0.4,0.4-0.8,0.5-1.1c0.1,0.4,0.1,0.8,0.3,1.2L72.2,193.4z"/>
	<polygon class="st5" points="79.4,189.6 82.2,189.6 82.1,197.2 83.5,197.2 83.6,189.6 86.5,189.6 86.5,188.3 79.4,188.3 	"/>
	<polygon class="st5" points="93.1,193.2 97.9,193.2 97.9,192 93.1,192 93.2,189.6 98.2,189.6 98.3,188.3 91.8,188.3 91.6,197.2 
		98.3,197.2 98.3,195.9 93.1,195.9 	"/>
	<polygon class="st5" points="108,194.7 103.8,188.3 102.4,188.3 102.2,197.1 102.2,197.2 103.6,197.2 103.7,190.8 107.9,197.2 
		109.3,197.2 109.4,188.4 109.4,188.3 108.1,188.3 	"/>
	<polygon class="st5" points="113.8,189.6 116.7,189.6 116.5,197.1 116.5,197.2 117.9,197.2 118.1,189.6 120.9,189.6 120.9,188.3 
		113.8,188.3 	"/>
	<polygon class="st5" points="126.8,193.2 131.6,193.2 131.6,192 126.9,192 126.9,189.6 132,189.6 132,188.3 125.5,188.3 
		125.4,197.1 125.4,197.2 132.1,197.2 132.1,195.9 126.8,195.9 	"/>
	<path class="st5" d="M144.3,190.6c-0.2-0.6-0.6-1.1-1-1.5c-0.4-0.3-0.8-0.5-1.3-0.6c-0.4-0.1-0.9-0.1-1.6-0.1h-3.1l-0.2,8.7l0,0.1
		h3.2c0.5,0,1-0.1,1.4-0.2c0.4-0.1,0.8-0.3,1.1-0.5c0.3-0.2,0.6-0.5,0.8-0.8c0.3-0.3,0.5-0.8,0.6-1.3c0.2-0.5,0.3-1.1,0.3-1.8
		C144.6,191.9,144.5,191.2,144.3,190.6z M138.7,189.6h1.7c0.7,0,1.1,0.1,1.4,0.2c0.4,0.2,0.7,0.5,1,0.9c0.3,0.5,0.4,1.1,0.4,2
		c0,0.6-0.1,1.2-0.2,1.6c-0.2,0.4-0.4,0.8-0.6,1c-0.2,0.2-0.4,0.3-0.7,0.4c-0.3,0.1-0.7,0.2-1.3,0.2h-1.7L138.7,189.6z"/>
</g>
<g>
	<path class="st5" d="M127,155.5h-10l-7.5,21.9h7l3.5-7.8l7.1,0C137.1,169.6,138.5,155.4,127,155.5z M123.5,167.7h-3.2l2.8-9.1h2.8
		C130.8,159.5,129.1,167.7,123.5,167.7z"/>
	<polygon class="st5" points="127,155.5 127,155.5 127.2,155.5 	"/>
</g>
</svg>
