<?xml version="1.0" encoding="utf-8"?>
<!-- Generator: Adobe Illustrator 21.1.0, SVG Export Plug-In . SVG Version: 6.00 Build 0)  -->
<svg version="1.1" id="圖層_1" xmlns="http://www.w3.org/2000/svg" xmlns:xlink="http://www.w3.org/1999/xlink" x="0px" y="0px"
	 viewBox="0 0 200 200" style="enable-background:new 0 0 200 200;" xml:space="preserve">
<style type="text/css">
	.st0{fill:#2B3494;}
	.st1{fill:#08884C;}
</style>
<image style="overflow:visible;" width="204" height="201" xlink:href="待辦事項/NHL_Brand/sabinsa.png"  transform="matrix(1 0 0 1 -195 -1)">
</image>
<g>
	<path class="st0" d="M174.4,170.3l-1.7-0.4c-0.9-0.2-1.3-0.3-1.5-0.4l-0.1,0c-1.3-0.3-1.3-0.8-1.3-1.1c0-0.6,0.2-0.9,0.3-1
		c0.3-0.3,0.9-0.6,2.5-0.6c2.5,0.1,2.4,1.1,2.4,1.7l0,1.1h4.7l0-1c0-1.4-0.4-2.5-1.2-3.4c-1.2-1.3-3.2-1.9-6.2-2
		c-5.6,0.2-6.9,3-7.1,5.2c-0.1,2.2,1,3.8,3.2,4.5c0.6,0.3,1.7,0.6,3.1,0.9c0.5,0.1,1,0.2,1.3,0.3c0.2,0.1,0.5,0.2,0.8,0.2
		c2.1,0.5,2.1,1.4,2.1,1.7c0,0.4-0.1,1.5-3.1,1.6c-1.4,0-2.3-0.2-2.8-0.7c-0.3-0.4-0.5-1-0.4-1.8l0.1-1.2h-4.6l-0.1,1
		c-0.1,1.7,0.1,2.8,0.7,3.5c1.2,1.8,3.5,2.8,7,2.8c0,0,0,0,0,0c6.1-0.2,7.6-3,7.8-5.4C180.5,173.1,178.6,171.3,174.4,170.3z"/>
	<path class="st0" d="M31.5,175c-0.6,1.9-1.9,2.8-4.2,2.8c-1.4,0-2.4-0.4-3.3-1.3c-1.1-1.1-1.6-2.5-1.6-4.6c0-1.8,0.4-3.1,1.3-4.2
		c0.9-1.1,2.1-1.6,3.7-1.6c2.1,0,3.4,0.9,4,2.8l0.3,1l3.8-1l-0.4-1.1c-0.5-1.5-1.4-2.7-2.6-3.5c-1.4-1-3.1-1.5-5.1-1.5
		c-2.3,0-4.3,0.7-5.9,2.1c-1.9,1.7-2.9,4.1-2.9,7.1c0,2.6,0.8,4.7,2.3,6.4c1.7,1.8,3.9,2.8,6.6,2.8c3.9,0,6.6-1.7,7.9-5l0.4-1.1
		l-3.8-1.2L31.5,175z"/>
	<path class="st0" d="M106,37.3h12.8V18.8H101c0,0-27.1,12-1.2,35c0,0,11.7,10,13.8,14.8c1.5,3.5,3.1,7.2,3.1,11.4
		c0,11.1-7.9,20.1-17.6,20.1s-17.6-9-17.6-20.1c0-4.4,1.2-8.4,3.3-11.7c0,0,7.2-11.1,11.5-15.5H76.8c0,0-12.1,10.8-12.3,31.4
		c-0.2,19.5,15.8,35.3,35.3,35.3s35.3-15.8,35.3-35.3c0,0,3.8-19.6-18.6-38.2L106,37.3z"/>
	<path class="st1" d="M105.8,86.9c-0.6,0.2-1.2,0.4-1.8,0.8c-1.7,1.1-2.7,2.7-2.7,4.2h-1.2v-8h1.9c1.4,1.4,4.1,1.2,6.2-0.5
		c0.5-0.4,1-0.9,1.3-1.5c1.3-1.6,3.2-4.5,3.7-7.7c-3.3,0-6.4,1.3-8.2,2.3c-0.6,0.2-1.1,0.6-1.7,1c-1.2,1-1.9,2.2-2.1,3.4h-1.1v-4.2
		c1.8-0.8,3.2-3.1,3.2-5.8c0-0.8-0.1-1.6-0.3-2.3c-0.5-2.4-1.6-6.3-4.2-9.3c-2.6,3-3.7,6.9-4.2,9.3c-0.2,0.7-0.3,1.5-0.3,2.3
		c0,2.7,1.3,4.9,3.1,5.7h0V81h-0.9c-0.2-1.2-0.9-2.5-2.1-3.4c-0.5-0.4-1.1-0.8-1.7-1c-1.8-1-4.9-2.4-8.2-2.3
		c0.5,3.3,2.4,6.1,3.7,7.7c0.3,0.5,0.8,1,1.3,1.5c2.1,1.8,4.8,2,6.2,0.5h1.7v8h-1.2c-0.1-1.5-1-3.1-2.7-4.2
		c-0.6-0.4-1.2-0.6-1.8-0.8c-1.9-0.7-5.2-1.7-8.5-1.2c1,3.2,3.2,5.7,4.7,7.1c0.4,0.5,0.9,0.9,1.5,1.3c1.7,1.1,3.7,1.2,5.1,0.6v0.1
		h2.8v5.3h2.9v-5.3h3.1c1.4,0.6,3.2,0.4,4.9-0.6c0.6-0.4,1.1-0.8,1.5-1.3c1.5-1.4,3.8-3.9,4.7-7.1C111,85.3,107.8,86.2,105.8,86.9z"
		/>
	<g>
		<path class="st0" d="M131.2,112c2.4,0,4.3,1.9,4.3,4.2c0,2.4-1.9,4.3-4.3,4.3c-2.4,0-4.3-1.9-4.3-4.3
			C126.9,113.9,128.9,112,131.2,112z M131.2,119.6c1.9,0,3.4-1.5,3.4-3.4c0-1.8-1.5-3.4-3.4-3.4c-1.9,0-3.4,1.5-3.4,3.3
			C127.8,118.1,129.3,119.6,131.2,119.6z"/>
		<path class="st0" d="M132.3,116.3c0.7,0.6,0.8,1.5,0.9,2.3c-0.3,0-0.6,0-0.8,0c-0.1-0.3-0.2-0.7-0.3-1.1c-0.1-0.2-0.2-0.4-0.3-0.6
			c-0.2-0.2-0.4-0.4-0.7-0.4c-0.2,0-0.5,0-0.8,0c0,0.7,0,1.4,0,2.1c-0.3,0-0.6,0-0.9,0c0-1.6,0-3.2,0-4.8c0.8-0.1,1.7-0.2,2.5,0
			c0.9,0.2,1.3,0.9,1.1,1.7C132.9,115.9,132.7,116.1,132.3,116.3z M130.3,116c0.5,0,1-0.1,1.4-0.2c0.3-0.1,0.5-0.3,0.5-0.6
			c0-0.3-0.1-0.5-0.5-0.6c-0.5-0.2-0.9-0.1-1.4-0.1C130.3,114.9,130.3,115.4,130.3,116z"/>
	</g>
	<path class="st0" d="M68.3,170.3l-1.7-0.4c-0.9-0.2-1.3-0.3-1.5-0.4l-0.1,0c-1.3-0.3-1.3-0.8-1.3-1.1c0-0.6,0.2-0.9,0.3-1
		c0.3-0.3,0.9-0.6,2.5-0.6c2.5,0.1,2.4,1.1,2.4,1.7l0,1.1h4.7l0-1c0-1.4-0.4-2.5-1.2-3.4c-1.2-1.3-3.2-1.9-6.2-2
		c-5.6,0.2-6.9,3-7.1,5.2c-0.1,2.2,1,3.8,3.2,4.5c0.6,0.3,1.6,0.6,3.1,0.9c0.5,0.1,1,0.2,1.3,0.3c0.2,0.1,0.5,0.2,0.8,0.2
		c2.1,0.5,2.1,1.4,2.1,1.7c0,0.4-0.1,1.5-3.1,1.6c-1.4,0-2.3-0.2-2.8-0.7c-0.3-0.4-0.5-1-0.4-1.8l0.1-1.2h-4.6l-0.1,1
		c-0.1,1.7,0.1,2.8,0.7,3.5c1.2,1.8,3.5,2.8,7,2.8c0,0,0,0,0,0c6.1-0.2,7.6-3,7.8-5.4C74.4,173.1,72.4,171.3,68.3,170.3z"/>
	<polygon class="st0" points="87,173.1 83.5,163.7 77.1,163.7 77.1,180.4 81.8,180.4 81.8,171.7 85.5,180.4 88.4,180.4 92,171.6 
		92,180.4 96.4,180.4 96.4,163.7 90.5,163.7 	"/>
	<polygon class="st0" points="100.4,180.5 115.5,180.5 115.5,176.3 106,176.3 106,173.9 114.9,173.9 114.9,169.6 106,169.6 
		106,167.8 115.5,167.8 115.5,163.5 100.4,163.5 	"/>
	<polygon class="st0" points="117.3,167.8 122.7,167.8 122.7,180.5 128.2,180.5 128.2,167.8 133.2,167.8 133.2,163.5 117.3,163.5 	
		"/>
	<path class="st0" d="M159.3,175c-0.6,1.9-1.9,2.8-4.2,2.8c-1.4,0-2.4-0.4-3.3-1.3c-1.1-1.1-1.6-2.5-1.6-4.6c0-1.8,0.4-3.1,1.3-4.2
		c0.9-1.1,2.1-1.6,3.7-1.6c2.1,0,3.4,0.9,4,2.8l0.3,1l3.8-1l-0.4-1.1c-0.5-1.5-1.4-2.7-2.6-3.5c-1.4-1-3.1-1.5-5.1-1.5
		c-2.3,0-4.3,0.7-5.9,2.1c-1.9,1.7-2.9,4.1-2.9,7.1c0,2.6,0.8,4.7,2.3,6.4c1.7,1.8,3.9,2.8,6.6,2.8c3.9,0,6.6-1.7,7.9-5l0.4-1.1
		l-3.8-1.2L159.3,175z"/>
	<path class="st0" d="M46.4,162.8c-2.3,0-4.3,0.7-5.9,2.1c-1.9,1.7-2.9,4.1-2.9,7.1c0,2.6,0.7,4.7,2.2,6.4c1.6,1.8,3.8,2.8,6.6,2.8
		c2.4,0,4.4-0.7,6-2.1c1.9-1.7,2.8-4.1,2.8-7.1c0-2.6-0.7-4.7-2.2-6.4C51.4,163.8,49.2,162.8,46.4,162.8z M50.1,176.2
		c-0.9,1.1-2.1,1.6-3.6,1.6c-1.4,0-2.4-0.4-3.3-1.2c-1.1-1-1.6-2.5-1.6-4.6c0-1.8,0.4-3.2,1.2-4.2c0.9-1.1,2.1-1.6,3.6-1.6
		c1.4,0,2.5,0.4,3.3,1.2c1,1,1.5,2.5,1.5,4.6C51.3,173.8,50.9,175.2,50.1,176.2z"/>
	<rect x="137" y="163.5" class="st0" width="5.6" height="17"/>
	<path class="st0" d="M31.3,141.7l-2.5-0.6c-1-0.2-1.8-0.5-2.3-0.7l-0.1-0.1c-2-0.6-2.2-1.5-2.2-2.3c0-1,0.2-1.7,0.7-2.2
		c0.7-0.7,2-1.1,3.8-1.1c3.6,0.2,4,1.7,3.9,3.2l0,1.1h5.8l0-1c0.1-3.4-1.6-7.6-10.2-7.8c-7.7,0.3-9.6,4.3-9.7,7.6
		c-0.1,3.2,1.3,5.4,4.3,6.4c0.9,0.4,2.3,0.9,4.4,1.4c0.8,0.2,1.4,0.4,1.9,0.5c0.3,0.2,0.7,0.3,1.1,0.3c3,0.8,3.4,2.3,3.4,3.2
		c0,0.8-0.1,3-4.9,3.1c-2.1,0.1-3.5-0.3-4.3-1.1c-0.7-0.7-0.9-1.9-0.7-3.4l0.1-1.2H18l-0.1,1c-0.1,2.4,0.1,4,0.8,5
		c1.6,2.7,4.9,4.1,9.7,4.1c0,0,0,0,0,0c8.5-0.3,10.5-4.5,10.7-7.9C39.7,145.7,37,143.2,31.3,141.7z"/>
	<path class="st0" d="M145.8,141.7l-2.5-0.6c-1-0.2-1.8-0.5-2.3-0.7l-0.1-0.1c-2-0.6-2.2-1.5-2.2-2.2c0-1,0.2-1.7,0.7-2.2
		c0.7-0.7,2-1.1,3.8-1.1c3.6,0.2,4,1.8,3.9,3.2l0,1.1h5.8l0-1c0.1-3.4-1.6-7.6-10.2-7.8c-7.7,0.3-9.6,4.3-9.7,7.6
		c-0.1,3.2,1.3,5.4,4.3,6.4c0.9,0.4,2.3,0.9,4.4,1.4c0.8,0.2,1.4,0.4,1.9,0.5c0.3,0.2,0.7,0.3,1.1,0.3c3,0.8,3.4,2.3,3.4,3.2
		c0,0.8-0.1,3-4.9,3.1c-2.1,0.1-3.5-0.3-4.3-1.1c-0.7-0.7-0.9-1.9-0.7-3.4l0.1-1.2h-5.7l-0.1,1c-0.1,2.4,0.1,4,0.8,5
		c1.6,2.7,4.9,4.1,9.7,4.1c0,0,0,0,0,0c8.5-0.3,10.5-4.5,10.7-7.9C154.2,145.7,151.5,143.2,145.8,141.7z"/>
	<path class="st0" d="M49.7,130.9l-9.9,26h6.1l2.3-6.8h8.5l2.5,6.8h6.2l-9.7-26H49.7z M49.9,145.5l2.7-8.3l2.7,8.3H49.9z"/>
	<path class="st0" d="M166.3,130.9l-9.9,26h6.1l2.3-6.8h8.5l2.5,6.8h6.2l-9.7-26 M166.5,145.5l2.7-8.3l2.7,8.3H166.5z"/>
	<path class="st0" d="M86.1,142.9c2.2-1.4,2.6-3.4,2.5-5.1c-0.2-3.2-1.9-7.1-9.1-7H69.3v26h9.5c8.6,0,10.5-4.4,10.6-8.2
		C89.3,145.9,88.2,143.9,86.1,142.9z M75.1,135.3H77c3.5-0.1,4.8,0.5,5.3,1.1c0.2,0.2,0.5,0.6,0.4,1.4l0,0.1l0,0.1
		c0.1,0.9-0.1,1.6-0.5,2.1c-0.8,0.8-2.5,1.1-5,0.9h-2.1V135.3z M82.8,151.5c-0.7,0.6-1.8,0.9-3.4,0.8h-4.4v-6.8l2.1,0
		c2.8-0.2,4.7,0.2,5.7,1.1c0.5,0.5,0.8,1.3,0.8,2.3C83.7,150.1,83.4,151,82.8,151.5z"/>
	<rect x="95.2" y="130.9" class="st0" width="5.6" height="26"/>
	<polygon class="st0" points="123.1,148.7 114.8,130.9 107.5,130.9 107.5,156.8 113.1,156.8 113.1,139 121.4,156.8 128.9,156.8 
		128.9,130.9 123.1,130.9 	"/>
</g>
</svg>
