<?xml version="1.0" encoding="utf-8"?>
<!-- Generator: Adobe Illustrator 21.1.0, SVG Export Plug-In . SVG Version: 6.00 Build 0)  -->
<svg version="1.1" id="圖層_1" xmlns="http://www.w3.org/2000/svg" xmlns:xlink="http://www.w3.org/1999/xlink" x="0px" y="0px"
	 viewBox="0 0 200 200" style="enable-background:new 0 0 200 200;" xml:space="preserve">
<style type="text/css">
	.st0{fill:#EC961B;}
	.st1{fill:#FCF694;}
	.st2{fill:url(#SVGID_1_);}
	.st3{fill:url(#SVGID_2_);}
	.st4{fill:#7B9730;}
	.st5{fill:url(#SVGID_3_);}
	.st6{fill:url(#SVGID_4_);}
	.st7{fill:#003259;}
	.st8{fill:url(#SVGID_5_);}
	.st9{fill:url(#SVGID_6_);}
</style>
<g>
	<path class="st0" d="M48.2,88.3c-1.3-0.7-2.8-1.9-4-2.3l-0.6-3.9l-1.1,3.4c-0.5-0.1-1-0.2-1.5-0.3L39.9,80l-1.1,5
		c-0.8,0-1.6,0-2.4,0.1l-2.3-5.3l0.1,5.7c-0.7,0.2-1.3,0.4-1.9,0.6L24.6,79l4.4,9.1c-0.5,0.4-1,0.8-1.5,1.2l-15-6.5l11.1,11.7
		c-0.3,0.6-0.5,1.2-0.8,1.8l-12.2,0.6L22,101c0,1,0,2.1,0.2,3.1l-7.5,3.3l8.4-0.2c0.4,0.9,0.9,1.9,1.5,2.8l-5.1,5.3l6.8-3.2
		c1.9,2,4.6,3.6,7.9,4.9c0,0-9-10,6.7-16.4c-0.9-2.6-1.5-6,4-7.6C48.9,92.4,48.2,88.3,48.2,88.3z"/>
	<path class="st1" d="M48.2,88.3c-15.4-9.9-36.9,15.3-14,28.7c0,0-8.9-9.6,6.8-16c-0.9-2.6-1.5-6,4-7.6
		C49.1,92.7,48.2,88.3,48.2,88.3L48.2,88.3z"/>
	<linearGradient id="SVGID_1_" gradientUnits="userSpaceOnUse" x1="51.2948" y1="93.4989" x2="35.5179" y2="113.4067">
		<stop  offset="0" style="stop-color:#137037"/>
		<stop  offset="0" style="stop-color:#18753C"/>
		<stop  offset="6.680480e-02" style="stop-color:#1D7A41"/>
		<stop  offset="0.1462" style="stop-color:#2B874F"/>
		<stop  offset="0.2319" style="stop-color:#439C66"/>
		<stop  offset="0.3216" style="stop-color:#65BA87"/>
		<stop  offset="0.3663" style="stop-color:#78CC9A"/>
		<stop  offset="0.3676" style="stop-color:#77CB99"/>
		<stop  offset="0.4985" style="stop-color:#418C65"/>
		<stop  offset="0.594" style="stop-color:#206444"/>
		<stop  offset="0.6436" style="stop-color:#135537"/>
		<stop  offset="0.8251" style="stop-color:#18753C"/>
		<stop  offset="0.9756" style="stop-color:#147538"/>
		<stop  offset="0.9959" style="stop-color:#137537"/>
	</linearGradient>
	<path class="st2" d="M47.9,99.9c0.4-0.5,2.9-3.3-0.2-0.9c-0.8,0.8-4.3,2.1-5.7,2.1c-1-2.6-0.9-4.8,3.6-6.7c4.4-1.8,3.8-5.2,3.8-5.2
		c8.4,12.6-5.7,12.6-8,13.7c-13.8,6.6-2.9,14.9-2.9,14.9h-2.8c0,0-9.6-9.3,5.8-15.8C42.4,101.6,46.6,101.3,47.9,99.9z"/>
	<g>
		<g>
			<linearGradient id="SVGID_2_" gradientUnits="userSpaceOnUse" x1="67.5241" y1="96.6259" x2="69.2766" y2="98.3783">
				<stop  offset="1.000000e-07" style="stop-color:#000000"/>
				<stop  offset="8.858984e-02" style="stop-color:#00121F"/>
				<stop  offset="0.183" style="stop-color:#002039"/>
				<stop  offset="0.281" style="stop-color:#002A4B"/>
				<stop  offset="0.384" style="stop-color:#003055"/>
				<stop  offset="0.5" style="stop-color:#003259"/>
				<stop  offset="0.6977" style="stop-color:#003157"/>
				<stop  offset="0.7825" style="stop-color:#002D50"/>
				<stop  offset="0.8458" style="stop-color:#002643"/>
				<stop  offset="0.8983" style="stop-color:#001C31"/>
				<stop  offset="0.9436" style="stop-color:#000F1B"/>
				<stop  offset="0.9827" style="stop-color:#000000"/>
			</linearGradient>
			<path class="st3" d="M78.2,101c0,1.3-0.4,2.4-1.2,3.5c-0.8,1-2,1.8-3.5,2.4s-3.4,0.9-5.5,0.9c-2.6,0-4.7-0.4-6.3-1.2
				c-1.2-0.6-2.1-1.3-2.9-2.3c-0.7-1-1.1-1.9-1.1-2.8c0-0.5,0.2-1,0.7-1.3c0.4-0.4,1-0.6,1.7-0.6c0.6,0,1,0.1,1.4,0.4
				c0.4,0.3,0.7,0.7,1,1.3c0.3,0.7,0.7,1.2,1.1,1.7c0.4,0.5,0.9,0.8,1.6,1.1c0.7,0.3,1.6,0.4,2.7,0.4c1.6,0,2.8-0.3,3.8-0.9
				s1.5-1.3,1.5-2.2c0-0.7-0.3-1.3-0.8-1.7c-0.5-0.4-1.2-0.8-2-1c-0.8-0.2-1.9-0.5-3.3-0.7c-1.9-0.4-3.4-0.8-4.7-1.3s-2.3-1.1-3-2
				c-0.7-0.8-1.1-1.9-1.1-3.1c0-1.2,0.4-2.2,1.2-3.1c0.8-0.9,1.9-1.6,3.4-2.1c1.5-0.5,3.2-0.7,5.2-0.7c1.6,0,3,0.2,4.1,0.5
				c1.2,0.3,2.1,0.8,2.9,1.3c0.8,0.5,1.3,1.1,1.7,1.7c0.4,0.6,0.5,1.2,0.5,1.7c0,0.5-0.2,1-0.7,1.4c-0.4,0.4-1,0.6-1.7,0.6
				c-0.6,0-1.1-0.1-1.4-0.4c-0.3-0.2-0.7-0.6-1-1.2c-0.5-0.8-1-1.4-1.7-1.9s-1.7-0.7-3.2-0.7c-1.4,0-2.4,0.2-3.3,0.7
				c-0.8,0.5-1.2,1.1-1.2,1.8c0,0.4,0.1,0.8,0.4,1.1c0.3,0.3,0.7,0.6,1.2,0.8s1,0.4,1.5,0.5s1.3,0.3,2.5,0.6c1.5,0.3,2.8,0.6,4,0.9
				c1.2,0.3,2.2,0.7,3,1.2c0.8,0.5,1.5,1.1,1.9,1.8C78,99,78.2,99.9,78.2,101z"/>
		</g>
		<g>
			<path class="st4" d="M78.2,101c0,1.3-0.4,2.4-1.2,3.5c-0.8,1-2,1.8-3.5,2.4s-3.4,0.9-5.5,0.9c-2.6,0-4.7-0.4-6.3-1.2
				c-1.2-0.6-2.1-1.3-2.9-2.3c-0.7-1-1.1-1.9-1.1-2.8c0-0.5,0.2-1,0.7-1.3c0.4-0.4,1-0.6,1.7-0.6c0.6,0,1,0.1,1.4,0.4
				c0.4,0.3,0.7,0.7,1,1.3c0.3,0.7,0.7,1.2,1.1,1.7c0.4,0.5,0.9,0.8,1.6,1.1c0.7,0.3,1.6,0.4,2.7,0.4c1.6,0,2.8-0.3,3.8-0.9
				s1.5-1.3,1.5-2.2c0-0.7-0.3-1.3-0.8-1.7c-0.5-0.4-1.2-0.8-2-1c-0.8-0.2-1.9-0.5-3.3-0.7c-1.9-0.4-3.4-0.8-4.7-1.3s-2.3-1.1-3-2
				c-0.7-0.8-1.1-1.9-1.1-3.1c0-1.2,0.4-2.2,1.2-3.1c0.8-0.9,1.9-1.6,3.4-2.1c1.5-0.5,3.2-0.7,5.2-0.7c1.6,0,3,0.2,4.1,0.5
				c1.2,0.3,2.1,0.8,2.9,1.3c0.8,0.5,1.3,1.1,1.7,1.7c0.4,0.6,0.5,1.2,0.5,1.7c0,0.5-0.2,1-0.7,1.4c-0.4,0.4-1,0.6-1.7,0.6
				c-0.6,0-1.1-0.1-1.4-0.4c-0.3-0.2-0.7-0.6-1-1.2c-0.5-0.8-1-1.4-1.7-1.9s-1.7-0.7-3.2-0.7c-1.4,0-2.4,0.2-3.3,0.7
				c-0.8,0.5-1.2,1.1-1.2,1.8c0,0.4,0.1,0.8,0.4,1.1c0.3,0.3,0.7,0.6,1.2,0.8s1,0.4,1.5,0.5s1.3,0.3,2.5,0.6c1.5,0.3,2.8,0.6,4,0.9
				c1.2,0.3,2.2,0.7,3,1.2c0.8,0.5,1.5,1.1,1.9,1.8C78,99,78.2,99.9,78.2,101z"/>
		</g>
	</g>
	<g>
		<path class="st4" d="M88.5,88.4v6.1h11.3v-6.1c0-0.9,0.2-1.5,0.7-2c0.5-0.4,1.1-0.7,1.9-0.7c0.8,0,1.4,0.2,1.9,0.6
			c0.5,0.4,0.7,1.1,0.7,2v16.7c0,0.9-0.2,1.5-0.7,2c-0.5,0.4-1.1,0.7-1.9,0.7c-0.8,0-1.4-0.2-1.9-0.7c-0.5-0.4-0.7-1.1-0.7-2V98
			H88.5v7.1c0,0.9-0.2,1.5-0.7,2c-0.5,0.4-1.1,0.7-1.9,0.7c-0.8,0-1.4-0.2-1.9-0.7c-0.5-0.4-0.7-1.1-0.7-2V88.4c0-0.9,0.2-1.5,0.7-2
			c0.5-0.4,1.1-0.7,1.9-0.7c0.8,0,1.4,0.2,1.9,0.6C88.2,86.9,88.5,87.5,88.5,88.4z"/>
	</g>
	<g>
		<path class="st4" d="M170,88.4v6.1h11.3v-6.1c0-0.9,0.2-1.5,0.7-2c0.5-0.4,1.1-0.7,1.9-0.7c0.8,0,1.4,0.2,1.9,0.6
			c0.5,0.4,0.7,1.1,0.7,2v16.7c0,0.9-0.2,1.5-0.7,2c-0.5,0.4-1.1,0.7-1.9,0.7c-0.8,0-1.4-0.2-1.9-0.7c-0.5-0.4-0.7-1.1-0.7-2V98H170
			v7.1c0,0.9-0.2,1.5-0.7,2c-0.5,0.4-1.1,0.7-1.9,0.7c-0.8,0-1.4-0.2-1.9-0.7c-0.5-0.4-0.7-1.1-0.7-2V88.4c0-0.9,0.2-1.5,0.7-2
			c0.5-0.4,1.1-0.7,1.9-0.7c0.8,0,1.4,0.2,1.9,0.6C169.7,86.9,170,87.5,170,88.4z"/>
	</g>
	<g>
		<path class="st4" d="M110.5,98.6V88.4c0-0.9,0.2-1.5,0.7-2c0.5-0.4,1.1-0.7,1.9-0.7c0.8,0,1.5,0.2,1.9,0.7c0.5,0.4,0.7,1.1,0.7,2
			v10.4c0,1.2,0.2,2.2,0.5,3c0.3,0.8,0.9,1.4,1.7,1.9c0.8,0.4,2,0.7,3.5,0.7c2.1,0,3.5-0.4,4.3-1.3s1.3-2.2,1.3-4.1V88.4
			c0-0.9,0.2-1.5,0.7-2c0.5-0.4,1.1-0.6,1.9-0.6c0.8,0,1.4,0.2,1.9,0.6c0.5,0.4,0.7,1.1,0.7,2v10.2c0,1.7-0.2,3-0.6,4.2
			c-0.4,1.1-1.1,2.1-2.2,2.9c-0.9,0.7-2,1.2-3.3,1.6c-1.3,0.3-2.7,0.5-4.4,0.5c-2,0-3.7-0.2-5.1-0.5c-1.4-0.4-2.6-0.9-3.5-1.6
			c-0.9-0.7-1.6-1.7-2-2.8S110.5,100.2,110.5,98.6z"/>
	</g>
	<g>
		<path class="st4" d="M149.3,107.4h-7.9c-1.1,0-2-0.2-2.4-0.6c-0.5-0.4-0.7-1.1-0.7-2v-16c0-0.9,0.3-1.6,0.8-2
			c0.5-0.4,1.3-0.6,2.4-0.6h8.4c1.2,0,2.3,0.1,3.2,0.2c0.9,0.1,1.7,0.4,2.4,0.7c0.6,0.3,1.2,0.7,1.6,1.1c0.5,0.5,0.8,1,1.1,1.5
			c0.2,0.6,0.4,1.1,0.4,1.8c0,2.1-1.3,3.7-3.9,4.7c3.4,0.9,5.1,2.6,5.1,5.2c0,1.2-0.4,2.3-1.1,3.2c-0.7,1-1.7,1.7-3,2.1
			c-0.8,0.3-1.7,0.5-2.7,0.6S150.7,107.4,149.3,107.4z M143.5,89.4v5.5h4.8c1.3,0,2.3-0.1,3-0.3c0.7-0.2,1.3-0.6,1.6-1.2
			c0.3-0.4,0.4-0.9,0.4-1.4c0-1.1-0.5-1.8-1.4-2.1c-0.9-0.4-2.4-0.5-4.3-0.5H143.5z M148.9,98h-5.5v6.2h5.6c3.5,0,5.3-1,5.3-3.1
			c0-1.1-0.5-1.8-1.4-2.3C152.1,98.2,150.8,98,148.9,98z"/>
	</g>
	<g>
		<linearGradient id="SVGID_3_" gradientUnits="userSpaceOnUse" x1="60.446" y1="113.2496" x2="63.4322" y2="117.3639">
			<stop  offset="1.000000e-07" style="stop-color:#000000"/>
			<stop  offset="8.858984e-02" style="stop-color:#00121F"/>
			<stop  offset="0.183" style="stop-color:#002039"/>
			<stop  offset="0.281" style="stop-color:#002A4B"/>
			<stop  offset="0.384" style="stop-color:#003055"/>
			<stop  offset="0.5" style="stop-color:#003259"/>
			<stop  offset="0.6977" style="stop-color:#003157"/>
			<stop  offset="0.7825" style="stop-color:#002D50"/>
			<stop  offset="0.8458" style="stop-color:#002643"/>
			<stop  offset="0.8983" style="stop-color:#001C31"/>
			<stop  offset="0.9436" style="stop-color:#000F1B"/>
			<stop  offset="0.9827" style="stop-color:#000000"/>
		</linearGradient>
		<path class="st5" d="M63.4,117.6h-1.6v2.4c0,0.3-0.1,0.6-0.3,0.8c-0.2,0.2-0.4,0.3-0.6,0.3c-0.3,0-0.5-0.1-0.7-0.3
			c-0.2-0.2-0.2-0.4-0.2-0.8v-6.5c0-0.4,0.1-0.6,0.3-0.8c0.2-0.2,0.5-0.2,0.9-0.2h2.3c0.7,0,1.2,0.1,1.6,0.1
			c0.4,0.1,0.7,0.3,0.9,0.5c0.3,0.2,0.5,0.5,0.6,0.8c0.1,0.3,0.2,0.7,0.2,1.1c0,0.9-0.3,1.5-0.8,2C65.3,117.3,64.5,117.6,63.4,117.6
			z M62.9,113.7h-1.2v2.6h1.2c0.4,0,0.8,0,1.1-0.1c0.3-0.1,0.5-0.2,0.6-0.4c0.1-0.2,0.2-0.4,0.2-0.8c0-0.4-0.1-0.7-0.3-0.9
			C64.3,113.8,63.7,113.7,62.9,113.7z"/>
	</g>
	<g>
		<linearGradient id="SVGID_4_" gradientUnits="userSpaceOnUse" x1="70.6525" y1="112.5424" x2="70.6525" y2="120.5722">
			<stop  offset="1.000000e-07" style="stop-color:#000000"/>
			<stop  offset="8.858984e-02" style="stop-color:#00121F"/>
			<stop  offset="0.183" style="stop-color:#002039"/>
			<stop  offset="0.281" style="stop-color:#002A4B"/>
			<stop  offset="0.384" style="stop-color:#003055"/>
			<stop  offset="0.5" style="stop-color:#003259"/>
			<stop  offset="0.6977" style="stop-color:#003157"/>
			<stop  offset="0.7825" style="stop-color:#002D50"/>
			<stop  offset="0.8458" style="stop-color:#002643"/>
			<stop  offset="0.8983" style="stop-color:#001C31"/>
			<stop  offset="0.9436" style="stop-color:#000F1B"/>
			<stop  offset="0.9827" style="stop-color:#000000"/>
		</linearGradient>
		<path class="st6" d="M74.2,118.3c0,0.5-0.1,1-0.4,1.4c-0.3,0.4-0.7,0.7-1.2,1c-0.5,0.2-1.2,0.3-1.9,0.3c-0.9,0-1.6-0.2-2.2-0.5
			c-0.4-0.2-0.7-0.5-1-0.9c-0.3-0.4-0.4-0.7-0.4-1.1c0-0.2,0.1-0.4,0.2-0.5c0.2-0.1,0.3-0.2,0.6-0.2c0.2,0,0.3,0.1,0.5,0.2
			c0.1,0.1,0.2,0.3,0.3,0.5c0.1,0.3,0.2,0.5,0.4,0.7c0.1,0.2,0.3,0.3,0.6,0.4c0.2,0.1,0.5,0.2,0.9,0.2c0.5,0,1-0.1,1.3-0.4
			c0.3-0.2,0.5-0.5,0.5-0.9c0-0.3-0.1-0.5-0.3-0.7c-0.2-0.2-0.4-0.3-0.7-0.4c-0.3-0.1-0.7-0.2-1.1-0.3c-0.6-0.1-1.2-0.3-1.6-0.5
			c-0.4-0.2-0.8-0.4-1-0.8c-0.3-0.3-0.4-0.7-0.4-1.2c0-0.5,0.1-0.9,0.4-1.2c0.3-0.4,0.6-0.6,1.2-0.8c0.5-0.2,1.1-0.3,1.8-0.3
			c0.5,0,1,0.1,1.4,0.2c0.4,0.1,0.7,0.3,1,0.5c0.3,0.2,0.5,0.4,0.6,0.7c0.1,0.2,0.2,0.5,0.2,0.7c0,0.2-0.1,0.4-0.2,0.5
			c-0.2,0.2-0.3,0.2-0.6,0.2c-0.2,0-0.4,0-0.5-0.1c-0.1-0.1-0.2-0.3-0.3-0.5c-0.2-0.3-0.4-0.6-0.6-0.7c-0.2-0.2-0.6-0.3-1.1-0.3
			c-0.5,0-0.8,0.1-1.1,0.3c-0.3,0.2-0.4,0.4-0.4,0.7c0,0.2,0,0.3,0.1,0.4c0.1,0.1,0.2,0.2,0.4,0.3c0.2,0.1,0.3,0.2,0.5,0.2
			c0.2,0,0.5,0.1,0.9,0.2c0.5,0.1,0.9,0.2,1.4,0.4c0.4,0.1,0.7,0.3,1,0.5c0.3,0.2,0.5,0.4,0.7,0.7C74.1,117.5,74.2,117.9,74.2,118.3
			z"/>
	</g>
	<g>
		<path class="st7" d="M154.9,118.3c0,0.5-0.1,1-0.4,1.4c-0.3,0.4-0.7,0.7-1.2,1c-0.5,0.2-1.2,0.3-1.9,0.3c-0.9,0-1.6-0.2-2.2-0.5
			c-0.4-0.2-0.7-0.5-1-0.9c-0.3-0.4-0.4-0.7-0.4-1.1c0-0.2,0.1-0.4,0.2-0.5c0.2-0.1,0.3-0.2,0.6-0.2c0.2,0,0.3,0.1,0.5,0.2
			c0.1,0.1,0.2,0.3,0.3,0.5c0.1,0.3,0.2,0.5,0.4,0.7c0.1,0.2,0.3,0.3,0.6,0.4c0.2,0.1,0.5,0.2,0.9,0.2c0.5,0,1-0.1,1.3-0.4
			c0.3-0.2,0.5-0.5,0.5-0.9c0-0.3-0.1-0.5-0.3-0.7c-0.2-0.2-0.4-0.3-0.7-0.4c-0.3-0.1-0.7-0.2-1.1-0.3c-0.6-0.1-1.2-0.3-1.6-0.5
			c-0.4-0.2-0.8-0.4-1-0.8c-0.3-0.3-0.4-0.7-0.4-1.2c0-0.5,0.1-0.9,0.4-1.2c0.3-0.4,0.6-0.6,1.2-0.8c0.5-0.2,1.1-0.3,1.8-0.3
			c0.5,0,1,0.1,1.4,0.2c0.4,0.1,0.7,0.3,1,0.5c0.3,0.2,0.5,0.4,0.6,0.7c0.1,0.2,0.2,0.5,0.2,0.7c0,0.2-0.1,0.4-0.2,0.5
			c-0.2,0.2-0.3,0.2-0.6,0.2c-0.2,0-0.4,0-0.5-0.1c-0.1-0.1-0.2-0.3-0.3-0.5c-0.2-0.3-0.4-0.6-0.6-0.7c-0.2-0.2-0.6-0.3-1.1-0.3
			c-0.5,0-0.8,0.1-1.1,0.3c-0.3,0.2-0.4,0.4-0.4,0.7c0,0.2,0,0.3,0.1,0.4s0.2,0.2,0.4,0.3c0.2,0.1,0.3,0.2,0.5,0.2
			c0.2,0,0.5,0.1,0.9,0.2c0.5,0.1,0.9,0.2,1.4,0.4c0.4,0.1,0.7,0.3,1,0.5c0.3,0.2,0.5,0.4,0.7,0.7
			C154.8,117.5,154.9,117.9,154.9,118.3z"/>
	</g>
	<g>
		<path class="st7" d="M188.2,118.3c0,0.5-0.1,1-0.4,1.4c-0.3,0.4-0.7,0.7-1.2,1c-0.5,0.2-1.2,0.3-1.9,0.3c-0.9,0-1.6-0.2-2.2-0.5
			c-0.4-0.2-0.7-0.5-1-0.9c-0.3-0.4-0.4-0.7-0.4-1.1c0-0.2,0.1-0.4,0.2-0.5c0.2-0.1,0.3-0.2,0.6-0.2c0.2,0,0.3,0.1,0.5,0.2
			c0.1,0.1,0.2,0.3,0.3,0.5c0.1,0.3,0.2,0.5,0.4,0.7c0.1,0.2,0.3,0.3,0.6,0.4c0.2,0.1,0.5,0.2,0.9,0.2c0.5,0,1-0.1,1.3-0.4
			c0.3-0.2,0.5-0.5,0.5-0.9c0-0.3-0.1-0.5-0.3-0.7c-0.2-0.2-0.4-0.3-0.7-0.4c-0.3-0.1-0.7-0.2-1.1-0.3c-0.6-0.1-1.2-0.3-1.6-0.5
			c-0.4-0.2-0.8-0.4-1-0.8c-0.3-0.3-0.4-0.7-0.4-1.2c0-0.5,0.1-0.9,0.4-1.2c0.3-0.4,0.6-0.6,1.2-0.8c0.5-0.2,1.1-0.3,1.8-0.3
			c0.5,0,1,0.1,1.4,0.2c0.4,0.1,0.7,0.3,1,0.5c0.3,0.2,0.5,0.4,0.6,0.7c0.1,0.2,0.2,0.5,0.2,0.7c0,0.2-0.1,0.4-0.2,0.5
			c-0.2,0.2-0.3,0.2-0.6,0.2c-0.2,0-0.4,0-0.5-0.1c-0.1-0.1-0.2-0.3-0.3-0.5c-0.2-0.3-0.4-0.6-0.6-0.7c-0.2-0.2-0.6-0.3-1.1-0.3
			c-0.5,0-0.8,0.1-1.1,0.3c-0.3,0.2-0.4,0.4-0.4,0.7c0,0.2,0,0.3,0.1,0.4s0.2,0.2,0.4,0.3c0.2,0.1,0.3,0.2,0.5,0.2
			c0.2,0,0.5,0.1,0.9,0.2c0.5,0.1,0.9,0.2,1.4,0.4c0.4,0.1,0.7,0.3,1,0.5c0.3,0.2,0.5,0.4,0.7,0.7
			C188.2,117.5,188.2,117.9,188.2,118.3z"/>
	</g>
	<g>
		<linearGradient id="SVGID_5_" gradientUnits="userSpaceOnUse" x1="77.8515" y1="112.7664" x2="77.8515" y2="120.5553">
			<stop  offset="1.000000e-07" style="stop-color:#000000"/>
			<stop  offset="8.858984e-02" style="stop-color:#00121F"/>
			<stop  offset="0.183" style="stop-color:#002039"/>
			<stop  offset="0.281" style="stop-color:#002A4B"/>
			<stop  offset="0.384" style="stop-color:#003055"/>
			<stop  offset="0.5" style="stop-color:#003259"/>
			<stop  offset="0.6977" style="stop-color:#003157"/>
			<stop  offset="0.7825" style="stop-color:#002D50"/>
			<stop  offset="0.8458" style="stop-color:#002643"/>
			<stop  offset="0.8983" style="stop-color:#001C31"/>
			<stop  offset="0.9436" style="stop-color:#000F1B"/>
			<stop  offset="0.9827" style="stop-color:#000000"/>
		</linearGradient>
		<path class="st8" d="M76.9,119.9v-2.7l-2.2-3.2c-0.2-0.3-0.3-0.5-0.4-0.7c-0.1-0.2-0.1-0.3-0.1-0.4c0-0.2,0.1-0.4,0.2-0.5
			c0.2-0.1,0.4-0.2,0.6-0.2c0.2,0,0.4,0.1,0.6,0.2c0.1,0.1,0.3,0.4,0.6,0.8l1.7,2.6l1.7-2.6c0.1-0.2,0.2-0.3,0.3-0.4
			c0.1-0.1,0.1-0.2,0.2-0.3c0.1-0.1,0.2-0.2,0.3-0.2c0.1,0,0.2-0.1,0.4-0.1c0.2,0,0.4,0.1,0.6,0.2c0.2,0.1,0.2,0.3,0.2,0.5
			c0,0.1,0,0.3-0.1,0.4c-0.1,0.1-0.2,0.4-0.4,0.6l-2.2,3.2v2.7c0,0.3-0.1,0.6-0.3,0.8c-0.2,0.2-0.4,0.3-0.6,0.3
			c-0.3,0-0.5-0.1-0.6-0.3C77,120.6,76.9,120.3,76.9,119.9z"/>
	</g>
	<g>
		<linearGradient id="SVGID_6_" gradientUnits="userSpaceOnUse" x1="80.8442" y1="112.9936" x2="85.8874" y2="121.6867">
			<stop  offset="1.000000e-07" style="stop-color:#000000"/>
			<stop  offset="8.858984e-02" style="stop-color:#00121F"/>
			<stop  offset="0.183" style="stop-color:#002039"/>
			<stop  offset="0.281" style="stop-color:#002A4B"/>
			<stop  offset="0.384" style="stop-color:#003055"/>
			<stop  offset="0.5" style="stop-color:#003259"/>
			<stop  offset="0.6977" style="stop-color:#003157"/>
			<stop  offset="0.7825" style="stop-color:#002D50"/>
			<stop  offset="0.8458" style="stop-color:#002643"/>
			<stop  offset="0.8983" style="stop-color:#001C31"/>
			<stop  offset="0.9436" style="stop-color:#000F1B"/>
			<stop  offset="0.9827" style="stop-color:#000000"/>
		</linearGradient>
		<path class="st9" d="M83.6,113.3v6.1h3.6c0.3,0,0.5,0.1,0.7,0.2c0.2,0.1,0.2,0.3,0.2,0.5c0,0.2-0.1,0.4-0.2,0.5
			c-0.2,0.1-0.4,0.2-0.7,0.2h-4.3c-0.4,0-0.7-0.1-0.8-0.2c-0.2-0.2-0.3-0.4-0.3-0.8v-6.5c0-0.3,0.1-0.6,0.2-0.8
			c0.2-0.2,0.4-0.3,0.6-0.3c0.3,0,0.5,0.1,0.7,0.3C83.5,112.7,83.6,112.9,83.6,113.3z"/>
	</g>
	<g>
		<path class="st7" d="M90.5,113.3v6.1h3.6c0.3,0,0.5,0.1,0.7,0.2c0.2,0.1,0.2,0.3,0.2,0.5c0,0.2-0.1,0.4-0.2,0.5
			c-0.2,0.1-0.4,0.2-0.7,0.2h-4.3c-0.4,0-0.7-0.1-0.8-0.2c-0.2-0.2-0.3-0.4-0.3-0.8v-6.5c0-0.3,0.1-0.6,0.2-0.8
			c0.2-0.2,0.4-0.3,0.6-0.3c0.3,0,0.5,0.1,0.7,0.3C90.4,112.7,90.5,112.9,90.5,113.3z"/>
	</g>
	<g>
		<path class="st7" d="M95.2,119.9v-6.6c0-0.3,0.1-0.6,0.2-0.8c0.2-0.2,0.4-0.3,0.6-0.3c0.3,0,0.5,0.1,0.7,0.3
			c0.2,0.2,0.3,0.4,0.3,0.8v6.6c0,0.3-0.1,0.6-0.3,0.8c-0.2,0.2-0.4,0.3-0.7,0.3c-0.3,0-0.5-0.1-0.6-0.3
			C95.3,120.5,95.2,120.3,95.2,119.9z"/>
	</g>
	<g>
		<path class="st7" d="M119.9,119.9v-6.6c0-0.3,0.1-0.6,0.2-0.8c0.2-0.2,0.4-0.3,0.6-0.3c0.3,0,0.5,0.1,0.7,0.3
			c0.2,0.2,0.3,0.4,0.3,0.8v6.6c0,0.3-0.1,0.6-0.3,0.8c-0.2,0.2-0.4,0.3-0.7,0.3c-0.3,0-0.5-0.1-0.6-0.3
			C120,120.5,119.9,120.3,119.9,119.9z"/>
	</g>
	<g>
		<path class="st7" d="M170.8,119.9v-6.6c0-0.3,0.1-0.6,0.2-0.8c0.2-0.2,0.4-0.3,0.6-0.3c0.3,0,0.5,0.1,0.7,0.3
			c0.2,0.2,0.3,0.4,0.3,0.8v6.6c0,0.3-0.1,0.6-0.3,0.8c-0.2,0.2-0.4,0.3-0.7,0.3c-0.3,0-0.5-0.1-0.6-0.3
			C170.9,120.5,170.8,120.3,170.8,119.9z"/>
	</g>
	<g>
		<path class="st7" d="M98.6,117.3v-4.1c0-0.3,0.1-0.6,0.2-0.8c0.1-0.2,0.3-0.3,0.6-0.3c0.2,0,0.4,0.1,0.6,0.3
			c0.1,0.2,0.2,0.4,0.2,0.8v4.2c0,0.5,0,0.9,0.1,1.2c0.1,0.3,0.3,0.6,0.5,0.7c0.3,0.2,0.6,0.3,1.1,0.3c0.6,0,1.1-0.2,1.3-0.5
			c0.3-0.4,0.4-0.9,0.4-1.6v-4.2c0-0.3,0.1-0.6,0.2-0.8c0.1-0.2,0.3-0.3,0.6-0.3s0.4,0.1,0.6,0.3c0.1,0.2,0.2,0.4,0.2,0.8v4.1
			c0,0.7-0.1,1.2-0.2,1.7c-0.1,0.4-0.3,0.8-0.7,1.2c-0.3,0.3-0.6,0.5-1,0.6c-0.4,0.1-0.8,0.2-1.3,0.2c-0.6,0-1.1-0.1-1.6-0.2
			c-0.4-0.1-0.8-0.4-1.1-0.7c-0.3-0.3-0.5-0.7-0.6-1.1C98.7,118.5,98.6,118,98.6,117.3z"/>
	</g>
	<g>
		<path class="st7" d="M140,117.3v-4.1c0-0.3,0.1-0.6,0.2-0.8c0.1-0.2,0.3-0.3,0.6-0.3c0.2,0,0.4,0.1,0.6,0.3
			c0.1,0.2,0.2,0.4,0.2,0.8v4.2c0,0.5,0,0.9,0.1,1.2c0.1,0.3,0.3,0.6,0.5,0.7c0.3,0.2,0.6,0.3,1.1,0.3c0.6,0,1.1-0.2,1.3-0.5
			c0.3-0.4,0.4-0.9,0.4-1.6v-4.2c0-0.3,0.1-0.6,0.2-0.8c0.1-0.2,0.3-0.3,0.6-0.3c0.2,0,0.4,0.1,0.6,0.3c0.1,0.2,0.2,0.4,0.2,0.8v4.1
			c0,0.7-0.1,1.2-0.2,1.7c-0.1,0.4-0.3,0.8-0.7,1.2c-0.3,0.3-0.6,0.5-1,0.6c-0.4,0.1-0.8,0.2-1.3,0.2c-0.6,0-1.1-0.1-1.6-0.2
			c-0.4-0.1-0.8-0.4-1.1-0.7c-0.3-0.3-0.5-0.7-0.6-1.1C140.1,118.5,140,118,140,117.3z"/>
	</g>
	<g>
		<path class="st7" d="M109.9,119.6l-1.4-5.4v5.8c0,0.3-0.1,0.6-0.2,0.7c-0.2,0.2-0.4,0.2-0.6,0.2c-0.2,0-0.4-0.1-0.6-0.2
			c-0.2-0.2-0.2-0.4-0.2-0.7v-6.7c0-0.4,0.1-0.6,0.3-0.7c0.2-0.1,0.5-0.2,0.8-0.2h0.6c0.3,0,0.6,0,0.7,0.1c0.2,0.1,0.3,0.2,0.3,0.3
			c0.1,0.1,0.2,0.4,0.2,0.7l1.3,4.6l1.3-4.6c0.1-0.3,0.2-0.6,0.2-0.7s0.2-0.3,0.3-0.3c0.2-0.1,0.4-0.1,0.7-0.1h0.6
			c0.3,0,0.6,0.1,0.8,0.2c0.2,0.1,0.3,0.4,0.3,0.7v6.7c0,0.3-0.1,0.6-0.2,0.7c-0.2,0.2-0.4,0.2-0.6,0.2c-0.2,0-0.4-0.1-0.6-0.2
			c-0.2-0.2-0.2-0.4-0.2-0.7v-5.8l-1.4,5.4c-0.1,0.3-0.2,0.6-0.2,0.8c-0.1,0.2-0.2,0.3-0.3,0.4c-0.2,0.1-0.4,0.2-0.7,0.2
			c-0.2,0-0.4,0-0.5-0.1c-0.1-0.1-0.3-0.2-0.3-0.3c-0.1-0.1-0.1-0.3-0.2-0.4C110,119.9,110,119.7,109.9,119.6z"/>
	</g>
	<g>
		<path class="st7" d="M125.7,113.3l3,5v-5c0-0.3,0.1-0.6,0.2-0.7c0.1-0.2,0.3-0.2,0.5-0.2c0.2,0,0.4,0.1,0.5,0.2
			c0.1,0.2,0.2,0.4,0.2,0.7v6.6c0,0.7-0.3,1.1-0.8,1.1c-0.1,0-0.3,0-0.4-0.1c-0.1,0-0.2-0.1-0.3-0.2c-0.1-0.1-0.2-0.2-0.3-0.3
			c-0.1-0.1-0.2-0.3-0.3-0.4l-2.9-4.9v4.9c0,0.3-0.1,0.6-0.2,0.7c-0.1,0.2-0.3,0.2-0.5,0.2c-0.2,0-0.4-0.1-0.5-0.3
			c-0.1-0.2-0.2-0.4-0.2-0.7v-6.5c0-0.3,0-0.5,0.1-0.7c0.1-0.2,0.2-0.3,0.3-0.4c0.2-0.1,0.3-0.2,0.5-0.2c0.1,0,0.3,0,0.4,0.1
			c0.1,0.1,0.2,0.1,0.3,0.2c0.1,0.1,0.2,0.2,0.2,0.3C125.5,113,125.6,113.1,125.7,113.3z"/>
	</g>
	<g>
		<path class="st7" d="M132.9,112.4h2.3c0.6,0,1.1,0.1,1.6,0.2c0.4,0.1,0.8,0.3,1.2,0.6c0.9,0.8,1.4,1.9,1.4,3.4c0,0.5,0,1-0.1,1.4
			c-0.1,0.4-0.2,0.8-0.4,1.1c-0.2,0.3-0.4,0.6-0.7,0.9c-0.2,0.2-0.5,0.4-0.8,0.5c-0.3,0.1-0.6,0.2-0.9,0.3c-0.3,0-0.7,0.1-1.1,0.1
			h-2.3c-0.3,0-0.6,0-0.7-0.1c-0.2-0.1-0.3-0.2-0.3-0.4c-0.1-0.2-0.1-0.4-0.1-0.7v-6.2c0-0.4,0.1-0.6,0.3-0.8
			C132.2,112.5,132.5,112.4,132.9,112.4z M133.6,113.8v5.7h1.4c0.3,0,0.5,0,0.7,0c0.2,0,0.3-0.1,0.5-0.1c0.2-0.1,0.3-0.1,0.5-0.3
			c0.6-0.5,0.9-1.3,0.9-2.5c0-0.8-0.1-1.5-0.4-1.9c-0.3-0.4-0.6-0.7-1-0.8c-0.4-0.1-0.9-0.2-1.4-0.2H133.6z"/>
	</g>
	<g>
		<path class="st7" d="M161.3,113.8h-2v6.1c0,0.4-0.1,0.6-0.2,0.8c-0.2,0.2-0.4,0.3-0.6,0.3c-0.3,0-0.5-0.1-0.6-0.3
			c-0.2-0.2-0.3-0.4-0.3-0.8v-6.1h-2c-0.3,0-0.5-0.1-0.7-0.2c-0.1-0.1-0.2-0.3-0.2-0.5c0-0.2,0.1-0.4,0.2-0.5
			c0.2-0.1,0.4-0.2,0.7-0.2h5.7c0.3,0,0.5,0.1,0.7,0.2c0.2,0.1,0.2,0.3,0.2,0.5c0,0.2-0.1,0.4-0.2,0.5
			C161.8,113.7,161.6,113.8,161.3,113.8z"/>
	</g>
	<g>
		<path class="st7" d="M164.9,117.2h-0.6v2.6c0,0.3-0.1,0.6-0.2,0.8c-0.2,0.2-0.3,0.2-0.6,0.2c-0.3,0-0.5-0.1-0.6-0.3
			c-0.1-0.2-0.2-0.4-0.2-0.8v-6.3c0-0.4,0.1-0.6,0.2-0.8s0.4-0.2,0.8-0.2h2.7c0.4,0,0.7,0,0.9,0c0.3,0,0.5,0.1,0.7,0.2
			c0.3,0.1,0.5,0.3,0.7,0.5c0.2,0.2,0.3,0.4,0.4,0.7c0.1,0.3,0.2,0.5,0.2,0.8c0,0.6-0.2,1.1-0.5,1.5c-0.3,0.4-0.9,0.6-1.5,0.8
			c0.3,0.2,0.6,0.4,0.8,0.7c0.3,0.3,0.5,0.6,0.7,1c0.2,0.3,0.4,0.7,0.5,0.9c0.1,0.3,0.2,0.5,0.2,0.6c0,0.1,0,0.2-0.1,0.3
			c-0.1,0.1-0.2,0.2-0.3,0.3c-0.1,0.1-0.3,0.1-0.4,0.1c-0.2,0-0.3,0-0.5-0.1c-0.1-0.1-0.2-0.2-0.3-0.3c-0.1-0.1-0.2-0.3-0.4-0.6
			l-0.7-1.1c-0.2-0.4-0.4-0.7-0.6-0.9c-0.2-0.2-0.4-0.4-0.6-0.4C165.5,117.3,165.2,117.2,164.9,117.2z M165.9,113.8h-1.5v2.2h1.5
			c0.4,0,0.7,0,1-0.1c0.3-0.1,0.5-0.2,0.6-0.4c0.1-0.2,0.2-0.4,0.2-0.7c0-0.2-0.1-0.4-0.2-0.6c-0.1-0.2-0.3-0.3-0.5-0.4
			C166.8,113.8,166.4,113.8,165.9,113.8z"/>
	</g>
	<g>
		<path class="st7" d="M179.8,113.7h-4v2.1h3.7c0.3,0,0.5,0.1,0.6,0.2c0.1,0.1,0.2,0.3,0.2,0.5c0,0.2-0.1,0.3-0.2,0.5
			c-0.1,0.1-0.3,0.2-0.6,0.2h-3.7v2.4h4.2c0.3,0,0.5,0.1,0.6,0.2c0.1,0.1,0.2,0.3,0.2,0.5c0,0.2-0.1,0.4-0.2,0.5
			c-0.1,0.1-0.4,0.2-0.6,0.2h-4.9c-0.4,0-0.7-0.1-0.8-0.2c-0.2-0.2-0.3-0.4-0.3-0.8v-6.3c0-0.2,0-0.4,0.1-0.6
			c0.1-0.2,0.2-0.3,0.4-0.3c0.2-0.1,0.4-0.1,0.6-0.1h4.7c0.3,0,0.5,0.1,0.6,0.2c0.1,0.1,0.2,0.3,0.2,0.5c0,0.2-0.1,0.4-0.2,0.5
			C180.3,113.7,180.1,113.7,179.8,113.7z"/>
	</g>
</g>
</svg>
