<?xml version="1.0" encoding="utf-8"?>
<!-- Generator: Adobe Illustrator 21.1.0, SVG Export Plug-In . SVG Version: 6.00 Build 0)  -->
<svg version="1.1" id="Capa_1" xmlns="http://www.w3.org/2000/svg" xmlns:xlink="http://www.w3.org/1999/xlink" x="0px" y="0px"
	 viewBox="0 0 512 512" style="enable-background:new 0 0 512 512;" xml:space="preserve">
<style type="text/css">
	.st0{opacity:0.24;fill:url(#SVGID_1_);}
	.st1{fill:#FDDEB0;}
	.st2{fill:#FDD79B;}
	.st3{fill:#C8EFFE;}
	.st4{fill:#01D0FB;}
	.st5{fill:#01C0FA;}
	.st6{fill:#FED402;}
	.st7{fill:#FAC600;}
	.st8{fill:#FEE97D;}
	.st9{fill:#3E5959;}
	.st10{fill:#384949;}
	.st11{fill:#A8D3D8;}
	.st12{fill:#8EBAC5;}
	.st13{fill:#05E39C;}
	.st14{fill:#0ED290;}
	.st15{fill:#FD5426;}
	.st16{fill:#EF4424;}
	.st17{fill:#FE9901;}
	.st18{fill:#FB8801;}
</style>
<radialGradient id="SVGID_1_" cx="256" cy="256" r="193.5" gradientUnits="userSpaceOnUse">
	<stop  offset="0" style="stop-color:#FFFFFF"/>
	<stop  offset="0.5395" style="stop-color:#E97B00"/>
	<stop  offset="1" style="stop-color:#FF3100"/>
</radialGradient>
<circle class="st0" cx="256" cy="256" r="193.5"/>
<g>
	<path class="st1" d="M446.4,318l-33.5-59.6c-0.8-1.5-1.3-3.1-1.3-4.8c-0.3-16.4-3-32.1-8-46.9h-86.1c-2.8,0-5-2.2-5-5v-51.4
		c0-2.8,2.2-5,5-5h48.2c-24.1-24.1-56-40.4-91.5-44.8c-3.4,20-14.2,37.5-29.5,49.6c-5.5,4.3-9.8,10.1-11.9,16.9l-4.7,14.9
		c6.3,1.5,10.9,7.1,10.9,13.8c0,7.9-6.4,14.2-14.2,14.2c7.9,0,14.2,6.4,14.2,14.2s-6.4,14.2-14.2,14.2h-4.9l-4.5,21.4
		c-1.2,5.6-6.1,9.7-11.9,9.7H188c-5.7,0-10.7-4-11.9-9.6l-4.6-21.5h-5c-7.9,0-14.2-6.4-14.2-14.2s6.4-14.2,14.2-14.2
		c-7.9,0-14.2-6.4-14.2-14.2c0-6.7,4.7-12.3,10.9-13.8l-4.7-14.7c-2.1-6.6-6-12.5-11.5-16.7c-1.5-1.2-3-2.4-4.4-3.7
		c-27,27.6-43.9,65.1-44.7,106.5c-0.4,20.6,3.2,40.3,10,58.5h86.6c2.8,0,5,2.2,5,5V368c0,2.8-2.2,5-5,5h-44.5
		c3.5,3.2,7.2,6.2,11.1,9.1c10.2,7.6,16.4,19.5,16.4,32.3v80.1c0,5.5,4.5,10,10,10h115.6c5.5,0,10-4.5,10-10v-56.6
		c0-5.5,4.5-10,10-10h30.5c24,0,43.5-19.5,43.5-43.5v-32c0-5.5,4.5-10,10-10h25.2c9,0,16.4-7.3,16.4-16.4
		C448.5,323.2,447.8,320.5,446.4,318L446.4,318z"/>
	<g>
		<path class="st2" d="M131.3,253.1c0.6-31.6,10.6-61,27.4-85.4l-0.2-0.7c-2.1-6.6-6-12.5-11.5-16.7c-1.5-1.2-3-2.4-4.4-3.7
			c-27,27.6-43.9,65.1-44.7,106.5c-0.4,20.6,3.2,40.3,10,58.5h33.5C134.5,293.5,130.9,273.7,131.3,253.1z"/>
		<path class="st2" d="M210.9,494.5v-80.1c0-12.8-6.1-24.7-16.4-32.3c-3.8-2.9-7.5-5.9-11.1-9.1h-33.5c3.5,3.2,7.2,6.2,11.1,9.1
			c10.2,7.6,16.4,19.5,16.4,32.3v80.1c0,5.5,4.5,10,10,10h33.5C215.3,504.5,210.9,500,210.9,494.5z"/>
	</g>
	<path class="st3" d="M348.5,206.7h-30.9c-2.8,0-5-2.2-5-5v-35.2c-16.9-11.3-37.2-17.9-59-17.9c-2.5,0-5,0.1-7.4,0.3
		c-0.5,0.4-1,0.8-1.4,1.2c-5.5,4.3-9.8,10.1-11.9,16.9l-4.7,14.9c6.3,1.5,10.9,7.1,10.9,13.8c0,7.9-6.4,14.2-14.2,14.2
		c7.9,0,14.2,6.4,14.2,14.2s-6.4,14.2-14.2,14.2h-4.9l-4.5,21.4c-1.2,5.6-6.1,9.7-11.9,9.7H188c-5.7,0-10.7-4-11.9-9.6l-4.6-21.5h-5
		c-7.9,0-14.2-6.4-14.2-14.2c0-1.2,0.2-2.3,0.4-3.4c-3.7,10.8-5.7,22.4-5.7,34.5c0,20.7,5.9,40,16.2,56.4h31.4c2.8,0,5,2.2,5,5v30.5
		c15.9,9.4,34.4,14.8,54.1,14.8c58.8,0,106.6-47.8,106.6-106.6C360.2,237.8,356,221.3,348.5,206.7L348.5,206.7z"/>
	<path class="st4" d="M253.6,202.7c-6.9,0-13.6,1.4-19.6,3.8c-1.8,1.5-4,2.6-6.3,3.1c-0.3,0.1-0.5,0.3-0.8,0.4
		c6.9,1,12.2,6.9,12.2,14.1c0,7.9-6.4,14.2-14.2,14.2h-4.9l-4.5,21.4c-1.2,5.6-6.1,9.7-11.9,9.7H203c6.2,22.1,26.5,38.3,50.6,38.3
		c29,0,52.5-23.6,52.5-52.5S282.5,202.7,253.6,202.7L253.6,202.7z"/>
	<path class="st5" d="M270.5,205.5c-5.3-1.8-11-2.8-17-2.8c-6.9,0-13.6,1.4-19.6,3.8c-1.8,1.5-4,2.6-6.3,3.1
		c-0.3,0.1-0.5,0.3-0.8,0.4c6.9,1,12.2,6.9,12.2,14.1c0,7.9-6.4,14.2-14.2,14.2h-4.9l-4.5,21.4c-1.2,5.6-6.1,9.7-11.9,9.7H203
		c6.2,22.1,26.5,38.3,50.6,38.3c5.9,0,11.7-1,17-2.8c-20.7-7.1-35.5-26.7-35.5-49.7S249.9,212.6,270.5,205.5L270.5,205.5z"/>
	<g>
		<g>
			<g>
				<path class="st6" d="M194.4,7.5C152,8.1,117.1,42.6,115.9,85c-0.7,26.6,11.6,50.4,31.1,65.3c5.5,4.2,9.4,10.1,11.5,16.7l5,15.7
					c1-0.2,2-0.4,3-0.4h58.3c1,0,2.1,0.1,3,0.4l5-15.9c2.1-6.7,6.3-12.5,11.9-16.9c18.6-14.6,30.6-37.3,30.6-62.8
					C275.3,42.8,239,6.9,194.4,7.5L194.4,7.5z"/>
			</g>
		</g>
		<g>
			<g>
				<path class="st7" d="M163.4,182.8c1-0.2,2-0.4,3-0.4h24.6l-7.5-23.8c-2.1-6.6-6-12.5-11.5-16.7c-19.4-15-31.8-38.7-31.1-65.3
					c0.8-29.4,17.7-54.9,42.1-68C146,14.4,117,46.4,115.9,85c-0.7,26.6,11.6,50.4,31.1,65.3c5.5,4.2,9.4,10.1,11.5,16.7L163.4,182.8
					z"/>
			</g>
		</g>
		<g>
			<circle class="st8" cx="195.6" cy="87.2" r="46.2"/>
		</g>
		<g>
			<g>
				<path class="st9" d="M171.3,237.3c0,0.2,0.1,0.4,0.1,0.6l4.7,21.9c1.2,5.6,6.2,9.6,11.9,9.6h15.4c5.8,0,10.7-4,11.9-9.7
					l4.5-21.9c0-0.2,0.1-0.4,0.1-0.5L171.3,237.3z"/>
			</g>
			<path class="st9" d="M171.5,238.3l4.6,21.5c1.2,5.6,6.2,9.6,11.9,9.6h15.4c5.8,0,10.7-4,11.9-9.7l4.5-21.4H171.5z"/>
			<path class="st10" d="M197.8,259.9l-4.6-21.5h-21.7l4.6,21.5c1.2,5.6,6.2,9.6,11.9,9.6h15.4c1.1,0,2.1-0.1,3.1-0.4
				C202.3,267.9,198.8,264.4,197.8,259.9z"/>
			<g>
				<path class="st11" d="M224.8,209.9h-58.3c-7.9,0-14.2-6.4-14.2-14.2s6.4-14.2,14.2-14.2h58.3c7.9,0,14.2,6.4,14.2,14.2
					C239,203.5,232.6,209.9,224.8,209.9z"/>
			</g>
			<g>
				<path class="st12" d="M186,195.6c0-7.9,6.4-14.2,14.2-14.2h-33.8c-7.9,0-14.2,6.4-14.2,14.2s6.4,14.2,14.2,14.2h33.8
					C192.4,209.9,186,203.5,186,195.6z"/>
			</g>
			<g>
				<path class="st3" d="M224.8,238.3h-58.3c-7.9,0-14.2-6.4-14.2-14.2s6.4-14.2,14.2-14.2h58.3c7.9,0,14.2,6.4,14.2,14.2
					C239,232,232.6,238.3,224.8,238.3z"/>
			</g>
			<g>
				<path class="st11" d="M186,224.1c0-7.9,6.4-14.2,14.2-14.2h-33.8c-7.9,0-14.2,6.4-14.2,14.2s6.4,14.2,14.2,14.2h33.8
					C192.4,238.3,186,232,186,224.1z"/>
			</g>
		</g>
	</g>
	<g>
		<g>
			<path class="st13" d="M194.4,373H60.8c-2.8,0-5-2.2-5-5v-51.4c0-2.8,2.2-5,5-5h133.7c2.8,0,5,2.2,5,5V368
				C199.4,370.8,197.2,373,194.4,373L194.4,373z"/>
		</g>
		<g>
			<path class="st14" d="M89.3,368v-51.4c0-2.8,2.2-5,5-5H60.8c-2.8,0-5,2.2-5,5V368c0,2.8,2.2,5,5,5h33.6
				C91.6,373,89.3,370.8,89.3,368L89.3,368z"/>
		</g>
	</g>
	<g>
		<g>
			<path class="st15" d="M451.2,206.7H317.6c-2.8,0-5-2.2-5-5v-51.4c0-2.8,2.2-5,5-5h133.7c2.8,0,5,2.2,5,5v51.4
				C456.2,204.5,454,206.7,451.2,206.7z"/>
		</g>
		<g>
			<path class="st16" d="M346.3,201.7v-51.4c0-2.8,2.2-5,5-5h-33.8c-2.8,0-5,2.2-5,5v51.4c0,2.8,2.2,5,5,5h33.8
				C348.6,206.7,346.3,204.5,346.3,201.7z"/>
		</g>
	</g>
	<g>
		<circle class="st17" cx="195.6" cy="87.2" r="20.1"/>
	</g>
	<g>
		<path class="st18" d="M192,87.2c0-8.2,4.9-15.2,11.9-18.4c-2.5-1.1-5.3-1.8-8.3-1.8c-11.1,0-20.1,9-20.1,20.1s9,20.1,20.1,20.1
			c2.9,0,5.7-0.6,8.3-1.8C196.9,102.4,192,95.4,192,87.2L192,87.2z"/>
	</g>
	<g>
		<path d="M82.8,349.8h18.7c4.1,0,7.5-3.4,7.5-7.5s-3.4-7.5-7.5-7.5H82.8c-4.1,0-7.5,3.4-7.5,7.5S78.7,349.8,82.8,349.8z"/>
		<path d="M125.9,349.8h46.5c4.1,0,7.5-3.4,7.5-7.5s-3.4-7.5-7.5-7.5h-46.5c-4.1,0-7.5,3.4-7.5,7.5S121.8,349.8,125.9,349.8z"/>
		<path d="M451.2,137.8h-82.4c-24.1-23.2-54-38.2-86.3-43.7c0.2-2.3,0.3-4.6,0.3-6.9c0-23.5-9.2-45.6-26-62.1
			C240.1,8.6,217.9-0.3,194.3,0c-22.5,0.3-43.8,9.3-59.9,25.2c-16.2,16-25.4,37.1-26,59.6c-0.6,23.1,8.1,45.4,23.6,62.1
			c-26.2,29.3-41,66.6-41.7,106.1c-0.3,17.5,2.2,34.7,7.2,51.1H60.8c-6.9,0-12.5,5.6-12.5,12.5V368c0,6.9,5.6,12.5,12.5,12.5h86.4
			c3,2.6,6.2,5.2,9.4,7.6c8.4,6.2,13.3,16.1,13.3,26.3v80.1c0,9.7,7.9,17.5,17.5,17.5h115.6c9.7,0,17.5-7.9,17.5-17.5V483
			c0-4.1-3.4-7.5-7.5-7.5s-7.5,3.4-7.5,7.5v11.5c0,1.4-1.1,2.5-2.5,2.5H187.4c-1.4,0-2.5-1.1-2.5-2.5v-80.1
			c0-12.7-5.2-24.9-14.3-33.9h23.8c6.9,0,12.5-5.6,12.5-12.5v-8.6c14.2,6.4,30,10,46.6,10c62.9,0,114.1-51.2,114.1-114.1
			c0-14.5-2.7-28.3-7.6-41h38.2c3.7,12.7,5.7,26,5.9,39.6c0,2.9,0.8,5.8,2.2,8.4l33.5,59.6c0.7,1.3,1.1,2.8,1.1,4.3
			c0,4.9-4,8.9-8.9,8.9H407c-9.7,0-17.5,7.9-17.5,17.5v32c0,19.8-16.1,36-36,36H323c-9.7,0-17.5,7.9-17.5,17.5V448
			c0,4.1,3.4,7.5,7.5,7.5s7.5-3.4,7.5-7.5v-10.1c0-1.4,1.1-2.5,2.5-2.5h30.5c28.1,0,51-22.9,51-51v-32c0-1.4,1.1-2.5,2.5-2.5h25.2
			c13.2,0,23.9-10.7,23.9-23.9c0-4.1-1.1-8.1-3.1-11.7l-33.5-59.6c-0.2-0.4-0.3-0.8-0.3-1.3c-0.2-13.4-2.1-26.6-5.4-39.3h37.5
			c6.9,0,12.5-5.6,12.5-12.5v-51.4C463.7,143.4,458.1,137.8,451.2,137.8L451.2,137.8z M345.9,137.8h-28.4c-6.9,0-12.5,5.6-12.5,12.5
			v3.1c-12.6-6.4-26.5-10.5-41.2-11.8c7.7-9.6,13.2-20.7,16.3-32.7C304.1,113,326.6,122.8,345.9,137.8L345.9,137.8z M123.4,85.2
			c0.5-18.6,8.1-36.1,21.5-49.3c13.4-13.2,31-20.6,49.6-20.9c0.4,0,0.7,0,1.1,0c19.1,0,37.1,7.4,50.7,20.8
			c13.9,13.7,21.5,32,21.5,51.4c0,22.4-10.1,43.1-27.8,56.9c-6.9,5.4-11.9,12.5-14.4,20.5l-2.9,9.3h-19.6v-33.5
			c26.1-3.7,46.2-26.1,46.2-53.2c0-6.4-1.1-12.6-3.3-18.6c-1.4-3.9-5.7-5.9-9.6-4.4c-3.9,1.4-5.9,5.7-4.4,9.6
			c1.6,4.3,2.4,8.8,2.4,13.4c0,18.8-13.4,34.5-31.2,38v-11.4c11.6-3.3,20.1-14,20.1-26.6c0-15.2-12.4-27.6-27.6-27.6
			S168,72,168,87.2c0,12.6,8.5,23.3,20.1,26.6v11.4c-17.8-3.5-31.2-19.2-31.2-38c0-21.4,17.4-38.7,38.7-38.7
			c5.8,0,11.3,1.2,16.5,3.7c3.7,1.8,8.2,0.2,10-3.6s0.2-8.2-3.6-10c-7.2-3.4-14.9-5.1-22.9-5.1c-29.6,0-53.7,24.1-53.7,53.7
			c0,27.1,20.1,49.5,46.2,53.2v33.5h-19.6l-2.9-9.1c-2.6-8.2-7.5-15.3-14.1-20.4C133.3,130.4,122.8,108.2,123.4,85.2L123.4,85.2z
			 M208.1,258.3c-0.4,2.2-2.4,3.7-4.6,3.7H188c-2.2,0-4.1-1.5-4.6-3.7l-2.7-12.4h29.8L208.1,258.3z M166.5,230.8
			c-3.7,0-6.7-3-6.7-6.7c0-3.7,3-6.7,6.7-6.7h58.3c3.7,0,6.7,3,6.7,6.7s-3,6.7-6.7,6.7H166.5z M224.8,202.4h-58.3
			c-3.7,0-6.7-3-6.7-6.7s3-6.7,6.7-6.7h58.3c3.7,0,6.7,3,6.7,6.7S228.5,202.4,224.8,202.4z M195.6,99.9c-7,0-12.6-5.7-12.6-12.6
			s5.7-12.6,12.6-12.6s12.6,5.7,12.6,12.6S202.6,99.9,195.6,99.9z M105.3,253.3c0.7-35.8,14.1-69.6,37.9-96.3
			c3.8,3.2,6.6,7.4,8.1,12.4l2.7,8.5c-5.6,3.9-9.3,10.4-9.3,17.8c0,5,1.7,9.6,4.5,13.2c-0.9,2-1.7,4-2.5,6.1c-0.6,1.2-1,2.4-1.3,3.7
			c-3.9,11.5-6,23.8-6,36.5c0,17.5,4,34,11,48.9h-37.2C107.8,287.9,105,270.7,105.3,253.3L105.3,253.3z M191.9,365.5H63.3v-46.4
			h128.7V365.5z M352.7,255.2c0,54.7-44.5,99.1-99.1,99.1c-16.8,0-32.7-4.2-46.6-11.7v-26.1c0-6.9-5.6-12.5-12.5-12.5h-27.1
			c-8.2-14.4-12.9-31.1-12.9-48.9c0-4.2,0.3-8.4,0.8-12.5c3,1.8,6.5,3,10.2,3.1l3.4,15.6c1.9,9,10,15.5,19.2,15.5h9.6
			c8.7,22.4,30.5,38.3,55.9,38.3c7.3,0,14.4-1.3,21.2-3.9c3.9-1.5,5.8-5.8,4.4-9.7c-1.5-3.9-5.8-5.8-9.7-4.4
			c-5.1,1.9-10.4,2.9-15.9,2.9c-17.9,0-33.4-10.5-40.7-25.7c4.9-2.7,8.6-7.5,9.8-13.2l3.2-15.5c11.4-0.6,20.5-10.1,20.5-21.7
			c0-4.7-1.5-9-4-12.5c3.5-0.9,7.2-1.4,11.1-1.4c24.8,0,45,20.2,45,45c0,8-2.1,15.8-6.1,22.7c-2.1,3.6-0.9,8.2,2.7,10.3
			c3.6,2.1,8.2,0.9,10.3-2.7c5.4-9.2,8.2-19.6,8.2-30.2c0-33.1-26.9-60-60-60c-2.4,0-4.7,0.1-7.1,0.4c0-7.3-3.7-13.8-9.3-17.8
			l2.7-8.7c1.6-5,4.7-9.4,9-12.9c1.5-0.1,3-0.1,4.6-0.1c18.9,0,36.5,5.3,51.5,14.5v31.1c0,6.9,5.6,12.5,12.5,12.5h26.2
			C349.5,226.7,352.7,240.6,352.7,255.2L352.7,255.2z M448.7,199.2H320.1v-46.4h128.7V199.2z"/>
		<path d="M339.6,183.5h18.7c4.1,0,7.5-3.4,7.5-7.5s-3.4-7.5-7.5-7.5h-18.7c-4.1,0-7.5,3.4-7.5,7.5S335.5,183.5,339.6,183.5z"/>
		<path d="M382.7,183.5h46.5c4.1,0,7.5-3.4,7.5-7.5s-3.4-7.5-7.5-7.5h-46.5c-4.1,0-7.5,3.4-7.5,7.5S378.5,183.5,382.7,183.5z"/>
	</g>
</g>
</svg>
