<?xml version="1.0" encoding="utf-8"?>
<!-- Generator: Adobe Illustrator 21.1.0, SVG Export Plug-In . SVG Version: 6.00 Build 0)  -->
<svg version="1.1" id="圖層_1" xmlns="http://www.w3.org/2000/svg" xmlns:xlink="http://www.w3.org/1999/xlink" x="0px" y="0px"
	 viewBox="0 0 512 512" style="enable-background:new 0 0 512 512;" xml:space="preserve">
<style type="text/css">
	.st0{opacity:0.24;fill:url(#SVGID_1_);}
	.st1{fill:#A8DBA8;}
	.st2{fill:#CFF09E;}
	.st3{fill:#79BD9A;}
	.st4{fill:#AAE1F9;}
	.st5{fill:#3B8686;}
</style>
<radialGradient id="SVGID_1_" cx="256" cy="256" r="193.5" gradientUnits="userSpaceOnUse">
	<stop  offset="0" style="stop-color:#FFFFFF"/>
	<stop  offset="0.5395" style="stop-color:#E97B00"/>
	<stop  offset="1" style="stop-color:#FF3100"/>
</radialGradient>
<circle class="st0" cx="256" cy="256" r="193.5"/>
<path class="st1" d="M24,440h272l0,0v16c0,17.7-14.3,32-32,32H56c-17.7,0-32-14.3-32-32V440L24,440z"/>
<path class="st2" d="M80,328v-64H48v176h224v-32H160C115.8,408,80,372.2,80,328z"/>
<path class="st2" d="M376,272h96c8.8,0,16,7.2,16,16v96c0,8.8-7.2,16-16,16h-96c-8.8,0-16-7.2-16-16v-96
	C360,279.2,367.2,272,376,272z"/>
<circle class="st3" cx="424" cy="336" r="24"/>
<circle class="st4" cx="432" cy="328" r="8"/>
<circle class="st3" cx="216" cy="80" r="64"/>
<path class="st2" d="M200,104V56l48,24L200,104z"/>
<path class="st2" d="M384,64V24h-8c-8.8,0-16,7.2-16,16v96c0,8.8,7.2,16,16,16h96c8.8,0,16-7.2,16-16v-8h-40
	C412.7,128,384,99.3,384,64z"/>
<path class="st2" d="M48,152V96H24v128h96v-24H96C69.5,200,48,178.5,48,152z"/>
<path class="st3" d="M152.5,345.3l27.7-16l0,0l32,55.4c4.4,7.7,1.8,17.4-5.9,21.9c-7.7,4.4-17.4,1.8-21.9-5.9L152.5,345.3
	L152.5,345.3z"/>
<path class="st2" d="M322,302.9l-136.7,51.2l-40-69.3L258,192L322,302.9z"/>
<path class="st1" d="M110.7,304.8l34.6-20l0,0l40,69.3l0,0l-34.6,20c-11.5,6.6-26.2,2.7-32.8-8.8l-16-27.7
	C95.3,326.1,99.2,311.4,110.7,304.8z"/>
<path class="st3" d="M88,345.6l13.9-8l0,0l16,27.7l0,0l-13.9,8c-7.7,4.4-17.4,1.8-21.9-5.9C77.7,359.8,80.3,350,88,345.6z"/>
<g>
	<path class="st5" d="M448,48h-16c-13.3,0-24,10.7-24,24v8h-8c-4.4,0-8,3.6-8,8s3.6,8,8,8h8v24c0,4.4,3.6,8,8,8s8-3.6,8-8V96h8
		c4.4,0,8-3.6,8-8s-3.6-8-8-8h-8v-8c0-4.4,3.6-8,8-8h16c4.4,0,8-3.6,8-8S452.4,48,448,48z"/>
	<path class="st5" d="M472,16h-96c-13.3,0-24,10.7-24,24v96c0,13.3,10.7,24,24,24h96c13.3,0,24-10.7,24-24V40
		C496,26.7,485.3,16,472,16z M480,136c0,4.4-3.6,8-8,8h-96c-4.4,0-8-3.6-8-8V40c0-4.4,3.6-8,8-8h96c4.4,0,8,3.6,8,8V136z"/>
	<path class="st5" d="M472,264h-96c-13.3,0-24,10.7-24,24v96c0,13.3,10.7,24,24,24h96c13.3,0,24-10.7,24-24v-96
		C496,274.7,485.3,264,472,264z M480,384c0,4.4-3.6,8-8,8h-96c-4.4,0-8-3.6-8-8v-96c0-4.4,3.6-8,8-8h96c4.4,0,8,3.6,8,8V384z"/>
	<path class="st5" d="M424,304c-17.7,0-32,14.3-32,32s14.3,32,32,32s32-14.3,32-32S441.7,304,424,304z M424,352c-8.8,0-16-7.2-16-16
		s7.2-16,16-16s16,7.2,16,16S432.8,352,424,352z"/>
	<path class="st5" d="M195.8,110.8c1.3,0.8,2.7,1.2,4.2,1.2c1.3,0,2.5-0.3,3.6-0.9l48-24c3.9-2,5.5-6.8,3.5-10.8
		c-0.8-1.5-2-2.7-3.5-3.5l-48-24c-3.9-2-8.8-0.4-10.7,3.5c-0.6,1.1-0.9,2.3-0.9,3.6v48C192,106.8,193.4,109.3,195.8,110.8z M208,69
		l22.1,11L208,91V69z"/>
	<path class="st5" d="M216,152c39.8,0,72-32.2,72-72S255.8,8,216,8s-72,32.2-72,72S176.2,152,216,152z M216,24c30.9,0,56,25.1,56,56
		s-25.1,56-56,56s-56-25.1-56-56S185.1,24,216,24z"/>
	<path class="st5" d="M296,184c2.5,0,4.9-1.2,6.4-3.2l24-32c2.6-3.5,1.9-8.6-1.6-11.2c-3.5-2.6-8.5-1.9-11.2,1.6l-24,32
		c-2.7,3.5-1.9,8.5,1.6,11.2C292.6,183.4,294.3,184,296,184z"/>
	<path class="st5" d="M313.6,212.8c1.5,2,3.9,3.2,6.4,3.2c1.7,0,3.4-0.6,4.8-1.6l32-24c3.5-2.7,4.3-7.7,1.6-11.2
		c-2.7-3.5-7.7-4.3-11.2-1.6l-32,24C311.7,204.3,310.9,209.3,313.6,212.8L313.6,212.8z"/>
	<path class="st5" d="M392,230.4c-0.8-4.3-4.9-7.2-9.3-6.5c-0.1,0-0.2,0-0.3,0.1l-40,8c-4.4,0.4-7.6,4.4-7.2,8.8
		c0.4,4.4,4.4,7.6,8.8,7.2h1.6l40-8c4.3-0.8,7.2-4.9,6.5-9.3C392,230.6,392,230.5,392,230.4z"/>
	<path class="st5" d="M24,232h96c4.4,0,8-3.6,8-8V96c0-4.4-3.6-8-8-8H24c-4.4,0-8,3.6-8,8v128C16,228.4,19.6,232,24,232z M32,104h80
		v112H32V104z"/>
	<path class="st5" d="M88,120H72c-4.4,0-8,3.6-8,8c0,4.4,3.6,8,8,8h16c4.4,0,8-3.6,8-8C96,123.6,92.4,120,88,120z"/>
	<path class="st5" d="M88,152H56c-4.4,0-8,3.6-8,8s3.6,8,8,8h32c4.4,0,8-3.6,8-8S92.4,152,88,152z"/>
	<path class="st5" d="M88,184H56c-4.4,0-8,3.6-8,8s3.6,8,8,8h32c4.4,0,8-3.6,8-8S92.4,184,88,184z"/>
	<path class="st5" d="M265,188c-1.2-2-3.2-3.4-5.5-3.8c-2.3-0.4-4.7,0.2-6.6,1.7L168,256H48c-4.4,0-8,3.6-8,8v168H24
		c-4.4,0-8,3.6-8,8v16c0,22.1,17.9,40,40,40h208c22.1,0,40-17.9,40-40v-16c0-4.4-3.6-8-8-8h-16V327.1l44.8-16.8
		c2.2-0.8,3.9-2.6,4.7-4.8c0.8-2.2,0.6-4.6-0.6-6.6L265,188z M188.7,361.4h0.6l16,27.6c1.1,1.8,1.4,4,0.8,6.1
		c-0.6,2-1.9,3.8-3.8,4.8c-3.8,2.2-8.7,0.9-10.9-2.9l-16-27.8L188.7,361.4z M174.3,351.1l-27.7,16c-3.7,2.1-8.1,2.7-12.2,1.6
		c-4.1-1.1-7.6-3.8-9.7-7.4l-16-27.7c-4.2-7.6-1.7-17.2,5.8-21.6l27.7-16l16,27.8L174.3,351.1z M99,348.5l8,13.8l-7,4
		c-1.8,1.1-4,1.4-6.1,0.8c-2-0.5-3.8-1.9-4.9-3.7c-1.1-1.8-1.4-4-0.8-6.1c0.6-2.1,1.9-3.8,3.8-4.9L99,348.5z M288,456
		c0,13.3-10.7,24-24,24h-16v-8c0-4.4-3.6-8-8-8s-8,3.6-8,8v8H88v-8c0-4.4-3.6-8-8-8s-8,3.6-8,8v8H56c-13.3,0-24-10.7-24-24v-8h256
		V456z M264,432H56V272h92.2l-7.5,6.2l-34.1,19.7c-12.6,7.3-18.6,22.2-14.7,36.2l-8,4.6c-11.5,6.6-15.5,21.3-8.9,32.8
		c3.2,5.5,8.4,9.6,14.6,11.2c2,0.5,4.1,0.8,6.2,0.8c4.2,0,8.3-1.1,12-3.2l8-4.6c4,4,8.9,6.9,14.4,8.3c2.7,0.8,5.6,1.1,8.4,1.1
		c5.6,0,11.1-1.5,16-4.3l7-4l16,27.8c6.6,11.4,21.3,15.4,32.7,8.8c11.5-6.6,15.4-21.3,8.8-32.8c0,0,0,0,0,0l-14.6-25.4l59.4-22.1
		V432z M188.8,344l-16.6-28.7l-16.6-28.8L256,204.2l54.6,94.5L188.8,344z"/>
</g>
</svg>
