<?xml version="1.0" encoding="utf-8"?>
<!-- Generator: Adobe Illustrator 21.1.0, SVG Export Plug-In . SVG Version: 6.00 Build 0)  -->
<svg version="1.1" id="Capa_1" xmlns="http://www.w3.org/2000/svg" xmlns:xlink="http://www.w3.org/1999/xlink" x="0px" y="0px"
	 viewBox="0 0 512 512" style="enable-background:new 0 0 512 512;" xml:space="preserve">
<style type="text/css">
	.st0{opacity:0.24;fill:url(#SVGID_1_);}
	.st1{fill:url(#SVGID_2_);}
	.st2{fill:url(#SVGID_3_);}
	.st3{fill:url(#SVGID_4_);}
	.st4{fill:#43386B;}
	.st5{fill:url(#SVGID_5_);}
	.st6{fill:url(#SVGID_6_);}
	.st7{fill:#E9E5F6;}
	.st8{fill:#7662BD;}
	.st9{fill:url(#SVGID_7_);}
	.st10{fill:#FFA538;}
	.st11{fill:#594A8E;}
	.st12{fill:url(#SVGID_8_);}
	.st13{fill:url(#SVGID_9_);}
	.st14{fill:#DEA861;}
	.st15{fill:#CC8241;}
</style>
<radialGradient id="SVGID_1_" cx="256" cy="256" r="193.5" gradientUnits="userSpaceOnUse">
	<stop  offset="0" style="stop-color:#FFFFFF"/>
	<stop  offset="0.5395" style="stop-color:#E97B00"/>
	<stop  offset="1" style="stop-color:#FF3100"/>
</radialGradient>
<circle class="st0" cx="256" cy="256" r="193.5"/>
<g>
	
		<linearGradient id="SVGID_2_" gradientUnits="userSpaceOnUse" x1="3912.2112" y1="115.4843" x2="3923.4934" y2="135.0243" gradientTransform="matrix(-1 0 0 -1 4091.0181 514)">
		<stop  offset="0" style="stop-color:#43386B"/>
		<stop  offset="1" style="stop-color:#7662BD"/>
	</linearGradient>
	<path class="st1" d="M140.7,376.4l26.1-15l0,0c4.8-2.5,10.9-2.2,17.5,1.7c15.2,8.7,27.4,32.2,27.4,52.4c0,11.1-3.7,18.9-9.6,22.2
		l0,0l-25,14.4L140.7,376.4z"/>
	
		<linearGradient id="SVGID_3_" gradientUnits="userSpaceOnUse" x1="4005.4026" y1="169.1991" x2="4016.6848" y2="188.739" gradientTransform="matrix(-1 0 0 -1 4091.0181 514)">
		<stop  offset="0" style="stop-color:#43386B"/>
		<stop  offset="1" style="stop-color:#7662BD"/>
	</linearGradient>
	<path class="st2" d="M47.5,322.7l26.1-15l0,0c4.8-2.5,10.9-2.2,17.5,1.7c15.2,8.7,27.4,32.2,27.4,52.4c0,11.1-3.7,18.9-9.6,22.2
		l0,0l-25,14.4L47.5,322.7z"/>
	
		<linearGradient id="SVGID_4_" gradientUnits="userSpaceOnUse" x1="240.072" y1="200.0021" x2="166.734" y2="200.0021" gradientTransform="matrix(1 0 0 -1 0 514)">
		<stop  offset="0" style="stop-color:#E37A34"/>
		<stop  offset="1" style="stop-color:#FFC538"/>
	</linearGradient>
	<path class="st3" d="M350.8,341V212.3l-57.2,16.5L30.3,198.3v128.8c0,3.9,2,7.9,5.9,10.1l153.6,89c7.8,4.5,17.4,4.5,25.2,0
		l130.1-75.1C348.8,348.9,350.8,345,350.8,341L350.8,341z"/>
	<path class="st4" d="M344.9,317.2l-130.1,75.1c-7.8,4.5-17.4,4.5-25.2,0l-153.6-89c-3.9-2.3-5.9-6.2-5.9-10.1v33.9
		c0,3.9,2,7.9,5.9,10.1l153.6,89c7.8,4.5,17.4,4.5,25.2,0l130.1-75.1c3.9-2.3,5.9-6.2,5.9-10.1v-33.9
		C350.8,311,348.8,315,344.9,317.2z"/>
	
		<linearGradient id="SVGID_5_" gradientUnits="userSpaceOnUse" x1="96.964" y1="362.7171" x2="269.85" y2="262.9011" gradientTransform="matrix(1 0 0 -1 0 514)">
		<stop  offset="0" style="stop-color:#DEA861"/>
		<stop  offset="1" style="stop-color:#EBCBA0"/>
	</linearGradient>
	<path class="st5" d="M344.9,202.1l-5.8-3.4l-44.9,25.9L281,217l-10-57.6l-79.6-46.3c-7.8-4.5-17.4-4.5-25.2,0L36.1,188.2
		c-7.8,4.5-7.8,15.8,0,20.3l153.6,89c7.8,4.5,17.4,4.5,25.2,0l130.1-75.1C352.7,217.9,352.7,206.6,344.9,202.1L344.9,202.1z"/>
	<g>
		
			<linearGradient id="SVGID_6_" gradientUnits="userSpaceOnUse" x1="65.758" y1="102.333" x2="65.758" y2="201.331" gradientTransform="matrix(1 0 0 -1 0 514)">
			<stop  offset="0" style="stop-color:#43386B"/>
			<stop  offset="1" style="stop-color:#7662BD"/>
		</linearGradient>
		<path class="st6" d="M38.3,344.7c0-20.2,12.3-29.5,27.4-20.7s27.4,32.2,27.4,52.4s-12.3,29.5-27.4,20.7
			C50.6,388.4,38.3,364.9,38.3,344.7z"/>
		<ellipse transform="matrix(0.92 -0.392 0.392 0.92 -136.0161 54.683)" class="st7" cx="65.9" cy="360.4" rx="14.8" ry="26.2"/>
		<path class="st8" d="M57.1,355.5c0-6.4,3.9-9.4,8.7-6.6c4.8,2.8,8.7,10.2,8.7,16.6s-3.9,9.4-8.7,6.6S57.1,361.9,57.1,355.5z"/>
	</g>
	<g>
		
			<linearGradient id="SVGID_7_" gradientUnits="userSpaceOnUse" x1="158.949" y1="48.617" x2="158.949" y2="147.616" gradientTransform="matrix(1 0 0 -1 0 514)">
			<stop  offset="0" style="stop-color:#43386B"/>
			<stop  offset="1" style="stop-color:#7662BD"/>
		</linearGradient>
		<path class="st9" d="M131.5,398.4c0-20.2,12.3-29.5,27.4-20.7s27.4,32.2,27.4,52.4s-12.3,29.5-27.4,20.7S131.5,418.6,131.5,398.4z
			"/>
		<path class="st7" d="M141.9,404.4c0-12.6,7.6-18.4,17.1-12.9s17.1,20.1,17.1,32.6s-7.6,18.4-17.1,12.9S141.9,417,141.9,404.4
			L141.9,404.4z"/>
		<path class="st8" d="M150.2,409.2c0-6.4,3.9-9.4,8.7-6.6s8.7,10.2,8.7,16.6s-3.9,9.4-8.7,6.6S150.2,415.6,150.2,409.2z"/>
	</g>
	<path class="st10" d="M271,159.4l-79.6-46.3c-7.8-4.5-17.4-4.5-25.2,0L36.1,188.2c-7.8,4.5-7.8,15.8,0,20.3l74.7,43.5L271,159.4z"
		/>
	<path class="st8" d="M281,217l-160.2,92.6l58.1,33.6v-51.8l10.8,6.2c7.8,4.5,17.4,4.5,25.2,0l102.8-59.3L281,217z"/>
	<path class="st4" d="M120.8,309.6L281,217l-10-57.6L110.8,252L120.8,309.6z"/>
	<path class="st10" d="M344.9,202.1l-5.8-3.4l-160.2,92.5l10.8,6.2c7.8,4.5,17.4,4.5,25.2,0l130.1-75.1
		C352.7,217.9,352.7,206.6,344.9,202.1L344.9,202.1z"/>
	<g>
		<path class="st11" d="M201.7,302.9c-5.8,0-11-4.2-12-10.1L161.6,130l-44.1-25.4l-9.4,118.1c-0.5,6.7-6.4,11.7-13.1,11.2
			c-6.7-0.5-11.7-6.4-11.2-13.1L94.8,83.5c0.3-4.2,2.8-7.9,6.5-9.8c3.7-1.9,8.1-1.9,11.7,0.2l65.7,37.9c3.1,1.8,5.3,4.9,5.9,8.5
			l29,168.3c1.1,6.6-3.3,12.9-9.9,14.1C203,302.8,202.3,302.9,201.7,302.9L201.7,302.9z"/>
	</g>
	<g>
		<path class="st11" d="M327,230.6c-5.8,0-11-4.2-12-10.1L287,57.8l-44.1-25.4l-9.4,118.1c-0.5,6.7-6.4,11.7-13.1,11.2
			c-6.7-0.5-11.7-6.4-11.2-13.1l10.9-137.3c0.3-4.2,2.8-7.9,6.5-9.8c3.7-1.9,8.1-1.9,11.7,0.2l65.7,37.9c3.1,1.8,5.3,4.9,5.9,8.5
			l29,168.3c1.1,6.6-3.3,12.9-9.9,14.1C328.4,230.6,327.7,230.6,327,230.6z"/>
	</g>
	<path class="st8" d="M304.1,39.6L238.4,1.6c-3.8-2.2-8.4-2.2-12.2,0L100.9,73.9c-3.8,2.2-6.1,6.2-6.1,10.5c0,4.3,2.3,8.4,6.1,10.5
		l65.7,37.9c1.9,1.1,4,1.6,6.1,1.6c2.1,0,4.2-0.5,6.1-1.6l125.4-72.3c3.8-2.2,6.1-6.2,6.1-10.5C310.2,45.8,307.8,41.7,304.1,39.6
		L304.1,39.6z M211.2,86.1l-41.3-23.9l27.2-15.7l41.3,23.9L211.2,86.1z M172.6,108.3l-41.3-23.9l14.3-8.2l41.3,23.9L172.6,108.3z
		 M262.7,56.4l-41.3-23.9l10.9-6.3l41.3,23.9L262.7,56.4z"/>
	<g>
		<g>
			<path class="st8" d="M219.8,194.8c-4.2,0-8.3-2.2-10.6-6.1c-3.4-5.8-1.3-13.3,4.5-16.6l116.9-67.3c5.8-3.4,13.3-1.3,16.6,4.5
				c3.4,5.8,1.3,13.3-4.5,16.6l-116.9,67.3C224,194.3,221.9,194.8,219.8,194.8L219.8,194.8z"/>
		</g>
		<g>
			<path class="st8" d="M294.3,502.7c-2.1,0-4.2-0.5-6.1-1.6l-74.4-43c-3.8-2.2-6.1-6.2-6.1-10.5V133.4c0-6.7,5.4-12.2,12.2-12.2
				c6.7,0,12.2,5.4,12.2,12.2v307.1l68.4,39.5c5.8,3.4,7.8,10.8,4.5,16.6C302.6,500.5,298.5,502.7,294.3,502.7L294.3,502.7z"/>
		</g>
		<g>
			<path class="st8" d="M411.2,435.4c-2.1,0-4.2-0.5-6.1-1.6l-74.4-43c-3.8-2.2-6.1-6.2-6.1-10.5V66.1c0-6.7,5.4-12.2,12.2-12.2
				c6.7,0,12.2,5.4,12.2,12.2v307.1l68.4,39.5c5.8,3.4,7.8,10.8,4.5,16.6C419.5,433.2,415.4,435.4,411.2,435.4z"/>
		</g>
		<g>
			<path class="st8" d="M219.8,265.8c-4.2,0-8.3-2.2-10.6-6.1c-3.4-5.8-1.4-13.3,4.5-16.6l116.9-67.5c5.8-3.4,13.3-1.4,16.6,4.5
				c3.4,5.8,1.4,13.3-4.5,16.6l-116.9,67.5C224,265.3,221.9,265.8,219.8,265.8L219.8,265.8z"/>
		</g>
		<g>
			<g>
				
					<linearGradient id="SVGID_8_" gradientUnits="userSpaceOnUse" x1="323.639" y1="122.8669" x2="358.833" y2="122.8669" gradientTransform="matrix(1 0 0 -1 0 514)">
					<stop  offset="0" style="stop-color:#CC8241"/>
					<stop  offset="1" style="stop-color:#DEA861"/>
				</linearGradient>
				<path class="st12" d="M481.7,429.9V270.3l-256.2,11v159.6c0,3.7,1.8,7.3,5.4,9.4l101.5,58.6c7.2,4.2,16.1,4.2,23.3,0l120.5-69.6
					C479.9,437.2,481.7,433.5,481.7,429.9L481.7,429.9z"/>
				
					<linearGradient id="SVGID_9_" gradientUnits="userSpaceOnUse" x1="282.3058" y1="279.4196" x2="414.1028" y2="203.3266" gradientTransform="matrix(1 0 0 -1 0 514)">
					<stop  offset="0" style="stop-color:#DEA861"/>
					<stop  offset="1" style="stop-color:#EBCBA0"/>
				</linearGradient>
				<path class="st13" d="M231,271.8l120.5-69.6c7.2-4.2,16.1-4.2,23.3,0l101.5,58.6c7.2,4.2,7.2,14.6,0,18.8l-120.5,69.6
					c-7.2,4.2-16.1,4.2-23.3,0L231,290.7C223.7,286.5,223.7,276,231,271.8z"/>
				<path class="st14" d="M270,249.3L399.5,324l34.3-19.8l-129.4-74.7L270,249.3z"/>
				<g>
					<path class="st15" d="M290.6,237.4L420,312.2l-6.7,3.9l-129.4-74.7L290.6,237.4z"/>
					<path class="st15" d="M399.5,324v28.4l34.3-19.8v-28.4L399.5,324z"/>
				</g>
			</g>
		</g>
	</g>
</g>
</svg>
