<?xml version="1.0" encoding="utf-8"?>
<!-- Generator: Adobe Illustrator 21.1.0, SVG Export Plug-In . SVG Version: 6.00 Build 0)  -->
<svg version="1.1" id="Capa_1" xmlns="http://www.w3.org/2000/svg" xmlns:xlink="http://www.w3.org/1999/xlink" x="0px" y="0px"
	 viewBox="0 0 512 512" style="enable-background:new 0 0 512 512;" xml:space="preserve">
<style type="text/css">
	.st0{opacity:0.35;}
	.st1{fill:url(#SVGID_1_);}
	.st2{fill:url(#SVGID_2_);}
	.st3{fill:url(#SVGID_3_);}
	.st4{fill:url(#SVGID_4_);}
	.st5{fill:url(#SVGID_5_);}
	.st6{fill:url(#SVGID_6_);}
	.st7{fill:url(#SVGID_7_);}
	.st8{fill:url(#SVGID_8_);}
	.st9{fill:url(#SVGID_9_);}
	.st10{fill:url(#SVGID_10_);}
	.st11{fill:#512D14;}
	.st12{fill:#FFFFFF;}
	.st13{fill:#070102;}
	.st14{fill:#FDA79B;}
	.st15{fill:#FC9085;}
	.st16{fill:#64B9FC;}
	.st17{fill:#31A7FB;}
	.st18{fill:#C4E1FF;}
	.st19{fill:#83D167;}
	.st20{fill:#54C032;}
	.st21{fill:#F8F3F1;}
</style>
<g class="st0">
	<linearGradient id="SVGID_1_" gradientUnits="userSpaceOnUse" x1="127.0844" y1="118.1444" x2="175.9785" y2="80.9106">
		<stop  offset="8.856686e-03" style="stop-color:#A2A92A"/>
		<stop  offset="0.9847" style="stop-color:#477436"/>
	</linearGradient>
	<path class="st1" d="M122.9,116.9c0,0,26.5-60.1,50.5-34.8c-2,0.6-13.7,3-29.2,15.7c-1.6,1.4-3.3,2.3-2.4,3.5
		c0.9,1.2,2.4-0.8,3.4-1.7s16.6-14.3,30.6-13.6c2.6-0.2,6.3-0.8,6.3-0.8v3.5c0,0-0.7-1.7-4.2-0.7c-0.5,0.7-2.4,4.4-3.8,9.8
		S164.1,122.6,122.9,116.9z"/>
	<linearGradient id="SVGID_2_" gradientUnits="userSpaceOnUse" x1="183.6648" y1="78.1185" x2="183.2673" y2="41.3485">
		<stop  offset="8.856686e-03" style="stop-color:#A2A92A"/>
		<stop  offset="0.9847" style="stop-color:#477436"/>
	</linearGradient>
	<path class="st2" d="M182.9,55.6c-3.1,20.9,1.8,28.1,1.8,28.1c25.9-24.1,0.3-46.1,0.3-46.1S171.6,54.9,170.8,67s10,15.7,10,15.7
		s-2-17.8,0.5-27.2c0.1-0.4,0.3-1.7,0.6-2.4c0.2-0.5,0.6-0.7,0.9-0.7c0.3,0.1,0.4,0.4,0.4,0.7C183.2,53.9,183,55.2,182.9,55.6z"/>
	<g>
		<linearGradient id="SVGID_3_" gradientUnits="userSpaceOnUse" x1="405.5337" y1="63.7452" x2="463.2669" y2="85.729">
			<stop  offset="8.856686e-03" style="stop-color:#E0C739"/>
			<stop  offset="0.5016" style="stop-color:#D58934"/>
			<stop  offset="0.9847" style="stop-color:#CD532E"/>
		</linearGradient>
		<circle class="st3" cx="431.6" cy="73.7" r="37.6"/>
		<linearGradient id="SVGID_4_" gradientUnits="userSpaceOnUse" x1="411.2401" y1="2.722" x2="491.3642" y2="78.8399">
			<stop  offset="8.856686e-03" style="stop-color:#E0C739"/>
			<stop  offset="0.5016" style="stop-color:#D58934"/>
			<stop  offset="0.9847" style="stop-color:#CD532E"/>
		</linearGradient>
		<path class="st4" d="M424,32.1c0,0,7.9-1.8,17.2,0.3c-1.1-1-9.6-6.8-7.4-11.7c2.3-4.9,2.7-8.7-2.1-15.9c0.9,3.9,1.6,7.8-2.8,14.5
			C424.5,26.2,424,32.1,424,32.1z"/>
		
			<linearGradient id="SVGID_5_" gradientUnits="userSpaceOnUse" x1="643.4667" y1="-435.693" x2="723.5908" y2="-359.5751" gradientTransform="matrix(0.8642 -0.5031 0.5031 0.8642 59.2706 727.5491)">
			<stop  offset="8.856686e-03" style="stop-color:#E0C739"/>
			<stop  offset="0.5016" style="stop-color:#D58934"/>
			<stop  offset="0.9847" style="stop-color:#CD532E"/>
		</linearGradient>
		<path class="st5" d="M403.5,41.9c0,0,5.9-5.5,15-8.4c-1.5-0.3-11.7-1-12.2-6.4s-2.1-8.9-9.8-12.7c2.8,2.9,5.3,5.9,4.9,14
			S403.5,41.9,403.5,41.9z"/>
		
			<linearGradient id="SVGID_6_" gradientUnits="userSpaceOnUse" x1="1066.7218" y1="-657.882" x2="1146.8459" y2="-581.764" gradientTransform="matrix(0.4913 -0.871 0.871 0.4913 444.06 1298.0912)">
			<stop  offset="8.856686e-03" style="stop-color:#E0C739"/>
			<stop  offset="0.5016" style="stop-color:#D58934"/>
			<stop  offset="0.9847" style="stop-color:#CD532E"/>
		</linearGradient>
		<path class="st6" d="M391.5,60c0,0,2.3-7.7,8.7-14.8c-1.4,0.4-10.6,5-13.8,0.7c-3.2-4.4-6.3-6.6-14.8-6c3.9,1.1,7.6,2.4,11.3,9.6
			C386.6,56.6,391.5,60,391.5,60z"/>
		
			<linearGradient id="SVGID_7_" gradientUnits="userSpaceOnUse" x1="450.8285" y1="548.6242" x2="530.9526" y2="624.7421" gradientTransform="matrix(0.8643 0.503 -0.503 0.8643 328.8007 -723.2662)">
			<stop  offset="8.856686e-03" style="stop-color:#E0C739"/>
			<stop  offset="0.5016" style="stop-color:#D58934"/>
			<stop  offset="0.9847" style="stop-color:#CD532E"/>
		</linearGradient>
		<path class="st7" d="M445.8,33.7c0,0,7.7,2.4,14.7,8.9c-0.4-1.4-4.9-10.7-0.5-13.8c4.4-3.1,6.7-6.2,6.2-14.8
			c-1.2,3.8-2.5,7.5-9.7,11.2C449.2,28.9,445.8,33.7,445.8,33.7z"/>
		
			<linearGradient id="SVGID_8_" gradientUnits="userSpaceOnUse" x1="767.0846" y1="1037.6515" x2="847.2087" y2="1113.7694" gradientTransform="matrix(0.4926 0.8702 -0.8702 0.4926 1020.7675 -1206.4397)">
			<stop  offset="8.856686e-03" style="stop-color:#E0C739"/>
			<stop  offset="0.5016" style="stop-color:#D58934"/>
			<stop  offset="0.9847" style="stop-color:#CD532E"/>
		</linearGradient>
		<path class="st8" d="M464.2,46.6c0,0,5.4,6,8.2,15.1c0.4-1.4,1.2-11.7,6.5-12.2c5.4-0.5,8.9-2,12.8-9.6c-2.9,2.7-6,5.2-14,4.7
			C469.6,44.1,464.2,46.6,464.2,46.6z"/>
		
			<linearGradient id="SVGID_9_" gradientUnits="userSpaceOnUse" x1="1337.4321" y1="1373.7639" x2="1417.5563" y2="1449.882" gradientTransform="matrix(-5.840528e-02 0.9983 -0.9983 -5.840528e-02 2014.8328 -1254.9846)">
			<stop  offset="8.856686e-03" style="stop-color:#E0C739"/>
			<stop  offset="0.5016" style="stop-color:#D58934"/>
			<stop  offset="0.9847" style="stop-color:#CD532E"/>
		</linearGradient>
		<path class="st9" d="M473.7,68.5c0,0,1.3,8-1.3,17.2c1.1-1,7.3-9.2,12.1-6.7c4.8,2.5,8.5,3.2,16-1.2c-3.9,0.7-7.9,1.1-14.3-3.7
			C479.6,69.4,473.7,68.5,473.7,68.5z"/>
		
			<linearGradient id="SVGID_10_" gradientUnits="userSpaceOnUse" x1="1941.9541" y1="1402.1464" x2="2022.0782" y2="1478.2643" gradientTransform="matrix(-0.5609 0.8279 -0.8279 -0.5609 2864.8584 -749.0629)">
			<stop  offset="8.856686e-03" style="stop-color:#E0C739"/>
			<stop  offset="0.5016" style="stop-color:#D58934"/>
			<stop  offset="0.9847" style="stop-color:#CD532E"/>
		</linearGradient>
		<path class="st10" d="M470.3,90.9c0,0-3,7.5-9.9,14.1c1.5-0.3,11-4.1,13.8,0.5c2.8,4.6,5.7,7.1,14.3,7.2c-3.8-1.4-7.4-3-10.5-10.5
			C474.9,94.7,470.3,90.9,470.3,90.9z"/>
	</g>
	<path class="st11" d="M383.6,70.7c-5.7,5.7-11.7,10.7-17.7,15.6v78.3h69.4l12.2-12.2l-0.9-42.3l-23.5-0.9l-13.9,11.9l-0.6-4.4
		L383.6,70.7z"/>
	<path class="st11" d="M334.1,72.1c8.4-0.2,16.7,0.3,25,1.4v78.7l-12.6,13.3h-26.8v-29c0.4-0.9-5-1.1-6.4-0.9l6.2-32.5l0.2-17.9
		L334.1,72.1z"/>
	<polygon class="st11" points="289.3,72 273.7,85.3 273.7,166.2 300.8,166.2 313.6,152.2 314,74.1 313,71.5 	"/>
	<path class="st11" d="M223.2,111.1l-0.3,33.4c2.6,0.9,4.3,3.4,4.4,6.1v16.1h23.1l16.1-12.3V72.4l-1.6-0.2l-22.3,0.4l-11.6,9
		c-0.3,0.9-1.9,0.3-4.9-1.7L223.2,111.1z"/>
	<polygon class="st11" points="197.8,72.4 181.9,85.2 181.9,166.9 206.2,166.9 224.2,151 224.2,112.7 	"/>
	<path class="st12" d="M210.9,71h-12.7l-0.3,0.3v78.3c0,2.7,1.7,4.2,5.5,4.1h18.9l0.9-2v-40l16.5,19.4c1.9,2.3,3,5.1,3.2,8.1v11
		c0,2.1,0.9,3.5,3.2,3.5h22l-0.6-82.7l-24.1,0.7l-0.6,27.8l-19.7-22.6v-4.2l-2-1.7H210.9z"/>
	<path class="st13" d="M202.8,154.3c-4.5,0-5.6-2.5-5.7-4.8V71l0.7-0.7h23.6l2.5,2.1v4.1l18.3,21l0.5-26.7l25.4-0.6l0.5,84.1H246
		c-1.7,0-3.8-0.7-3.9-4.2v-11.1c-0.3-2.8-1.4-5.5-3.2-7.7l-15.2-17.9v38.2l-1.1,2.6L202.8,154.3L202.8,154.3z M198.5,71.7v77.9
		c0,1.6,0.7,3.5,4.8,3.3h18.4l0.6-1.5v-41.8l17.8,21c1.9,2.5,3,5.4,3.2,8.5v11c0,1.9,0.8,2.8,2.5,2.8h21.3l-0.5-81.2l-22.6,0.5
		l-0.6,29L222.4,77V73l-1.6-1.4H198.5z"/>
	<polygon class="st13" points="211.3,142.3 209.9,142.3 209.9,80 247.3,117.4 246.3,118.4 211.3,83.4 	"/>
	<rect x="255.1" y="82.7" class="st13" width="1.4" height="60.6"/>
	<polygon class="st12" points="288.9,70.7 288.9,153 315.3,153 315.3,124.9 334.1,124.9 334.1,152.5 360.2,152.5 360.2,71.2 
		334.4,71.2 334.4,100.2 315,100.2 315,70.7 	"/>
	<path class="st13" d="M316,153.7h-27.8V69.9h27.5v29.6h17.9v-29H361v82.7h-27.5v-27.5H316V153.7z M289.6,152.3h25v-28.1h20.3v27.5
		h24.7V72h-24.4v29h-20.9V71.4h-24.7V152.3z"/>
	<polygon class="st13" points="302.7,142.6 301.2,142.6 301.2,81.7 302.7,81.7 302.7,111.1 345.9,111.1 345.9,82 347.3,82 
		347.3,142.3 345.9,142.3 345.9,112.6 302.7,112.6 	"/>
	<polygon class="st12" points="381.7,70.7 381.7,152.1 447.5,152.1 447.5,109.2 423.2,109.2 423.2,131.3 408.4,131.3 408.4,70.7 	
		"/>
	<path class="st13" d="M448.2,152.9H381V69.9h28.1v60.6h13.4v-22h25.8V152.9z M382.4,151.4h64.4v-41.6h-22.9v22.3h-16.2V71.4h-25.3
		V151.4z"/>
	<polygon class="st13" points="436,143 394.3,143 394.3,80.8 395.7,80.8 395.7,141.6 434.6,141.6 434.6,120 436,120 	"/>
</g>
<g>
	<g>
		<g>
			<g>
				<g>
					<path class="st14" d="M384.8,311.5h-3.4c19.2,0,34.7-15.4,35.1-34.4c0.4-19.7-16.1-35.8-35.8-35.8H278.8
						c-3.7,0-6.2-3.8-4.7-7.2l15-34.7c0.8-1.9,1.5-3.9,1.9-6l3.6-16.5c7.1-32.2-17.5-62.7-50.5-62.7c-10.1,0-19,6.8-21.7,16.5
						L209,179.5l-50,89.4c-1.8,3.3-5.3,5.3-9,5.3H76.8v192h119.5l9.7,8.7c9.4,8.5,21.6,13.2,34.4,13.2h126.4
						c15.6,0,28.8-12.3,29.3-27.9c0.4-16.2-12.6-29.5-28.7-29.5H378c15.8,0,28.5-12.8,28.5-28.5s-12.8-28.5-28.5-28.5h7.4
						c17.4,0,31.5-14.4,31.1-31.9C416,324.7,401.7,311.5,384.8,311.5L384.8,311.5z"/>
					<path class="st15" d="M416.5,342.5c0,17.2-13.9,31.1-31.1,31.1H378c7.9,0,15,3.2,20.2,8.4c5.2,5.2,8.4,12.3,8.4,20.2
						c0,15.7-12.8,28.5-28.5,28.5h-10.7c15.8,0,28.7,12.9,28.7,28.7c0,15.8-12.8,28.7-28.7,28.7h-36c15.8,0,28.7-12.8,28.7-28.7
						c0-15.8-12.8-28.7-28.7-28.7H342c15.8,0,28.5-12.8,28.5-28.5c0-7.9-3.2-15-8.4-20.2c-5.2-5.2-12.3-8.4-20.2-8.4h7.4
						c17.2,0,31.1-13.9,31.1-31.1s-13.9-31.1-31.1-31.1h-4.1c19.4,0,35.1-15.7,35.1-35.1s-15.7-35.1-35.1-35.1h36
						c19.4,0,35.1,15.7,35.1,35.1s-15.7,35.1-35.1,35.1h4.1C402.6,311.5,416.5,325.4,416.5,342.5z"/>
					<path class="st15" d="M294.6,176.9l-3.6,16.5c-0.4,2.1-1.1,4.1-1.9,6L271,241.2h-36l18.1-41.9c0.8-1.9,1.5-3.9,1.9-6l3.6-16.5
						c5.4-24.5-7.5-47.9-28.4-57.8c0.1-0.1,0.2-0.2,0.4-0.3c3.8-2.9,8.6-4.6,13.6-4.6C277.1,114.2,301.7,144.6,294.6,176.9z"/>
					<g>
						<path class="st15" d="M278.8,241.2H235c-4.3,0-7.7-3.5-7.7-7.7c0-4.3,3.5-7.7,7.7-7.7h42.7l-3.6,8.3
							C272.6,237.4,275.1,241.2,278.8,241.2z"/>
					</g>
					<g>
						<path class="st15" d="M405.6,319.2h-58.3c-4.3,0-7.7-3.5-7.7-7.7c0-4.3,3.5-7.7,7.7-7.7h56c-6,4.8-13.7,7.7-22,7.7h3.4
							C392.7,311.5,400,314.4,405.6,319.2z"/>
					</g>
					<g>
						<path class="st15" d="M378,373.6c7.6,0,14.4,2.9,19.5,7.7h-56.7c-4.3,0-7.7-3.5-7.7-7.7s3.5-7.7,7.7-7.7h65
							c-5.5,4.8-12.6,7.7-20.5,7.7H378z"/>
					</g>
					<g>
						<path class="st15" d="M367.3,430.6c7.6,0,14.5,2.9,19.6,7.7H328c-4.3,0-7.7-3.5-7.7-7.7s3.5-7.7,7.7-7.7h69.5
							c-5.1,4.8-12,7.7-19.5,7.7H367.3z"/>
					</g>
				</g>
			</g>
			<g>
				<path class="st16" d="M12.2,253.1h79.9c6.3,0,11.4,5.1,11.4,11.4v212.1c0,6.3-5.1,11.4-11.4,11.4H12.2
					c-5.7,0-10.3-4.6-10.3-10.3V263.4C1.9,257.7,6.5,253.1,12.2,253.1L12.2,253.1z"/>
				<path class="st17" d="M103.5,264.5v212.1c0,6.3-5.1,11.4-11.4,11.4H55.5c6.3,0,11.4-5.1,11.4-11.4V264.5
					c0-6.3-5.1-11.4-11.4-11.4h36.6C98.4,253.1,103.5,258.2,103.5,264.5L103.5,264.5z"/>
			</g>
		</g>
		<g>
			<path class="st18" d="M45.8,464.4H33.6c-4.3,0-7.7-3.5-7.7-7.7s3.5-7.7,7.7-7.7h12.2c4.3,0,7.7,3.5,7.7,7.7S50,464.4,45.8,464.4z
				"/>
		</g>
	</g>
	<g>
		<g>
			<circle class="st19" cx="154.3" cy="441.8" r="70.2"/>
			<path class="st20" d="M224.5,441.7c0,38.8-31.4,70.3-70.2,70.3c-9.9,0-19.4-2.1-27.9-5.8c0.8,0,1.7,0.1,2.5,0.1
				c35.6,0,64.5-28.9,64.5-64.5s-28.9-64.5-64.5-64.5c-0.8,0-1.7,0-2.5,0.1c8.6-3.7,18-5.8,27.9-5.8
				C193.1,371.5,224.5,403,224.5,441.7L224.5,441.7z"/>
		</g>
		<g>
			<g>
				<g>
					<path class="st21" d="M155.8,476.4c-3.6,0-7.3-1.4-10-4.2l-27-27c-5.5-5.5-5.5-14.5,0-20.1c5.5-5.5,14.5-5.5,20.1,0l14.8,14.8
						c1.2,1.2,3.2,1.2,4.4,0l56.8-56.8c5.5-5.5,14.5-5.5,20.1,0c5.5,5.5,5.5,14.5,0,20.1l-69.1,69.1
						C163.1,475,159.4,476.4,155.8,476.4z"/>
				</g>
			</g>
		</g>
	</g>
</g>
</svg>
