<?xml version="1.0" encoding="utf-8"?>
<!-- Generator: Adobe Illustrator 21.1.0, SVG Export Plug-In . SVG Version: 6.00 Build 0)  -->
<svg version="1.1" id="圖層_1" xmlns="http://www.w3.org/2000/svg" xmlns:xlink="http://www.w3.org/1999/xlink" x="0px" y="0px"
	 viewBox="0 0 512 512" style="enable-background:new 0 0 512 512;" xml:space="preserve">
<style type="text/css">
	.st0{opacity:0.24;fill:url(#SVGID_1_);}
	.st1{fill:#464F5D;}
	.st2{fill:#67B9CC;}
	.st3{fill:#41767F;}
	.st4{fill:#F0C419;}
	.st5{fill:#F3D55B;}
	.st6{fill:#FF5364;}
	.st7{fill:#FB7B76;}
	.st8{fill:#3B97D3;}
	.st9{fill:#90BAE1;}
</style>
<radialGradient id="SVGID_1_" cx="256" cy="256" r="193.5" gradientUnits="userSpaceOnUse">
	<stop  offset="0" style="stop-color:#FFFFFF"/>
	<stop  offset="0.5395" style="stop-color:#E97B00"/>
	<stop  offset="1" style="stop-color:#FF3100"/>
</radialGradient>
<circle class="st0" cx="256" cy="256" r="193.5"/>
<g>
	<path class="st1" d="M123.6,150.1c-4.1,0-7.7-2.8-8.6-6.8c-0.9-4,1-8.1,4.6-9.9L190.3,98c4.4-2.2,9.7-0.4,11.8,3.9
		c2.2,4.4,0.4,9.7-3.9,11.8l-70.6,35.3C126.3,149.8,125,150.1,123.6,150.1z"/>
	<path class="st1" d="M388.4,150.1c-1.4,0-2.7-0.3-3.9-0.9l-70.6-35.3c-4.4-2.2-6.1-7.5-3.9-11.8c2.2-4.4,7.5-6.1,11.8-3.9
		l70.6,35.3c3.7,1.8,5.6,5.9,4.6,9.9C396.1,147.3,392.5,150.1,388.4,150.1z"/>
	<path class="st1" d="M104.7,414.9H87c-4.9,0-8.8-4-8.8-8.8s3.9-8.8,8.8-8.8h17.7c4.9,0,8.8,4,8.8,8.8S109.5,414.9,104.7,414.9z
		 M61.8,397.2c-4.9,0-8.8-4-8.8-8.8v-17.7c0-4.9,4-8.8,8.8-8.8s8.8,4,8.8,8.8v17.7C70.6,393.3,66.7,397.2,61.8,397.2z M61.8,344.3
		c-4.9,0-8.8-4-8.8-8.8v-17.7c0-4.9,4-8.8,8.8-8.8s8.8,4,8.8,8.8v17.7C70.6,340.3,66.7,344.3,61.8,344.3z M61.8,291.3
		c-4.9,0-8.8-3.9-8.8-8.8v-17.7c0-4.9,4-8.8,8.8-8.8s8.8,4,8.8,8.8v17.7C70.6,287.4,66.7,291.3,61.8,291.3z M61.8,238.3
		c-4.9,0-8.8-3.9-8.8-8.8v-17.7c0-4.9,4-8.8,8.8-8.8s8.8,4,8.8,8.8v17.7C70.6,234.4,66.7,238.3,61.8,238.3z"/>
	<path class="st1" d="M425,414.9h-17.7c-4.9,0-8.8-4-8.8-8.8s4-8.8,8.8-8.8H425c4.9,0,8.8,4,8.8,8.8S429.9,414.9,425,414.9z
		 M450.2,397.2c-4.9,0-8.8-4-8.8-8.8v-17.7c0-4.9,4-8.8,8.8-8.8s8.8,4,8.8,8.8v17.7C459,393.3,455.1,397.2,450.2,397.2z
		 M450.2,344.3c-4.9,0-8.8-4-8.8-8.8v-17.7c0-4.9,4-8.8,8.8-8.8s8.8,4,8.8,8.8v17.7C459,340.3,455.1,344.3,450.2,344.3z
		 M450.2,291.3c-4.9,0-8.8-3.9-8.8-8.8v-17.7c0-4.9,4-8.8,8.8-8.8s8.8,4,8.8,8.8v17.7C459,287.4,455.1,291.3,450.2,291.3z
		 M450.2,238.3c-4.9,0-8.8-3.9-8.8-8.8v-17.7c0-4.9,4-8.8,8.8-8.8s8.8,4,8.8,8.8v17.7C459,234.4,455.1,238.3,450.2,238.3z"/>
	<path class="st1" d="M256,256c-4.9,0-8.8-4-8.8-8.8v-17.7c0-4.9,4-8.8,8.8-8.8s8.8,3.9,8.8,8.8v17.7C264.8,252,260.9,256,256,256z
		 M256,203c-4.9,0-8.8-4-8.8-8.8v-17.7c0-4.9,4-8.8,8.8-8.8s8.8,4,8.8,8.8v17.7C264.8,199.1,260.9,203,256,203z"/>
</g>
<path class="st2" d="M241.9,275.4L226,254.2c-3.3-4.4-8.6-7.1-14.1-7.1h-70.6c-5.6,0-10.8,2.6-14.1,7.1l-17.7,23.5
	c-2.3,3.1-3.5,6.8-3.5,10.6v206c0,9.8,7.9,17.7,17.7,17.7h264.8c9.8,0,17.7-7.9,17.7-17.7V300.1c0-9.8-7.9-17.7-17.7-17.7H256
	C250.4,282.5,245.2,279.9,241.9,275.4z"/>
<path class="st3" d="M150.1,317.8h176.6c4.9,0,8.8,4,8.8,8.8v17.7c0,4.9-4,8.8-8.8,8.8H150.1c-4.9,0-8.8-3.9-8.8-8.8v-17.7
	C141.2,321.7,145.2,317.8,150.1,317.8z"/>
<path class="st3" d="M370.8,485.5H150.1c-4.9,0-8.8-3.9-8.8-8.8c0-4.9,4-8.8,8.8-8.8h220.7c4.9,0,8.8,3.9,8.8,8.8
	C379.6,481.6,375.6,485.5,370.8,485.5z"/>
<path class="st3" d="M211.9,450.2h-61.8c-4.9,0-8.8-4-8.8-8.8s4-8.8,8.8-8.8h61.8c4.9,0,8.8,4,8.8,8.8S216.7,450.2,211.9,450.2z"/>
<path class="st3" d="M264.8,414.9H150.1c-4.9,0-8.8-4-8.8-8.8s4-8.8,8.8-8.8h114.8c4.9,0,8.8,4,8.8,8.8S269.7,414.9,264.8,414.9z"/>
<path class="st4" d="M8.8,35.3h105.9c4.9,0,8.8,4,8.8,8.8V203c0,4.9-4,8.8-8.8,8.8H8.8c-4.9,0-8.8-4-8.8-8.8V44.1
	C0,39.3,4,35.3,8.8,35.3z"/>
<path class="st5" d="M88.3,79.4h-53c-4.9,0-8.8-4-8.8-8.8s3.9-8.8,8.8-8.8h53c4.9,0,8.8,4,8.8,8.8S93.2,79.4,88.3,79.4z"/>
<path class="st5" d="M88.3,114.8h-53c-4.9,0-8.8-4-8.8-8.8s3.9-8.8,8.8-8.8h53c4.9,0,8.8,4,8.8,8.8S93.2,114.8,88.3,114.8z"/>
<path class="st5" d="M88.3,150.1h-53c-4.9,0-8.8-4-8.8-8.8s3.9-8.8,8.8-8.8h53c4.9,0,8.8,4,8.8,8.8S93.2,150.1,88.3,150.1z"/>
<path class="st5" d="M88.3,185.4h-53c-4.9,0-8.8-4-8.8-8.8s3.9-8.8,8.8-8.8h53c4.9,0,8.8,4,8.8,8.8S93.2,185.4,88.3,185.4z"/>
<path class="st6" d="M503.2,211.9H397.2c-4.9,0-8.8-4-8.8-8.8V44.1c0-4.9,4-8.8,8.8-8.8h105.9c4.9,0,8.8,4,8.8,8.8V203
	C512,207.9,508,211.9,503.2,211.9z"/>
<path class="st7" d="M476.7,79.4h-53c-4.9,0-8.8-4-8.8-8.8s3.9-8.8,8.8-8.8h53c4.9,0,8.8,4,8.8,8.8S481.6,79.4,476.7,79.4z"/>
<path class="st7" d="M476.7,114.8h-53c-4.9,0-8.8-4-8.8-8.8s3.9-8.8,8.8-8.8h53c4.9,0,8.8,4,8.8,8.8S481.6,114.8,476.7,114.8z"/>
<path class="st7" d="M476.7,150.1h-53c-4.9,0-8.8-4-8.8-8.8s3.9-8.8,8.8-8.8h53c4.9,0,8.8,4,8.8,8.8S481.6,150.1,476.7,150.1z"/>
<path class="st7" d="M476.7,185.4h-53c-4.9,0-8.8-4-8.8-8.8s3.9-8.8,8.8-8.8h53c4.9,0,8.8,4,8.8,8.8S481.6,185.4,476.7,185.4z"/>
<path class="st8" d="M203,0H309c4.9,0,8.8,4,8.8,8.8v158.9c0,4.9-4,8.8-8.8,8.8H203c-4.9,0-8.8-4-8.8-8.8V8.8C194.2,4,198.2,0,203,0
	z"/>
<path class="st9" d="M282.5,44.1h-53c-4.9,0-8.8-3.9-8.8-8.8c0-4.9,3.9-8.8,8.8-8.8h53c4.9,0,8.8,3.9,8.8,8.8
	C291.3,40.2,287.4,44.1,282.5,44.1z"/>
<path class="st9" d="M282.5,79.4h-53c-4.9,0-8.8-4-8.8-8.8s3.9-8.8,8.8-8.8h53c4.9,0,8.8,4,8.8,8.8S287.4,79.4,282.5,79.4z"/>
<path class="st9" d="M282.5,114.8h-53c-4.9,0-8.8-4-8.8-8.8s3.9-8.8,8.8-8.8h53c4.9,0,8.8,4,8.8,8.8S287.4,114.8,282.5,114.8z"/>
<path class="st9" d="M282.5,150.1h-53c-4.9,0-8.8-4-8.8-8.8s3.9-8.8,8.8-8.8h53c4.9,0,8.8,4,8.8,8.8S287.4,150.1,282.5,150.1z"/>
</svg>
